<svg xmlns="http://www.w3.org/2000/svg" xmlns:xlink="http://www.w3.org/1999/xlink" fill="none" version="1.1" width="220" height="382" viewBox="0 0 220 382"><defs><clipPath id="master_svg0_1_2187"><rect x="0" y="0" width="220" height="382" rx="0"/></clipPath><clipPath id="master_svg1_1_2528"><rect x="17.5" y="4" width="185" height="374" rx="0"/></clipPath><linearGradient x1="0.5" y1="1.0014958381652832" x2="0.5" y2="0.0014916666550561786" id="master_svg2_1_0389"><stop offset="0%" stop-color="#2A2A2A" stop-opacity="1"/><stop offset="16.428571939468384%" stop-color="#606060" stop-opacity="1"/><stop offset="52.14285850524902%" stop-color="#606060" stop-opacity="1"/><stop offset="82.14285969734192%" stop-color="#606060" stop-opacity="1"/><stop offset="100%" stop-color="#2A2A2A" stop-opacity="1"/></linearGradient><linearGradient x1="0.5" y1="1.001491665840149" x2="0.5" y2="0.0014916666550561786" id="master_svg3_1_0369"><stop offset="0%" stop-color="#2A2A2A" stop-opacity="1"/><stop offset="14.599999785423279%" stop-color="#606060" stop-opacity="1"/><stop offset="52.14285850524902%" stop-color="#606060" stop-opacity="1"/><stop offset="85.71428656578064%" stop-color="#606060" stop-opacity="1"/><stop offset="100%" stop-color="#2A2A2A" stop-opacity="1"/></linearGradient><linearGradient x1="0.5" y1="1.002393364906311" x2="0.5" y2="0.0023933332413434982" id="master_svg4_1_0349"><stop offset="0%" stop-color="#2A2A2A" stop-opacity="1"/><stop offset="17.142857611179352%" stop-color="#606060" stop-opacity="1"/><stop offset="50%" stop-color="#606060" stop-opacity="1"/><stop offset="82.85714387893677%" stop-color="#606060" stop-opacity="1"/><stop offset="100%" stop-color="#2A2A2A" stop-opacity="1"/></linearGradient><linearGradient x1="0.5" y1="1.0008732080459595" x2="0.5" y2="0.0008731707348488271" id="master_svg5_1_0329"><stop offset="0%" stop-color="#2A2A2A" stop-opacity="1"/><stop offset="17.85714328289032%" stop-color="#606060" stop-opacity="1"/><stop offset="50.71428418159485%" stop-color="#606060" stop-opacity="1"/><stop offset="84.28571224212646%" stop-color="#606060" stop-opacity="1"/><stop offset="99.28571581840515%" stop-color="#2A2A2A" stop-opacity="1"/></linearGradient><linearGradient x1="0.49518001079559326" y1="1.0046600103378296" x2="0.49518001079559326" y2="-0.016860000789165497" id="master_svg6_1_2230"><stop offset="0%" stop-color="#1F1F1F" stop-opacity="1"/><stop offset="100%" stop-color="#0F0F0F" stop-opacity="1"/></linearGradient></defs><g clip-path="url(#master_svg0_1_2187)"><rect x="0" y="0" width="220" height="382" rx="0" fill="#FFFFFF" fill-opacity="0"/><g clip-path="url(#master_svg1_1_2528)"><g><g><path d="M173.2,5C188.3,5,200.5,17.2,200.5,32.3L200.5,349.7C200.5,364.8,188.3,377,173.2,377L46.8,377C31.7,377,19.5,364.8,19.5,349.7L19.5,32.3C19.5,17.2,31.7,5,46.8,5L173.2,5ZM173.2,4L46.8,4C31.2,4,18.5,16.7,18.5,32.3L18.5,349.7C18.5,365.3,31.2,378,46.8,378L173.2,378C188.8,378,201.5,365.3,201.5,349.7L201.5,32.3C201.5,16.7,188.8,4,173.2,4Z" fill="#2A2A2A" fill-opacity="1" style="mix-blend-mode:passthrough"/></g><g><path d="M173.2,6C187.7,6,199.5,17.8,199.5,32.3L199.5,349.7C199.5,364.2,187.7,376,173.2,376L46.8,376C32.3,376,20.5,364.2,20.5,349.7L20.5,32.3C20.5,17.8,32.3,6,46.8,6L173.2,6ZM173.2,5L46.8,5C31.7,5,19.5,17.2,19.5,32.3L19.5,349.7C19.5,364.8,31.7,377,46.8,377L173.2,377C188.3,377,200.5,364.8,200.5,349.7L200.5,32.3C200.5,17.2,188.3,5,173.2,5Z" fill="#494949" fill-opacity="1" style="mix-blend-mode:passthrough"/></g><g><path d="M173.2,7C187.2,7,198.5,18.4,198.5,32.3L198.5,349.7C198.5,363.7,187.1,375,173.2,375L46.8,375C32.9,375,21.5,363.6,21.5,349.7L21.5,32.3C21.5,18.4,32.9,7,46.8,7L173.2,7ZM173.2,6L46.8,6C32.3,6,20.5,17.8,20.5,32.3L20.5,349.7C20.5,364.2,32.3,376,46.8,376L173.2,376C187.7,376,199.5,364.2,199.5,349.7L199.5,32.3C199.5,17.8,187.7,6,173.2,6Z" fill="#3E3E3E" fill-opacity="1" style="mix-blend-mode:passthrough"/></g></g><g><path d="M173.9,7L46.1,7C32.5,7,21.5,18,21.5,31.6L21.5,350.5C21.5,364,32.5,375,46.1,375L174,375C187.6,375,198.6,364,198.6,350.4L198.6,31.6C198.5,18,187.5,7,173.9,7ZM192.5,349.4C192.5,360.7,183.3,369.9,171.9,369.9L48.1,369.9C36.7,369.9,27.5,360.7,27.5,349.4L27.5,32.6C27.5,21.2,36.7,12,48.1,12L63.5,12L73.8,12L147.2,12L152.1,12L171.9,12C183.3,12,192.5,21.2,192.5,32.5L192.5,349.4Z" fill="#000000" fill-opacity="1" style="mix-blend-mode:passthrough"/></g><g><g><path d="M19,136.6999969482422L19.5,136.6999969482422L19.5,112.69999694824219L19,112.69999694824219C18.2,112.69999694824219,17.5,113.39999394824218,17.5,114.19999694824219L17.5,135.0999969482422C17.5,136.0999969482422,18.2,136.6999969482422,19,136.6999969482422Z" fill="url(#master_svg2_1_0389)" fill-opacity="1" style="mix-blend-mode:passthrough"/></g><g><path d="M19,103.69999694824219L19.5,103.69999694824219L19.5,79.69999694824219L19,79.69999694824219C18.2,79.69999694824219,17.5,80.39999394824218,17.5,81.19999694824219L17.5,102.0999969482422C17.5,103.0999969482422,18.2,103.69999694824219,19,103.69999694824219Z" fill="url(#master_svg3_1_0369)" fill-opacity="1" style="mix-blend-mode:passthrough"/></g><g><path d="M18.7,66.70000076293945L19.5,66.70000076293945L19.5,51.70000076293945L18.7,51.70000076293945C18,51.70000076293945,17.5,52.20000076293945,17.5,52.900000762939456L17.5,65.50000076293945C17.5,66.20000076293945,18,66.70000076293945,18.7,66.70000076293945Z" fill="url(#master_svg4_1_0349)" fill-opacity="1" style="mix-blend-mode:passthrough"/></g><g><path d="M200.5,128.6999969482422L200.5,87.69999694824219C201.60001,87.69999694824219,202.5,88.59999894824219,202.5,89.69999694824219L202.5,126.69999694824219C202.5,127.79999694824218,201.60001,128.6999969482422,200.5,128.6999969482422Z" fill="url(#master_svg5_1_0329)" fill-opacity="1" style="mix-blend-mode:passthrough"/></g></g><g><g style="opacity:0.20000000298023224;"><rect x="198.5" y="37.70000076293945" width="3" height="4" rx="0" fill="#000000" fill-opacity="1" style="mix-blend-mode:passthrough"/></g><g style="opacity:0.20000000298023224;"><rect x="160" y="4" width="4" height="3" rx="0" fill="#000000" fill-opacity="1" style="mix-blend-mode:passthrough"/></g><g style="opacity:0.20000000298023224;"><rect x="57.900001525878906" y="375" width="4" height="3" rx="0" fill="#000000" fill-opacity="1" style="mix-blend-mode:passthrough"/></g><g style="opacity:0.20000000298023224;"><rect x="18.5" y="37.70000076293945" width="3" height="4" rx="0" fill="#000000" fill-opacity="1" style="mix-blend-mode:passthrough"/></g><g style="opacity:0.20000000298023224;"><rect x="18.5" y="330.70001220703125" width="3" height="4" rx="0" fill="#000000" fill-opacity="1" style="mix-blend-mode:passthrough"/></g><g style="opacity:0.20000000298023224;"><rect x="198.5" y="330.70001220703125" width="3" height="4" rx="0" fill="#000000" fill-opacity="1" style="mix-blend-mode:passthrough"/></g></g><g><g><path d="M126.8,33.10000171661377L93.2,33.10000171661377C89,33.10000171661377,85.5,29.70000171661377,85.5,25.40000171661377C85.5,21.20000171661377,88.9,17.70000171661377,93.2,17.70000171661377L126.9,17.70000171661377C131.1,17.70000171661377,134.6,21.100001716613768,134.6,25.40000171661377C134.5,29.600001716613768,131.1,33.10000171661377,126.8,33.10000171661377Z" fill="#000000" fill-opacity="1" style="mix-blend-mode:passthrough"/></g><g><g><ellipse cx="126.19999694824219" cy="25.399999618530273" rx="2.5" ry="2.5" fill="url(#master_svg6_1_2230)" fill-opacity="1" style="mix-blend-mode:passthrough"/></g><g><ellipse cx="126.19999694824219" cy="25.399999618530273" rx="1.5" ry="1.5" fill="#070D1D" fill-opacity="1" style="mix-blend-mode:passthrough"/></g><g><g><path d="M125.30000257763672,25.4C125.30000257763672,24.799999,125.40000157763671,24.299999,125.60000657763672,24C125.00000757763672,24.200001,124.70000457763672,24.799999,124.70000457763672,25.4C124.70000457763672,26,125.10000657763672,26.6,125.60000657763672,26.8C125.40000157763671,26.5,125.30000257763672,26,125.30000257763672,25.4Z" fill="#0D569A" fill-opacity="1" style="mix-blend-mode:passthrough"/></g><g><path d="M126.69999694824219,24C126.89999394824218,24.299999,126.99999994824219,24.799999,126.99999994824219,25.4C126.99999994824219,26,126.90000194824219,26.5,126.69999694824219,26.8C127.29999494824219,26.6,127.59999894824219,26,127.59999894824219,25.4C127.59999894824219,24.799999,127.30000294824218,24.200001,126.69999694824219,24Z" fill="#0D569A" fill-opacity="1" style="mix-blend-mode:passthrough"/></g></g></g></g></g></g></svg>