<svg id="图层_1" data-name="图层 1" xmlns="http://www.w3.org/2000/svg" xmlns:xlink="http://www.w3.org/1999/xlink" viewBox="0 0 220 382"><defs><style>.cls-1{fill:#3a3b3a;}.cls-2{fill:#515151;}.cls-3{fill:#5b5b5b;}.cls-4{fill:url(#未命名的渐变_164);}.cls-5{fill:url(#未命名的渐变_164-2);}.cls-6{fill:url(#未命名的渐变_164-3);}.cls-7{fill:url(#未命名的渐变_164-4);}.cls-8{fill:#454545;}.cls-9{fill:url(#未命名的渐变_17);}.cls-10{fill:#070d1d;}.cls-11{fill:#0d569a;}</style><linearGradient id="未命名的渐变_164" x1="-2123.17" y1="136.74" x2="-2123.17" y2="112.74" gradientTransform="matrix(1, 0, 0, -1, 2141.67, 249.47)" gradientUnits="userSpaceOnUse"><stop offset="0" stop-color="#3a3b3a"/><stop offset="0.15" stop-color="#5b5b5b"/><stop offset="0.5" stop-color="#5b5b5b"/><stop offset="0.85" stop-color="#5b5b5b"/><stop offset="1" stop-color="#3a3b3a"/></linearGradient><linearGradient id="未命名的渐变_164-2" x1="-2123.17" y1="103.74" x2="-2123.17" y2="79.74" gradientTransform="matrix(1, 0, 0, -1, 2141.67, 183.47)" xlink:href="#未命名的渐变_164"/><linearGradient id="未命名的渐变_164-3" x1="-2123.17" y1="66.74" x2="-2123.17" y2="51.74" gradientTransform="matrix(1, 0, 0, -1, 2141.67, 118.47)" xlink:href="#未命名的渐变_164"/><linearGradient id="未命名的渐变_164-4" x1="201.5" y1="128.74" x2="201.5" y2="87.74" gradientTransform="matrix(1, 0, 0, 1, 0, 0)" xlink:href="#未命名的渐变_164"/><linearGradient id="未命名的渐变_17" x1="126.18" y1="27.92" x2="126.18" y2="22.82" gradientUnits="userSpaceOnUse"><stop offset="0" stop-color="#1f1f1f"/><stop offset="1" stop-color="#0f0f0f"/></linearGradient></defs><title>机型模型 - 导出处理svg</title><path class="cls-1" d="M173.2,5a27.34,27.34,0,0,1,27.3,27.3V349.7A27.34,27.34,0,0,1,173.2,377H46.8a27.34,27.34,0,0,1-27.3-27.3V32.3A27.34,27.34,0,0,1,46.8,5H173.2m0-1H46.8A28.3,28.3,0,0,0,18.5,32.3V349.7A28.3,28.3,0,0,0,46.8,378H173.2a28.3,28.3,0,0,0,28.3-28.3V32.3A28.3,28.3,0,0,0,173.2,4Z"/><path class="cls-2" d="M173.18,6A26.35,26.35,0,0,1,199.5,32.32V349.68A26.35,26.35,0,0,1,173.18,376H46.82A26.35,26.35,0,0,1,20.5,349.68V32.32A26.35,26.35,0,0,1,46.82,6H173.18m0-1H46.82A27.32,27.32,0,0,0,19.5,32.32V349.68A27.32,27.32,0,0,0,46.82,377H173.18a27.32,27.32,0,0,0,27.32-27.32V32.32A27.32,27.32,0,0,0,173.18,5Z"/><path class="cls-3" d="M173.18,7A25.35,25.35,0,0,1,198.5,32.32V349.68A25.35,25.35,0,0,1,173.18,375H46.82A25.35,25.35,0,0,1,21.5,349.68V32.32A25.35,25.35,0,0,1,46.82,7H173.18m0-1H46.82A26.32,26.32,0,0,0,20.5,32.32V349.68A26.32,26.32,0,0,0,46.82,376H173.18a26.32,26.32,0,0,0,26.32-26.32V32.32A26.32,26.32,0,0,0,173.18,6Z"/><path d="M173.92,7H46.07A24.57,24.57,0,0,0,21.5,31.57V350.43A24.57,24.57,0,0,0,46.07,375H173.92a24.57,24.57,0,0,0,24.58-24.57V31.57A24.57,24.57,0,0,0,173.92,7Zm18.54,342.43A20.55,20.55,0,0,1,171.91,370H48.08a20.55,20.55,0,0,1-20.55-20.54V32.57A20.55,20.55,0,0,1,48.08,12H171.91a20.55,20.55,0,0,1,20.55,20.54Z"/><path class="cls-4" d="M17.5,112.74H18a1.53,1.53,0,0,1,1.53,1.53v20.94A1.53,1.53,0,0,1,18,136.74H17.5a0,0,0,0,1,0,0v-24A0,0,0,0,1,17.5,112.74Z" transform="translate(37 249.47) rotate(180)"/><path class="cls-5" d="M17.5,79.74H18a1.53,1.53,0,0,1,1.53,1.53v20.94A1.53,1.53,0,0,1,18,103.74H17.5a0,0,0,0,1,0,0v-24A0,0,0,0,1,17.5,79.74Z" transform="translate(37 183.47) rotate(180)"/><path class="cls-6" d="M17.5,51.74h.79a1.21,1.21,0,0,1,1.21,1.21V65.53a1.21,1.21,0,0,1-1.21,1.21H17.5a0,0,0,0,1,0,0v-15A0,0,0,0,1,17.5,51.74Z" transform="translate(37 118.47) rotate(180)"/><path class="cls-7" d="M200.5,87.74h0a2,2,0,0,1,2,2v37a2,2,0,0,1-2,2h0a0,0,0,0,1,0,0v-41A0,0,0,0,1,200.5,87.74Z"/><rect class="cls-8" x="198.49" y="37.74" width="3" height="4"/><rect class="cls-8" x="160" y="4" width="4" height="2.99"/><rect class="cls-8" x="57.87" y="375" width="4" height="3"/><rect class="cls-8" x="18.5" y="37.74" width="2.99" height="4"/><rect class="cls-8" x="18.5" y="330.74" width="2.99" height="4"/><rect class="cls-8" x="198.49" y="330.74" width="3.01" height="4"/><rect x="85.49" y="17.74" width="49" height="15.33" rx="7.67" ry="7.67"/><circle class="cls-9" cx="126.18" cy="25.4" r="2.5"/><circle class="cls-10" cx="126.18" cy="25.4" r="1.5"/><path class="cls-11" d="M125.28,25.4a2.67,2.67,0,0,1,.34-1.39,1.5,1.5,0,0,0,0,2.78A2.62,2.62,0,0,1,125.28,25.4Z"/><path class="cls-11" d="M126.73,24a2.67,2.67,0,0,1,.34,1.39,2.62,2.62,0,0,1-.34,1.39,1.49,1.49,0,0,0,0-2.78Z"/></svg>