<svg xmlns="http://www.w3.org/2000/svg" xmlns:xlink="http://www.w3.org/1999/xlink" fill="none" version="1.1" width="220" height="382" viewBox="0 0 220 382"><defs><clipPath id="master_svg0_53_37250"><rect x="0" y="0" width="220" height="382" rx="0"/></clipPath><clipPath id="master_svg1_53_37252"><rect x="17.5" y="4" width="185" height="374" rx="0"/></clipPath><linearGradient x1="0.5" y1="1.0008732080459595" x2="0.5" y2="0.0008731707348488271" id="master_svg2_53_50560"><stop offset="0%" stop-color="#0A0A0A" stop-opacity="1"/><stop offset="17.85714328289032%" stop-color="#606060" stop-opacity="1"/><stop offset="50.71428418159485%" stop-color="#8B8B8D" stop-opacity="1"/><stop offset="84.28571224212646%" stop-color="#606060" stop-opacity="1"/><stop offset="99.28571581840515%" stop-color="#0A0A0A" stop-opacity="1"/></linearGradient><linearGradient x1="0.5" y1="1.0008732080459595" x2="0.5" y2="0.0008731707348488271" id="master_svg3_53_50560"><stop offset="0%" stop-color="#0A0A0A" stop-opacity="1"/><stop offset="17.85714328289032%" stop-color="#606060" stop-opacity="1"/><stop offset="50.71428418159485%" stop-color="#8B8B8D" stop-opacity="1"/><stop offset="84.28571224212646%" stop-color="#606060" stop-opacity="1"/><stop offset="99.28571581840515%" stop-color="#0A0A0A" stop-opacity="1"/></linearGradient><linearGradient x1="0.5" y1="1.0008732080459595" x2="0.5" y2="0.0008731707348488271" id="master_svg4_53_50560"><stop offset="0%" stop-color="#0A0A0A" stop-opacity="1"/><stop offset="17.85714328289032%" stop-color="#606060" stop-opacity="1"/><stop offset="50.71428418159485%" stop-color="#8B8B8D" stop-opacity="1"/><stop offset="84.28571224212646%" stop-color="#606060" stop-opacity="1"/><stop offset="99.28571581840515%" stop-color="#0A0A0A" stop-opacity="1"/></linearGradient><linearGradient x1="0.5" y1="1.0008732080459595" x2="0.5" y2="0.0008731707348488271" id="master_svg5_53_50560"><stop offset="0%" stop-color="#0A0A0A" stop-opacity="1"/><stop offset="17.85714328289032%" stop-color="#606060" stop-opacity="1"/><stop offset="50.71428418159485%" stop-color="#8B8B8D" stop-opacity="1"/><stop offset="84.28571224212646%" stop-color="#606060" stop-opacity="1"/><stop offset="99.28571581840515%" stop-color="#0A0A0A" stop-opacity="1"/></linearGradient><linearGradient x1="0.49518001079559326" y1="1.0046600103378296" x2="0.49518001079559326" y2="-0.016860000789165497" id="master_svg6_1_2230"><stop offset="0%" stop-color="#1F1F1F" stop-opacity="1"/><stop offset="100%" stop-color="#0F0F0F" stop-opacity="1"/></linearGradient></defs><g clip-path="url(#master_svg0_53_37250)"><rect x="0" y="0" width="220" height="382" rx="0" fill="#FFFFFF" fill-opacity="0"/><g clip-path="url(#master_svg1_53_37252)"><g><g><path d="M173.2,5C188.3,5,200.5,17.2,200.5,32.299999L200.5,349.69998C200.5,364.79999,188.3,376.99997,173.2,376.99997L46.799999,376.99997C31.7,377,19.5,364.79999,19.5,349.70001L19.5,32.299999C19.5,17.2,31.7,5,46.799999,5L173.2,5ZM173.2,4L46.799999,4C31.2,4,18.5,16.7,18.5,32.299999L18.5,349.69998C18.5,365.29999,31.2,378,46.799999,378L173.2,378C188.8,378,201.5,365.29999,201.5,349.70001L201.5,32.299999C201.5,16.7,188.8,4,173.2,4Z" fill="#0A0A0A" fill-opacity="1" style="mix-blend-mode:passthrough"/></g><g><path d="M173.2,6C187.7,6,199.5,17.8,199.5,32.299999L199.5,349.69998C199.5,364.19998,187.7,375.99997,173.2,375.99997L46.799999,375.99997C32.3,376,20.5,364.20001,20.5,349.70001L20.5,32.299999C20.5,17.8,32.3,6,46.799999,6L173.2,6ZM173.2,5L46.799999,5C31.7,5,19.5,17.2,19.5,32.299999L19.5,349.69998C19.5,364.79999,31.7,377,46.799999,377L173.2,377C188.3,377,200.5,364.79999,200.5,349.70001L200.5,32.299999C200.5,17.2,188.3,5,173.2,5Z" fill="#19191B" fill-opacity="1" style="mix-blend-mode:passthrough"/></g><g><path d="M173.2,7C187.2,7,198.5,18.4,198.5,32.299999L198.5,349.69998C198.5,363.69998,187.10001,374.99997,173.2,374.99997L46.799999,374.99997C32.9,375,21.5,363.60001,21.5,349.70001L21.5,32.299999C21.5,18.4,32.9,7,46.799999,7L173.2,7ZM173.2,6L46.799999,6C32.3,6,20.5,17.8,20.5,32.299999L20.5,349.69998C20.5,364.20001,32.3,376,46.799999,376L173.2,376C187.7,376,199.5,364.20001,199.5,349.70001L199.5,32.299999C199.5,17.8,187.7,6,173.2,6Z" fill="#5A5A5A" fill-opacity="1" style="mix-blend-mode:passthrough"/></g></g><g><path d="M173.89999,7L46.1,7C32.5,7,21.5,18,21.5,31.6L21.5,350.5C21.5,364,32.5,375,46.1,375L174,375C187.60001,375,198.60001,364,198.60001,350.39999L198.60001,31.6C198.5,18,187.5,7,173.89999,7ZM192.5,349.39999C192.5,360.69998,183.3,369.89999,171.89999,369.89999L48.1,369.89999C36.700001,369.89999,27.5,360.69998,27.5,349.39999L27.5,32.6C27.5,21.200001,36.700001,12,48.1,12L63.5,12L73.799999,12L147.2,12L152.09999,12L171.89999,12C183.29999,12,192.5,21.200001,192.5,32.5L192.5,349.39999Z" fill="#000000" fill-opacity="1" style="mix-blend-mode:passthrough"/></g><g><g><path d="M19,156.69999313354492L19.5,156.69999313354492L19.5,132.69999313354492L19,132.69999313354492C18.19999999,132.69999313354492,17.5,133.39999008354494,17.5,134.19999313354492L17.5,155.09998713354491C17.5,156.10000213354493,18.19999999,156.69999313354492,19,156.69999313354492Z" fill="url(#master_svg2_53_50560)" fill-opacity="1" style="mix-blend-mode:passthrough"/></g><g><path d="M19,123.69999313354492L19.5,123.69999313354492L19.5,99.69999313354492L19,99.69999313354492C18.19999999,99.69999313354492,17.5,100.39999008354492,17.5,101.19999313354492L17.5,122.09998713354491C17.5,123.10000213354492,18.19999999,123.69999313354492,19,123.69999313354492Z" fill="url(#master_svg3_53_50560)" fill-opacity="1" style="mix-blend-mode:passthrough"/></g><g><path d="M18.7,86.69999694824219L19.5,86.69999694824219L19.5,71.69999694824219L18.7,71.69999694824219C18.00000006,71.69999694824219,17.5,72.19999694824219,17.5,72.89999774824219L17.5,85.49999594824219C17.5,86.19999694824219,18,86.69999694824219,18.7,86.69999694824219Z" fill="url(#master_svg4_53_50560)" fill-opacity="1" style="mix-blend-mode:passthrough"/></g><g><path d="M200.5,148.69999313354492L200.5,107.69999313354492C201.6000061,107.69999313354492,202.5,108.59999466354492,202.5,109.69999313354492L202.5,146.69999313354492C202.5,147.79999913354493,201.6000061,148.69999313354492,200.5,148.69999313354492Z" fill="url(#master_svg5_53_50560)" fill-opacity="1" style="mix-blend-mode:passthrough"/></g></g><g><g style="opacity:0.20000000298023224;"><rect x="198.5" y="37.70000076293945" width="3" height="4" rx="0" fill="#000000" fill-opacity="1" style="mix-blend-mode:passthrough"/></g><g style="opacity:0.20000000298023224;"><rect x="160" y="4" width="4" height="3" rx="0" fill="#000000" fill-opacity="1" style="mix-blend-mode:passthrough"/></g><g style="opacity:0.20000000298023224;"><rect x="57.900001525878906" y="375" width="4" height="3" rx="0" fill="#000000" fill-opacity="1" style="mix-blend-mode:passthrough"/></g><g style="opacity:0.20000000298023224;"><rect x="18.5" y="37.70000076293945" width="3" height="4" rx="0" fill="#000000" fill-opacity="1" style="mix-blend-mode:passthrough"/></g><g style="opacity:0.20000000298023224;"><rect x="18.5" y="330.70001220703125" width="3" height="4" rx="0" fill="#000000" fill-opacity="1" style="mix-blend-mode:passthrough"/></g><g style="opacity:0.20000000298023224;"><rect x="198.5" y="330.70001220703125" width="3" height="4" rx="0" fill="#000000" fill-opacity="1" style="mix-blend-mode:passthrough"/></g></g><g><g><path d="M126.800003,33.10000071661377L93.1999969,33.10000071661377C89,33.10000071661377,85.5,29.700000716613772,85.5,25.40000151661377C85.5,21.20000071661377,88.9000015,17.70000171661377,93.1999969,17.70000171661377L126.89999399999999,17.70000171661377C131.099991,17.70000171661377,134.599991,21.100002316613768,134.599991,25.40000151661377C134.5,29.60000071661377,131.099998,33.10000071661377,126.800003,33.10000071661377Z" fill="#000000" fill-opacity="1" style="mix-blend-mode:passthrough"/></g><g><g><ellipse cx="126.19999694824219" cy="25.399999618530273" rx="2.5" ry="2.5" fill="url(#master_svg6_1_2230)" fill-opacity="1" style="mix-blend-mode:passthrough"/></g><g><ellipse cx="126.19999694824219" cy="25.399999618530273" rx="1.5" ry="1.5" fill="#070D1D" fill-opacity="1" style="mix-blend-mode:passthrough"/></g><g><g><path d="M125.30000304763672,25.3999996C125.30000304763672,24.79999924,125.40000152763672,24.29999924,125.60000610763672,24C125.00000762763672,24.20000076,124.70000457763672,24.79999924,124.70000457763672,25.3999996C124.70000457763672,26,125.10000610763672,26.6000004,125.60000610763672,26.7999992C125.40000152763672,26.5,125.30000304763672,26,125.30000304763672,25.3999996Z" fill="#0D569A" fill-opacity="1" style="mix-blend-mode:passthrough"/></g><g><path d="M126.69999694824219,24C126.89999389824219,24.29999924,126.99999999824219,24.79999924,126.99999999824219,25.3999996C126.99999999824219,26,126.90000152824219,26.5,126.69999694824219,26.7999992C127.29999541824219,26.599998499999998,127.59999847824218,26,127.59999847824218,25.3999996C127.59999847824218,24.79999924,127.30000304824219,24.20000076,126.69999694824219,24Z" fill="#0D569A" fill-opacity="1" style="mix-blend-mode:passthrough"/></g></g></g></g></g></g></svg>