<svg xmlns="http://www.w3.org/2000/svg" xmlns:xlink="http://www.w3.org/1999/xlink" fill="none" version="1.1" width="220" height="315" viewBox="0 0 220 315"><defs><clipPath id="master_svg0_14_67"><rect x="0" y="0" width="220" height="315" rx="0"/></clipPath><linearGradient x1="0.48899999260902405" y1="1.0020999908447266" x2="0.48899999260902405" y2="-0.01940000057220459" id="master_svg1_14_156"><stop offset="0%" stop-color="#1F1F1F" stop-opacity="1"/><stop offset="100%" stop-color="#0F0F0F" stop-opacity="1"/></linearGradient></defs><g clip-path="url(#master_svg0_14_67)"><g><g><path d="M205,22.399999618530273C211.6,22.399999618530273,217,27.799999618530272,217,34.39999961853027L217,274.3999996185303C217,280.9999996185303,211.6,286.3999996185303,205,286.3999996185303L25,286.3999996185303C18.4,286.3999996185303,13,280.9999996185303,13,274.3999996185303L13,34.39999961853027C13,27.799989618530272,18.4,22.399993618530274,25,22.399993618530274L205,22.399999618530273ZM205,21.399999618530273L25,21.399999618530273C17.8,21.399999618530273,12,27.199999618530274,12,34.39999961853027L12,274.3999996185303C12,281.59999961853026,17.8,287.3999996185303,25,287.3999996185303L205,287.3999996185303C212.2,287.3999996185303,218,281.59999961853026,218,274.3999996185303L218,34.39999961853027C218,27.299999618530272,212.1,21.399999618530273,205,21.399999618530273Z" fill="#B8CDCE" fill-opacity="1" style="mix-blend-mode:passthrough"/></g><g><path d="M204.80000076293945,23.899999618530273C210.80000076293945,23.899999618530273,215.70000076293945,28.799999618530272,215.70000076293945,34.79999961853027L215.70000076293945,274.09999961853026C215.70000076293945,280.09999961853026,210.80000076293945,284.9999996185303,204.80000076293945,284.9999996185303L25.10000076293945,284.9999996185303C19.10000076293945,284.9999996185303,14.200000762939453,280.09999961853026,14.200000762939453,274.09999961853026L14.200000762939453,34.79999961853027C14.200000762939453,28.799999618530272,19.10000076293945,23.899999618530273,25.10000076293945,23.899999618530273L204.80000076293945,23.899999618530273ZM204.80000076293945,22.399999618530273L25.10000076293945,22.399999618530273C18.300000762939455,22.399999618530273,12.700000762939453,27.899999618530273,12.700000762939453,34.79999961853027L12.700000762939453,274.09999961853026C12.700000762939453,280.8999996185303,18.200000762939453,286.4999996185303,25.10000076293945,286.4999996185303L204.80000076293945,286.4999996185303C211.60000076293946,286.4999996185303,217.20000076293945,280.9999996185303,217.20000076293945,274.09999961853026L217.20000076293945,34.79999961853027C217.20000076293945,27.999999618530275,211.70000076293945,22.399999618530273,204.80000076293945,22.399999618530273Z" fill="#D5E3E4" fill-opacity="1" style="mix-blend-mode:passthrough"/></g><g><path d="M204,23.399999618530273L26,23.399999618530273C19.4,23.399999618530273,14,28.799999618530272,14,35.39999961853027L14,273.3999996185303C14,279.9999996185303,19.4,285.3999996185303,26,285.3999996185303L204,285.3999996185303C210.6,285.3999996185303,216,279.9999996185303,216,273.3999996185303L216,35.39999961853027C216,28.799999618530272,210.6,23.399999618530273,204,23.399999618530273ZM209,273.8999996185303C209,276.6999996185303,206.8,278.8999996185303,204,278.8999996185303L26,278.8999996185303C23.2,278.8999996185303,21,276.6999996185303,21,273.8999996185303L21,34.89999961853027C21,32.099999618530276,23.2,29.899989618530274,26,29.899989618530274L204,29.899989618530274C206.8,29.899989618530274,209,32.099999618530276,209,34.89999961853027L209,273.8999996185303Z" fill="#050505" fill-opacity="1" style="mix-blend-mode:passthrough"/></g><g transform="matrix(-1,-1.2246469849340659e-16,1.2246469849340659e-16,-1,108.05000305175781,42.97359848022462)"><rect x="54.025001525878906" y="21.486799240112305" width="16" height="1" rx="0" fill="#829697" fill-opacity="1" style="mix-blend-mode:passthrough"/></g><g transform="matrix(-1,-1.2246469849340659e-16,1.2246469849340659e-16,-1,148.0500030517578,42.973598480224624)"><rect x="74.0250015258789" y="21.486799240112305" width="16" height="1" rx="0" fill="#829697" fill-opacity="1" style="mix-blend-mode:passthrough"/></g><g transform="matrix(-1,-1.2246469849340659e-16,1.2246469849340659e-16,-1,403.95001220703125,42.97359848022464)"><rect x="201.97500610351562" y="21.486799240112305" width="20" height="1" rx="0" fill="#829697" fill-opacity="1" style="mix-blend-mode:passthrough"/></g><g><g><ellipse cx="115" cy="26.700000762939453" rx="1.5" ry="1.5" fill="url(#master_svg1_14_156)" fill-opacity="1" style="mix-blend-mode:passthrough"/></g><g><ellipse cx="114.99999845027924" cy="26.69999921321869" rx="0.8999999761581421" ry="0.8999999761581421" fill="#070D1D" fill-opacity="1" style="mix-blend-mode:passthrough"/></g><g><g><path d="M114.400002,26.700000525878906C114.400002,26.400001525878906,114.5,26.100000525878905,114.599998,25.900001525878906C114.299995,26.000001525878908,114,26.400001525878906,114,26.700000525878906C114,27.000001525878908,114.199997,27.400001525878906,114.599998,27.500001525878908C114.5,27.300001525878905,114.400002,27.000001525878908,114.400002,26.700000525878906Z" fill="#0D569A" fill-opacity="1" style="mix-blend-mode:passthrough"/></g><g><path d="M115.30000305175781,25.899999618530273C115.40000155175781,26.100000618530274,115.50000005175781,26.399999618530273,115.50000005175781,26.699998618530273C115.50000005175781,26.999999618530275,115.40000155175781,27.299999618530272,115.30000305175781,27.499999618530275C115.60000605175782,27.399999618530273,115.90000105175781,26.999999618530275,115.90000105175781,26.699998618530273C115.90000105175781,26.399999618530273,115.59999805175781,25.999999618530275,115.30000305175781,25.899999618530273Z" fill="#0D569A" fill-opacity="1" style="mix-blend-mode:passthrough"/></g></g></g></g></g></svg>