<svg xmlns="http://www.w3.org/2000/svg" xmlns:xlink="http://www.w3.org/1999/xlink" fill="none" version="1.1" width="220" height="382" viewBox="0 0 220 382"><defs><clipPath id="master_svg0_7_16582"><rect x="0" y="0" width="220" height="382" rx="0"/></clipPath><clipPath id="master_svg1_7_16584"><rect x="17.5" y="4" width="185" height="374" rx="0"/></clipPath><mask id="master_svg2_7_19599" style="mask-type:alpha" maskUnits="userSpaceOnUse"><g><g><rect x="27.5" y="12" width="165" height="358" rx="12" fill="#000000" fill-opacity="1" style="mix-blend-mode:passthrough"/></g></g></mask><linearGradient x1="0.7346181869506836" y1="0.5776852369308472" x2="0.9085515141487122" y2="0.06615053862333298" id="master_svg3_7_19610"><stop offset="0%" stop-color="#450126" stop-opacity="1"/><stop offset="63.724201917648315%" stop-color="#6D0115" stop-opacity="1"/><stop offset="100%" stop-color="#AB0201" stop-opacity="1"/></linearGradient><linearGradient x1="-1.1934897514720433e-15" y1="0.7137967348098755" x2="1.0006242990493774" y2="0.4288916289806366" id="master_svg4_7_19622"><stop offset="0%" stop-color="#FD0100" stop-opacity="1"/><stop offset="53.251099586486816%" stop-color="#FD0100" stop-opacity="1"/><stop offset="100%" stop-color="#FE012E" stop-opacity="1"/></linearGradient><radialGradient cx="0" cy="0" r="1" gradientUnits="userSpaceOnUse" id="master_svg5_7_19619" gradientTransform="translate(122.48099714517593 218.99499415566606) rotate(74.4159982123984) scale(46.457798907278395 71.69920301604209)"><stop offset="28.645798563957214%" stop-color="#FD2801" stop-opacity="1"/><stop offset="100%" stop-color="#FE8201" stop-opacity="1"/></radialGradient><linearGradient x1="0.7230787873268127" y1="0.050506267696619034" x2="0.6586848497390747" y2="0.19001811742782593" id="master_svg6_7_19625"><stop offset="0%" stop-color="#FEAC16" stop-opacity="1"/><stop offset="100%" stop-color="#FE8202" stop-opacity="0"/></linearGradient><linearGradient x1="0.9878666400909424" y1="0.4605683386325836" x2="0.008777575567364693" y2="0.7832205891609192" id="master_svg7_7_19616"><stop offset="0%" stop-color="#FE9391" stop-opacity="1"/><stop offset="27.200201153755188%" stop-color="#FE4AC8" stop-opacity="1"/><stop offset="73.7617015838623%" stop-color="#BE53EB" stop-opacity="1"/><stop offset="100%" stop-color="#7F75F0" stop-opacity="1"/></linearGradient><radialGradient cx="0" cy="0" r="1" gradientUnits="userSpaceOnUse" id="master_svg8_7_19613" gradientTransform="translate(137.50000327825546 219.41900193864603) rotate(98.7418986591785) scale(51.49869904914787 74.77439505025103)"><stop offset="0%" stop-color="#FD839D" stop-opacity="1"/><stop offset="100%" stop-color="#EB33DB" stop-opacity="0"/></radialGradient><linearGradient x1="0.922224223613739" y1="0.7631429433822632" x2="-0.018478788435459137" y2="0.9007770419120789" id="master_svg9_7_19607"><stop offset="0%" stop-color="#00F2FE" stop-opacity="1"/><stop offset="100%" stop-color="#0F96FC" stop-opacity="1"/></linearGradient><linearGradient x1="0.7568848729133606" y1="0.14289504289627075" x2="0.8939030170440674" y2="0.7171512246131897" id="master_svga_7_19604"><stop offset="0%" stop-color="#FFFFFF" stop-opacity="0.800000011920929"/><stop offset="28.270098567008972%" stop-color="#FFFFFF" stop-opacity="0.7099999785423279"/><stop offset="100%" stop-color="#01F3FF" stop-opacity="0"/></linearGradient><linearGradient x1="0.5" y1="1.0014958381652832" x2="0.5" y2="0.0014916666550561786" id="master_svgb_1_0764"><stop offset="0%" stop-color="#735F51" stop-opacity="1"/><stop offset="16.428571939468384%" stop-color="#B19E8F" stop-opacity="1"/><stop offset="52.14285850524902%" stop-color="#B19E8F" stop-opacity="1"/><stop offset="82.14285969734192%" stop-color="#B19E8F" stop-opacity="1"/><stop offset="100%" stop-color="#735F51" stop-opacity="1"/></linearGradient><linearGradient x1="0.5" y1="1.001491665840149" x2="0.5" y2="0.0014916666550561786" id="master_svgc_1_0740"><stop offset="0%" stop-color="#735F51" stop-opacity="1"/><stop offset="14.599999785423279%" stop-color="#B19E8F" stop-opacity="1"/><stop offset="52.14285850524902%" stop-color="#B19E8F" stop-opacity="1"/><stop offset="85.71428656578064%" stop-color="#B19E8F" stop-opacity="1"/><stop offset="100%" stop-color="#735F51" stop-opacity="1"/></linearGradient><linearGradient x1="0.5" y1="1.002393364906311" x2="0.5" y2="0.0023933332413434982" id="master_svgd_1_0720"><stop offset="0%" stop-color="#735F51" stop-opacity="1"/><stop offset="17.142857611179352%" stop-color="#B19E8F" stop-opacity="1"/><stop offset="50%" stop-color="#B19E8F" stop-opacity="1"/><stop offset="82.85714387893677%" stop-color="#B19E8F" stop-opacity="1"/><stop offset="100%" stop-color="#735F51" stop-opacity="1"/></linearGradient><linearGradient x1="0.5" y1="1.0008732080459595" x2="0.5" y2="0.0008731707348488271" id="master_svge_1_0700"><stop offset="0%" stop-color="#735F51" stop-opacity="1"/><stop offset="17.85714328289032%" stop-color="#B19E8F" stop-opacity="1"/><stop offset="49.28571283817291%" stop-color="#B19E8F" stop-opacity="1"/><stop offset="84.28571224212646%" stop-color="#B19E8F" stop-opacity="1"/><stop offset="100%" stop-color="#735F51" stop-opacity="1"/></linearGradient><linearGradient x1="0.49518001079559326" y1="1.0046600103378296" x2="0.49518001079559326" y2="-0.016860000789165497" id="master_svgf_1_2230"><stop offset="0%" stop-color="#1F1F1F" stop-opacity="1"/><stop offset="100%" stop-color="#0F0F0F" stop-opacity="1"/></linearGradient></defs><g clip-path="url(#master_svg0_7_16582)"><rect x="0" y="0" width="220" height="382" rx="0" fill="#FFFFFF" fill-opacity="0"/><g clip-path="url(#master_svg1_7_16584)"><g mask="url(#master_svg2_7_19599)"><g><g><path d="M27.5,22C27.5,16.4772,31.9772,12,37.5,12L182.5,12C188.023,12,192.5,16.4772,192.5,22L192.5,109.559L27.5,162.156L27.5,22Z" fill="url(#master_svg3_7_19610)" fill-opacity="1" style="mix-blend-mode:passthrough"/></g><g><path d="M192.5,23.5C184.53,42.185199999999995,175.872,51.917,166.164,69.755C160.673,79.8458,157.367,88.7767,145.228,96.469C138.44799999999998,100.765,128.442,104.352,120.77,106.801C108.204,110.813,94.8805,112.572,82.0121,115.479C62.9548,119.784,47.883700000000005,123.686,27.5,135.858L27.5,237.659L192.5,179.335L192.5,23.5Z" fill="url(#master_svg4_7_19622)" fill-opacity="1" style="mix-blend-mode:passthrough"/></g><g><path d="M192.5,127.58600309326172C184.656,126.14499709326172,176.882,125.58100109326172,168.917,125.96299709326172C140.872,127.30700309326171,109.466,142.10903309326173,86.87700000000001,164.74903309326172C64.28829999999999,187.38903309326173,44.669,211.97003309326172,27.5,237.86973309326171L27.5,332.4597330932617L192.5,283.2567330932617L192.5,127.58600309326172Z" fill="url(#master_svg5_7_19619)" fill-opacity="1" style="mix-blend-mode:passthrough"/></g><g><path d="M192.5,127.58600309326172C184.656,126.14499709326172,176.882,125.58100109326172,168.917,125.96299709326172C140.872,127.30700309326171,109.466,142.10903309326173,86.87700000000001,164.74903309326172C64.28829999999999,187.38903309326173,44.669,211.97003309326172,27.5,237.86973309326171L27.5,332.4597330932617L192.5,283.2567330932617L192.5,127.58600309326172Z" fill="url(#master_svg6_7_19625)" fill-opacity="1" style="mix-blend-mode:passthrough"/></g><g><path d="M192.5,156.00599670410156C181.61,172.56699670410157,168.164,186.56799670410157,153.743,200.14999670410157C147.671,205.86599670410158,142.175,210.61099670410155,132.571,214.93299670410155C122.968,219.25599670410156,107.087,221.09299670410155,98.2024,220.00499670410156C92.0301,219.24899670410156,81.7764,216.73099670410156,73.5943,215.38699670410156C58.197,212.85899670410157,42.161500000000004,214.36499670410157,27.5,219.71599670410157L27.5,322.28099670410154L192.5,277.31899670410155L192.5,156.00599670410156Z" fill="url(#master_svg7_7_19616)" fill-opacity="1" style="mix-blend-mode:passthrough"/></g><g><path d="M192.5,156.00599670410156C181.61,172.56699670410157,168.164,186.56799670410157,153.743,200.14999670410157C147.671,205.86599670410158,142.175,210.61099670410155,132.571,214.93299670410155C122.968,219.25599670410156,107.087,221.09299670410155,98.2024,220.00499670410156C92.0301,219.24899670410156,81.7764,216.73099670410156,73.5943,215.38699670410156C58.197,212.85899670410157,42.161500000000004,214.36499670410157,27.5,219.71599670410157L27.5,322.28099670410154L192.5,277.31899670410155L192.5,156.00599670410156Z" fill="url(#master_svg8_7_19613)" fill-opacity="1" style="mix-blend-mode:passthrough"/></g><g><path d="M192.5,238.08299255371094C177.831,239.33099255371093,169.783,242.36099255371093,160.466,249.53499255371094C149.25900000000001,258.1659925537109,146.826,268.4589925537109,132.709,281.36899255371094C128.166,285.52399255371097,122.518,289.04899255371095,117.103,291.9729925537109C101.177,300.5689925537109,84.03620000000001,302.98699255371093,69.1771,302.1949925537109C54.668,301.42099255371096,40.9066,295.0209925537109,27.5,289.4079925537109L27.5,359.99799255371096C27.5,365.51999255371095,31.9772,369.9979925537109,37.5,369.9979925537109L182.5,369.9979925537109C188.023,369.9979925537109,192.5,365.51999255371095,192.5,359.99799255371096L192.5,238.08299255371094Z" fill="url(#master_svg9_7_19607)" fill-opacity="1" style="mix-blend-mode:passthrough"/></g><g><path d="M192.5,238.08299255371094C177.831,239.33099255371093,169.783,242.36099255371093,160.466,249.53499255371094C149.25900000000001,258.1659925537109,146.826,268.4589925537109,132.709,281.36899255371094C128.166,285.52399255371097,122.518,289.04899255371095,117.103,291.9729925537109C101.177,300.5689925537109,84.03620000000001,302.98699255371093,69.1771,302.1949925537109C54.668,301.42099255371096,40.9066,295.0209925537109,27.5,289.4079925537109L27.5,359.99799255371096C27.5,365.51999255371095,31.9772,369.9979925537109,37.5,369.9979925537109L182.5,369.9979925537109C188.023,369.9979925537109,192.5,365.51999255371095,192.5,359.99799255371096L192.5,238.08299255371094Z" fill="url(#master_svga_7_19604)" fill-opacity="1" style="mix-blend-mode:passthrough"/></g></g></g><g><g><path d="M173.2,5C188.3,5,200.5,17.2,200.5,32.3L200.5,349.7C200.5,364.8,188.3,377,173.2,377L46.8,377C31.7,377,19.5,364.8,19.5,349.7L19.5,32.3C19.5,17.2,31.7,5,46.8,5L173.2,5ZM173.2,4L46.8,4C31.2,4,18.5,16.7,18.5,32.3L18.5,349.7C18.5,365.3,31.2,378,46.8,378L173.2,378C188.8,378,201.5,365.3,201.5,349.7L201.5,32.3C201.5,16.7,188.8,4,173.2,4Z" fill="#AF9E94" fill-opacity="1" style="mix-blend-mode:passthrough"/></g><g><path d="M173.2,6C187.7,6,199.5,17.8,199.5,32.3L199.5,349.7C199.5,364.2,187.7,376,173.2,376L46.8,376C32.3,376,20.5,364.2,20.5,349.7L20.5,32.3C20.5,17.8,32.3,6,46.8,6L173.2,6ZM173.2,5L46.8,5C31.7,5,19.5,17.2,19.5,32.3L19.5,349.7C19.5,364.8,31.7,377,46.8,377L173.2,377C188.3,377,200.5,364.8,200.5,349.7L200.5,32.3C200.5,17.2,188.3,5,173.2,5Z" fill="#887161" fill-opacity="1" style="mix-blend-mode:passthrough"/></g><g><path d="M173.2,7C187.2,7,198.5,18.4,198.5,32.3L198.5,349.7C198.5,363.7,187.1,375,173.2,375L46.8,375C32.9,375,21.5,363.6,21.5,349.7L21.5,32.3C21.5,18.4,32.9,7,46.8,7L173.2,7ZM173.2,6L46.8,6C32.3,6,20.5,17.8,20.5,32.3L20.5,349.7C20.5,364.2,32.3,376,46.8,376L173.2,376C187.7,376,199.5,364.2,199.5,349.7L199.5,32.3C199.5,17.8,187.7,6,173.2,6Z" fill="#B19E8F" fill-opacity="1" style="mix-blend-mode:passthrough"/></g></g><g><path d="M173.9,7L46.1,7C32.5,7,21.5,18,21.5,31.6L21.5,350.5C21.5,364,32.5,375,46.1,375L174,375C187.6,375,198.6,364,198.6,350.4L198.6,31.6C198.5,18,187.5,7,173.9,7ZM192.5,349.4C192.5,360.7,183.3,369.9,171.9,369.9L48.1,369.9C36.7,369.9,27.5,360.7,27.5,349.4L27.5,32.6C27.5,21.2,36.7,12,48.1,12L63.5,12L73.8,12L147.2,12L152.1,12L171.9,12C183.3,12,192.5,21.2,192.5,32.5L192.5,349.4Z" fill="#000000" fill-opacity="1" style="mix-blend-mode:passthrough"/></g><g><g><path d="M19,136.6999969482422L19.5,136.6999969482422L19.5,112.69999694824219L19,112.69999694824219C18.2,112.69999694824219,17.5,113.39999394824218,17.5,114.19999694824219L17.5,135.0999969482422C17.5,136.0999969482422,18.2,136.6999969482422,19,136.6999969482422Z" fill="url(#master_svgb_1_0764)" fill-opacity="1" style="mix-blend-mode:passthrough"/></g><g><path d="M19,103.69999694824219L19.5,103.69999694824219L19.5,79.69999694824219L19,79.69999694824219C18.2,79.69999694824219,17.5,80.39999394824218,17.5,81.19999694824219L17.5,102.0999969482422C17.5,103.0999969482422,18.2,103.69999694824219,19,103.69999694824219Z" fill="url(#master_svgc_1_0740)" fill-opacity="1" style="mix-blend-mode:passthrough"/></g><g><path d="M18.7,66.70000076293945L19.5,66.70000076293945L19.5,51.70000076293945L18.7,51.70000076293945C18,51.70000076293945,17.5,52.20000076293945,17.5,52.900000762939456L17.5,65.50000076293945C17.5,66.20000076293945,18,66.70000076293945,18.7,66.70000076293945Z" fill="url(#master_svgd_1_0720)" fill-opacity="1" style="mix-blend-mode:passthrough"/></g><g><path d="M200.5,128.6999969482422L200.5,87.69999694824219C201.60001,87.69999694824219,202.5,88.59999894824219,202.5,89.69999694824219L202.5,126.69999694824219C202.5,127.79999694824218,201.60001,128.6999969482422,200.5,128.6999969482422Z" fill="url(#master_svge_1_0700)" fill-opacity="1" style="mix-blend-mode:passthrough"/></g></g><g><g style="opacity:0.20000000298023224;"><rect x="198.5" y="37.70000076293945" width="3" height="4" rx="0" fill="#000000" fill-opacity="1" style="mix-blend-mode:passthrough"/></g><g style="opacity:0.20000000298023224;"><rect x="160" y="4" width="4" height="3" rx="0" fill="#000000" fill-opacity="1" style="mix-blend-mode:passthrough"/></g><g style="opacity:0.20000000298023224;"><rect x="57.900001525878906" y="375" width="4" height="3" rx="0" fill="#000000" fill-opacity="1" style="mix-blend-mode:passthrough"/></g><g style="opacity:0.20000000298023224;"><rect x="18.5" y="37.70000076293945" width="3" height="4" rx="0" fill="#000000" fill-opacity="1" style="mix-blend-mode:passthrough"/></g><g style="opacity:0.20000000298023224;"><rect x="18.5" y="330.70001220703125" width="3" height="4" rx="0" fill="#000000" fill-opacity="1" style="mix-blend-mode:passthrough"/></g><g style="opacity:0.20000000298023224;"><rect x="198.5" y="330.70001220703125" width="3" height="4" rx="0" fill="#000000" fill-opacity="1" style="mix-blend-mode:passthrough"/></g></g><g><g><path d="M126.8,33.10000171661377L93.2,33.10000171661377C89,33.10000171661377,85.5,29.70000171661377,85.5,25.40000171661377C85.5,21.20000171661377,88.9,17.70000171661377,93.2,17.70000171661377L126.9,17.70000171661377C131.1,17.70000171661377,134.6,21.100001716613768,134.6,25.40000171661377C134.5,29.600001716613768,131.1,33.10000171661377,126.8,33.10000171661377Z" fill="#000000" fill-opacity="1" style="mix-blend-mode:passthrough"/></g><g><g><ellipse cx="126.19999694824219" cy="25.399999618530273" rx="2.5" ry="2.5" fill="url(#master_svgf_1_2230)" fill-opacity="1" style="mix-blend-mode:passthrough"/></g><g><ellipse cx="126.19999694824219" cy="25.399999618530273" rx="1.5" ry="1.5" fill="#070D1D" fill-opacity="1" style="mix-blend-mode:passthrough"/></g><g><g><path d="M125.30000257763672,25.4C125.30000257763672,24.799999,125.40000157763671,24.299999,125.60000657763672,24C125.00000757763672,24.200001,124.70000457763672,24.799999,124.70000457763672,25.4C124.70000457763672,26,125.10000657763672,26.6,125.60000657763672,26.8C125.40000157763671,26.5,125.30000257763672,26,125.30000257763672,25.4Z" fill="#0D569A" fill-opacity="1" style="mix-blend-mode:passthrough"/></g><g><path d="M126.69999694824219,24C126.89999394824218,24.299999,126.99999994824219,24.799999,126.99999994824219,25.4C126.99999994824219,26,126.90000194824219,26.5,126.69999694824219,26.8C127.29999494824219,26.6,127.59999894824219,26,127.59999894824219,25.4C127.59999894824219,24.799999,127.30000294824218,24.200001,126.69999694824219,24Z" fill="#0D569A" fill-opacity="1" style="mix-blend-mode:passthrough"/></g></g></g></g></g></g></svg>