<svg xmlns="http://www.w3.org/2000/svg" xmlns:xlink="http://www.w3.org/1999/xlink" fill="none" version="1.1" width="220" height="382" viewBox="0 0 220 382"><defs><clipPath id="master_svg0_7_07106"><rect x="0" y="0" width="220" height="382" rx="0"/></clipPath><clipPath id="master_svg1_7_07108"><rect x="17.5" y="4" width="185" height="374" rx="0"/></clipPath><linearGradient x1="0.5" y1="0" x2="0.5" y2="0.2241397202014923" id="master_svg2_6_16396"><stop offset="0%" stop-color="#79F9FF" stop-opacity="1"/><stop offset="75.4723608493805%" stop-color="#3158BC" stop-opacity="1"/><stop offset="100%" stop-color="#121B7C" stop-opacity="1"/></linearGradient><mask id="master_svg3_7_16575" style="mask-type:alpha" maskUnits="userSpaceOnUse"><g><rect x="27.5" y="12" width="165" height="358" rx="12" fill="#FFFFFF" fill-opacity="1"/></g></mask><linearGradient x1="0.22305215895175934" y1="0.12277345359325409" x2="0.7757007479667664" y2="0.5641108155250549" id="master_svg4_6_16698"><stop offset="0%" stop-color="#66D8EA" stop-opacity="1"/><stop offset="56.8493127822876%" stop-color="#1A497D" stop-opacity="1"/><stop offset="100%" stop-color="#0F1959" stop-opacity="1"/></linearGradient><linearGradient x1="0.9610220789909363" y1="0.29310351610183716" x2="0.2497437745332718" y2="0.5975305438041687" id="master_svg5_6_15690"><stop offset="0%" stop-color="#7BD0B6" stop-opacity="1"/><stop offset="56.8493127822876%" stop-color="#205E73" stop-opacity="1"/><stop offset="100%" stop-color="#093D6D" stop-opacity="1"/></linearGradient><linearGradient x1="0.9028231501579285" y1="0.21410466730594635" x2="0.10867364704608917" y2="0.7957841157913208" id="master_svg6_6_13502"><stop offset="0%" stop-color="#C1F3BD" stop-opacity="1"/><stop offset="100%" stop-color="#043F77" stop-opacity="1"/></linearGradient><linearGradient x1="0.5" y1="1.0014958381652832" x2="0.5" y2="0.0014916666550561786" id="master_svg7_1_1773"><stop offset="0%" stop-color="#5163A3" stop-opacity="1"/><stop offset="16.428571939468384%" stop-color="#91A4E1" stop-opacity="1"/><stop offset="52.14285850524902%" stop-color="#91A4E1" stop-opacity="1"/><stop offset="82.14285969734192%" stop-color="#91A4E1" stop-opacity="1"/><stop offset="100%" stop-color="#5163A3" stop-opacity="1"/></linearGradient><linearGradient x1="0.5" y1="1.001491665840149" x2="0.5" y2="0.0014916666550561786" id="master_svg8_1_1753"><stop offset="0%" stop-color="#5163A3" stop-opacity="1"/><stop offset="14.599999785423279%" stop-color="#91A4E1" stop-opacity="1"/><stop offset="52.14285850524902%" stop-color="#91A4E1" stop-opacity="1"/><stop offset="85.71428656578064%" stop-color="#91A4E1" stop-opacity="1"/><stop offset="100%" stop-color="#5163A3" stop-opacity="1"/></linearGradient><linearGradient x1="0.5" y1="1.002393364906311" x2="0.5" y2="0.0023933332413434982" id="master_svg9_1_1733"><stop offset="0%" stop-color="#5163A3" stop-opacity="1"/><stop offset="17.142857611179352%" stop-color="#91A4E1" stop-opacity="1"/><stop offset="50%" stop-color="#91A4E1" stop-opacity="1"/><stop offset="82.85714387893677%" stop-color="#91A4E1" stop-opacity="1"/><stop offset="100%" stop-color="#5163A3" stop-opacity="1"/></linearGradient><linearGradient x1="0.5" y1="1.0008732080459595" x2="0.5" y2="0.0008731707348488271" id="master_svga_1_1713"><stop offset="0%" stop-color="#5163A3" stop-opacity="1"/><stop offset="17.85714328289032%" stop-color="#91A4E1" stop-opacity="1"/><stop offset="49.28571283817291%" stop-color="#91A4E1" stop-opacity="1"/><stop offset="84.28571224212646%" stop-color="#91A4E1" stop-opacity="1"/><stop offset="100%" stop-color="#5163A3" stop-opacity="1"/></linearGradient><linearGradient x1="0.49518001079559326" y1="1.0046600103378296" x2="0.49518001079559326" y2="-0.016860000789165497" id="master_svgb_1_2230"><stop offset="0%" stop-color="#1F1F1F" stop-opacity="1"/><stop offset="100%" stop-color="#0F0F0F" stop-opacity="1"/></linearGradient></defs><g clip-path="url(#master_svg0_7_07106)"><rect x="0" y="0" width="220" height="382" rx="0" fill="#FFFFFF" fill-opacity="0"/><g clip-path="url(#master_svg1_7_07108)"><g><g><path d="M177.891,370L42.1089,370C34.00394,370,27.5,363.4,27.5,355.4L27.5,26.7C27.5,18.6,34.00394,12,42.1089,12L177.891,12C185.996,12,192.5,18.6,192.5,26.6L192.5,355.3C192.5,363.4,185.896,370,177.891,370Z" fill="#2E2F3A" fill-opacity="1" style="mix-blend-mode:passthrough"/></g><g><g><rect x="27.5" y="12" width="165" height="358" rx="12" fill="url(#master_svg2_6_16396)" fill-opacity="1"/></g><g mask="url(#master_svg3_7_16575)"><g><path d="M192.5,67.4643228881836Q190.22,65.91992288818359,187.884,64.46142288818359Q185.548,63.00292288818359,183.16,61.632322888183595Q180.771,60.2617228881836,178.333,58.98092288818359Q175.895,57.70012288818359,173.411,56.5108228881836Q170.927,55.3216228881836,168.401,54.225622888183594Q165.875,53.12972288818359,163.309,52.12842288818359Q160.744,51.12719288818359,158.143,50.22207288818359Q155.542,49.316962888183596,152.909,48.5092328881836Q150.276,47.70151288818359,147.615,46.992282888183595Q144.954,46.28306288818359,142.269,45.67332288818359Q139.583,45.06357288818359,136.877,44.55416288818359Q134.171,44.044752888183595,131.447,43.636372888183594Q128.724,43.22799288818359,125.9871,42.921213888183594Q123.2504,42.61443388818359,120.5041,42.4096768881836Q117.7578,42.204920888183594,115.0059,42.102471888183594Q112.2539,42.000022888183594,109.5,42.000022888183594Q106.7838,42.000022888183594,104.0694,42.09969048818359Q101.355,42.19935788818359,98.6461,42.398558888183594Q95.9372,42.597759888183596,93.2374,42.896225888183594Q90.5376,43.194692888183596,87.8506,43.59202288818359Q85.1636,43.989352888183596,82.493,44.485002888183594Q79.8223,44.980662888183595,77.1717,45.57398288818359Q74.52109999999999,46.167292888183596,71.894,46.857472888183594Q69.26689999999999,47.54765288818359,66.6669,48.33376288818359Q64.0669,49.11987288818359,61.4976,50.000852888183594Q58.928200000000004,50.88184288818359,56.3928,51.856512888183595Q53.8575,52.831222888183596,51.359700000000004,53.8982228881836Q48.8618,54.96522288818359,46.4048,56.12322288818359Q43.9477,57.28122288818359,41.5349,58.52862288818359Q39.122,59.775922888183594,36.7565,61.1110228881836Q34.39101,62.44602288818359,32.07611,63.8670228881836Q29.76121,65.2879228881836,27.5,66.7929228881836L27.5,313.2070228881836Q29.76121,314.7120228881836,32.07611,316.1330228881836Q34.39101,317.55402288818357,36.7565,318.8890228881836Q39.122,320.2240228881836,41.5349,321.4710228881836Q43.9477,322.7190228881836,46.4048,323.8770228881836Q48.8618,325.0350228881836,51.359700000000004,326.10202288818357Q53.8575,327.1690228881836,56.3928,328.1440228881836Q58.928200000000004,329.1180228881836,61.4976,329.9990228881836Q64.0669,330.8800228881836,66.6669,331.6660228881836Q69.26689999999999,332.4520228881836,71.894,333.14302288818357Q74.52109999999999,333.8330228881836,77.1717,334.4260228881836Q79.8223,335.0190228881836,82.493,335.5150228881836Q85.1636,336.0110228881836,87.8506,336.4080228881836Q90.5376,336.8050228881836,93.2374,337.1040228881836Q95.9372,337.4020228881836,98.6461,337.6010228881836Q101.355,337.8010228881836,104.0694,337.90002288818357Q106.7838,338.0000228881836,109.5,338.0000228881836Q112.2539,338.0000228881836,115.0059,337.8980228881836Q117.7578,337.7950228881836,120.5041,337.59002288818357Q123.2504,337.3860228881836,125.9871,337.0790228881836Q128.724,336.7720228881836,131.447,336.36402288818357Q134.171,335.9550228881836,136.877,335.4460228881836Q139.583,334.9360228881836,142.269,334.3270228881836Q144.954,333.7170228881836,147.615,333.0080228881836Q150.276,332.2980228881836,152.909,331.4910228881836Q155.542,330.6830228881836,158.143,329.7780228881836Q160.744,328.8730228881836,163.309,327.8720228881836Q165.875,326.8700228881836,168.401,325.7740228881836Q170.927,324.6780228881836,173.411,323.48902288818357Q175.895,322.3000228881836,178.333,321.0190228881836Q180.771,319.7380228881836,183.16,318.3680228881836Q185.548,316.9970228881836,187.884,315.5390228881836Q190.22,314.0800228881836,192.5,312.5360228881836L192.5,67.4643228881836Z" fill-rule="evenodd" fill="url(#master_svg4_6_16698)" fill-opacity="1"/></g><g><path d="M27.499999999999982,275.58500000000004Q28.96352,276.464,30.45591,277.293Q31.94831,278.122,33.46786,278.9Q34.98741,279.678,36.5324,280.405Q38.0774,281.131,39.646,281.804Q41.2147,282.478,42.8052,283.098Q44.395700000000005,283.719,46.006299999999996,284.28499999999997Q47.6168,284.851,49.245599999999996,285.36199999999997Q50.8744,285.874,52.5195,286.33000000000004Q54.164699999999996,286.786,55.8243,287.18600000000004Q57.4839,287.586,59.156,287.93Q60.8282,288.274,62.5111,288.56100000000004Q64.1939,288.848,65.88550000000001,289.078Q67.5771,289.308,69.2755,289.481Q70.9739,289.654,72.6772,289.769Q74.38040000000001,289.885,76.0866,289.942Q77.7928,290,79.5,290Q81.9794,290,84.45580000000001,289.878Q86.9323,289.757,89.3997,289.514Q91.8672,289.27099999999996,94.3198,288.90700000000004Q96.7723,288.543,99.2041,288.05899999999997Q101.6359,287.576,104.041,286.973Q106.4461,286.371,108.8187,285.651Q111.1914,284.93100000000004,113.5259,284.096Q115.8603,283.26099999999997,118.151,282.312Q120.4417,281.363,122.683,280.303Q124.9244,279.243,127.1111,278.074Q129.298,276.905,131.424,275.631Q133.551,274.356,135.613,272.978Q137.674,271.601,139.666,270.124Q141.65699999999998,268.647,143.574,267.074Q145.49,265.501,147.327,263.836Q149.16500000000002,262.171,150.918,260.418Q152.671,258.66499999999996,154.336,256.827Q156.001,254.99,157.574,253.074Q159.147,251.157,160.624,249.166Q162.101,247.174,163.478,245.113Q164.856,243.051,166.131,240.924Q167.405,238.798,168.574,236.611Q169.743,234.424,170.803,232.183Q171.863,229.942,172.812,227.651Q173.761,225.36,174.596,223.026Q175.431,220.691,176.151,218.319Q176.871,215.946,177.473,213.541Q178.076,211.136,178.559,208.704Q179.043,206.272,179.407,203.82Q179.771,201.36700000000002,180.014,198.9Q180.257,196.43200000000002,180.378,193.95600000000002Q180.5,191.47899999999998,180.5,189Q180.5,186.5206,180.378,184.0442Q180.257,181.5677,180.014,179.1003Q179.771,176.6328,179.407,174.1802Q179.043,171.7276,178.559,169.29590000000002Q178.076,166.8641,177.473,164.459Q176.871,162.0539,176.151,159.6812Q175.431,157.3086,174.596,154.97410000000002Q173.761,152.6396,172.812,150.349Q171.863,148.0583,170.803,145.8169Q169.743,143.5756,168.574,141.3889Q167.405,139.2023,166.131,137.0756Q164.856,134.949,163.478,132.8874Q162.101,130.82580000000002,160.624,128.83440000000002Q159.147,126.8429,157.574,124.9263Q156.001,123.00970000000001,154.336,121.1725Q152.671,119.33539999999999,150.918,117.5822Q149.16500000000002,115.82900000000001,147.327,114.1639Q145.49,112.49889999999999,143.574,110.9259Q141.65699999999998,109.35300000000001,139.666,107.876Q137.674,106.3991,135.613,105.0216Q133.551,103.6441,131.424,102.3694Q129.298,101.0947,127.1111,99.926Q124.9244,98.7572,122.683,97.69708Q120.4417,96.637,118.151,95.68817Q115.8603,94.73934,113.5259,93.90405Q111.1914,93.06876,108.8187,92.34903Q106.4461,91.62929,104.041,91.02683999999999Q101.6359,90.4244,99.2041,89.94069Q96.7723,89.45698,94.3198,89.09317Q91.8672,88.729367,89.3997,88.486343Q86.9323,88.243318,84.45580000000001,88.121659Q81.9794,88,79.5,88Q77.7928,88,76.0866,88.0576951Q74.38040000000001,88.11539,72.6772,88.230714Q70.9739,88.346039,69.2755,88.51886Q67.5771,88.691682,65.88550000000001,88.921803Q64.1939,89.15193,62.5111,89.43908Q60.8282,89.72624,59.156,90.07011Q57.4839,90.41398,55.8243,90.81416Q54.164699999999996,91.21433999999999,52.5195,91.67039Q50.8744,92.12643,49.245599999999996,92.63781Q47.6168,93.14919,46.006299999999996,93.71533Q44.395700000000005,94.28146,42.8052,94.9017Q41.2147,95.52194,39.646,96.19558Q38.0774,96.86922,36.5324,97.59549Q34.98741,98.3218,33.46786,99.0998Q31.94831,99.8779,30.45591,100.7069Q28.96352,101.5358,27.499999999999993,102.4148L27.5,275.58500000000004L27.499999999999982,275.58500000000004Z" fill-rule="evenodd" fill="url(#master_svg5_6_15690)" fill-opacity="1"/></g><g><ellipse cx="110.5" cy="189" rx="55" ry="55" fill="url(#master_svg6_6_13502)" fill-opacity="1"/></g></g></g></g><g><g><path d="M173.2,5C188.3,5,200.5,17.2,200.5,32.3L200.5,349.7C200.5,364.8,188.3,377,173.2,377L46.8,377C31.7,377,19.5,364.8,19.5,349.7L19.5,32.3C19.5,17.2,31.7,5,46.8,5L173.2,5ZM173.2,4L46.8,4C31.2,4,18.5,16.7,18.5,32.3L18.5,349.7C18.5,365.3,31.2,378,46.8,378L173.2,378C188.8,378,201.5,365.3,201.5,349.7L201.5,32.3C201.5,16.7,188.8,4,173.2,4Z" fill="#5163A3" fill-opacity="1" style="mix-blend-mode:passthrough"/></g><g><path d="M173.2,6C187.7,6,199.5,17.8,199.5,32.3L199.5,349.7C199.5,364.2,187.7,376,173.2,376L46.8,376C32.3,376,20.5,364.2,20.5,349.7L20.5,32.3C20.5,17.8,32.3,6,46.8,6L173.2,6ZM173.2,5L46.8,5C31.7,5,19.5,17.2,19.5,32.3L19.5,349.7C19.5,364.8,31.7,377,46.8,377L173.2,377C188.3,377,200.5,364.8,200.5,349.7L200.5,32.3C200.5,17.2,188.3,5,173.2,5Z" fill="#6D81C0" fill-opacity="1" style="mix-blend-mode:passthrough"/></g><g><path d="M173.2,7C187.2,7,198.5,18.4,198.5,32.3L198.5,349.7C198.5,363.7,187.1,375,173.2,375L46.8,375C32.9,375,21.5,363.6,21.5,349.7L21.5,32.3C21.5,18.4,32.9,7,46.8,7L173.2,7ZM173.2,6L46.8,6C32.3,6,20.5,17.8,20.5,32.3L20.5,349.7C20.5,364.2,32.3,376,46.8,376L173.2,376C187.7,376,199.5,364.2,199.5,349.7L199.5,32.3C199.5,17.8,187.7,6,173.2,6Z" fill="#6F7DA4" fill-opacity="1" style="mix-blend-mode:passthrough"/></g></g><g><path d="M173.9,7L46.1,7C32.5,7,21.5,18,21.5,31.6L21.5,350.5C21.5,364,32.5,375,46.1,375L174,375C187.6,375,198.6,364,198.6,350.4L198.6,31.6C198.5,18,187.5,7,173.9,7ZM192.5,349.4C192.5,360.7,183.3,369.9,171.9,369.9L48.1,369.9C36.7,369.9,27.5,360.7,27.5,349.4L27.5,32.6C27.5,21.2,36.7,12,48.1,12L63.5,12L73.8,12L147.2,12L152.1,12L171.9,12C183.3,12,192.5,21.2,192.5,32.5L192.5,349.4Z" fill="#000000" fill-opacity="1" style="mix-blend-mode:passthrough"/></g><g><g><path d="M19,136.6999969482422L19.5,136.6999969482422L19.5,112.69999694824219L19,112.69999694824219C18.2,112.69999694824219,17.5,113.39999394824218,17.5,114.19999694824219L17.5,135.0999969482422C17.5,136.0999969482422,18.2,136.6999969482422,19,136.6999969482422Z" fill="url(#master_svg7_1_1773)" fill-opacity="1" style="mix-blend-mode:passthrough"/></g><g><path d="M19,103.69999694824219L19.5,103.69999694824219L19.5,79.69999694824219L19,79.69999694824219C18.2,79.69999694824219,17.5,80.39999394824218,17.5,81.19999694824219L17.5,102.0999969482422C17.5,103.0999969482422,18.2,103.69999694824219,19,103.69999694824219Z" fill="url(#master_svg8_1_1753)" fill-opacity="1" style="mix-blend-mode:passthrough"/></g><g><path d="M18.7,66.70000076293945L19.5,66.70000076293945L19.5,51.70000076293945L18.7,51.70000076293945C18,51.70000076293945,17.5,52.20000076293945,17.5,52.900000762939456L17.5,65.50000076293945C17.5,66.20000076293945,18,66.70000076293945,18.7,66.70000076293945Z" fill="url(#master_svg9_1_1733)" fill-opacity="1" style="mix-blend-mode:passthrough"/></g><g><path d="M200.5,128.6999969482422L200.5,87.69999694824219C201.60001,87.69999694824219,202.5,88.59999894824219,202.5,89.69999694824219L202.5,126.69999694824219C202.5,127.79999694824218,201.60001,128.6999969482422,200.5,128.6999969482422Z" fill="url(#master_svga_1_1713)" fill-opacity="1" style="mix-blend-mode:passthrough"/></g></g><g><g style="opacity:0.20000000298023224;"><rect x="198.5" y="37.70000076293945" width="3" height="4" rx="0" fill="#000000" fill-opacity="1" style="mix-blend-mode:passthrough"/></g><g style="opacity:0.20000000298023224;"><rect x="160" y="4" width="4" height="3" rx="0" fill="#000000" fill-opacity="1" style="mix-blend-mode:passthrough"/></g><g style="opacity:0.20000000298023224;"><rect x="57.900001525878906" y="375" width="4" height="3" rx="0" fill="#000000" fill-opacity="1" style="mix-blend-mode:passthrough"/></g><g style="opacity:0.20000000298023224;"><rect x="18.5" y="37.70000076293945" width="3" height="4" rx="0" fill="#000000" fill-opacity="1" style="mix-blend-mode:passthrough"/></g><g style="opacity:0.20000000298023224;"><rect x="18.5" y="330.70001220703125" width="3" height="4" rx="0" fill="#000000" fill-opacity="1" style="mix-blend-mode:passthrough"/></g><g style="opacity:0.20000000298023224;"><rect x="198.5" y="330.70001220703125" width="3" height="4" rx="0" fill="#000000" fill-opacity="1" style="mix-blend-mode:passthrough"/></g></g><g><g><path d="M126.8,33.10000171661377L93.2,33.10000171661377C89,33.10000171661377,85.5,29.70000171661377,85.5,25.40000171661377C85.5,21.20000171661377,88.9,17.70000171661377,93.2,17.70000171661377L126.9,17.70000171661377C131.1,17.70000171661377,134.6,21.100001716613768,134.6,25.40000171661377C134.5,29.600001716613768,131.1,33.10000171661377,126.8,33.10000171661377Z" fill="#000000" fill-opacity="1" style="mix-blend-mode:passthrough"/></g><g><g><ellipse cx="126.19999694824219" cy="25.399999618530273" rx="2.5" ry="2.5" fill="url(#master_svgb_1_2230)" fill-opacity="1" style="mix-blend-mode:passthrough"/></g><g><ellipse cx="126.19999694824219" cy="25.399999618530273" rx="1.5" ry="1.5" fill="#070D1D" fill-opacity="1" style="mix-blend-mode:passthrough"/></g><g><g><path d="M125.30000257763672,25.4C125.30000257763672,24.799999,125.40000157763671,24.299999,125.60000657763672,24C125.00000757763672,24.200001,124.70000457763672,24.799999,124.70000457763672,25.4C124.70000457763672,26,125.10000657763672,26.6,125.60000657763672,26.8C125.40000157763671,26.5,125.30000257763672,26,125.30000257763672,25.4Z" fill="#0D569A" fill-opacity="1" style="mix-blend-mode:passthrough"/></g><g><path d="M126.69999694824219,24C126.89999394824218,24.299999,126.99999994824219,24.799999,126.99999994824219,25.4C126.99999994824219,26,126.90000194824219,26.5,126.69999694824219,26.8C127.29999494824219,26.6,127.59999894824219,26,127.59999894824219,25.4C127.59999894824219,24.799999,127.30000294824218,24.200001,126.69999694824219,24Z" fill="#0D569A" fill-opacity="1" style="mix-blend-mode:passthrough"/></g></g></g></g></g></g></svg>