<svg xmlns="http://www.w3.org/2000/svg" xmlns:xlink="http://www.w3.org/1999/xlink" fill="none" version="1.1" width="220" height="382" viewBox="0 0 220 382"><defs><clipPath id="master_svg0_53_69293"><rect x="0" y="0" width="220" height="382" rx="0"/></clipPath><clipPath id="master_svg1_53_69495"><rect x="0" y="0" width="220" height="382" rx="0"/></clipPath><linearGradient x1="0.5" y1="0" x2="0.5" y2="1" id="master_svg2_53_65009"><stop offset="0%" stop-color="#CFE4E9" stop-opacity="1"/><stop offset="100%" stop-color="#EAE9EF" stop-opacity="1"/></linearGradient><linearGradient x1="1" y1="0.23770467936992645" x2="0.6497330343051507" y2="1.2294696972841386" id="master_svg3_53_67743"><stop offset="0%" stop-color="#D6CEE5" stop-opacity="1"/><stop offset="100%" stop-color="#666ED3" stop-opacity="1"/></linearGradient><linearGradient x1="1" y1="0.11170429736375809" x2="-0.16458997914487825" y2="0.4811027443316508" id="master_svg4_53_67805"><stop offset="0%" stop-color="#9D9BE7" stop-opacity="1"/><stop offset="100%" stop-color="#283382" stop-opacity="1"/></linearGradient><linearGradient x1="0.45117783546447754" y1="0.2270856648683548" x2="0.3105976110472359" y2="0.8711346855394513" id="master_svg5_53_68089"><stop offset="0%" stop-color="#A99EE4" stop-opacity="1"/><stop offset="100%" stop-color="#FFFFFF" stop-opacity="1"/></linearGradient><linearGradient x1="1" y1="0.06924013793468475" x2="0.674192789345644" y2="1.1951012211192755" id="master_svg6_53_67719"><stop offset="44.59604024887085%" stop-color="#D0CAE4" stop-opacity="1"/><stop offset="100%" stop-color="#7874CB" stop-opacity="1"/></linearGradient><linearGradient x1="1" y1="0" x2="0.12075087661512407" y2="1.0967998847283762" id="master_svg7_53_67727"><stop offset="0%" stop-color="#A5A2D7" stop-opacity="1"/><stop offset="100%" stop-color="#7975CC" stop-opacity="1"/></linearGradient><linearGradient x1="1" y1="0" x2="-0.1911614937914193" y2="0.6493177467684731" id="master_svg8_53_67735"><stop offset="13.767962157726288%" stop-color="#7073C4" stop-opacity="1"/><stop offset="99.99997615814209%" stop-color="#1E2470" stop-opacity="1"/></linearGradient><linearGradient x1="1" y1="0.23770467936992645" x2="0.6497330343051507" y2="1.2294696972841386" id="master_svg9_53_67743"><stop offset="0%" stop-color="#D6CEE5" stop-opacity="1"/><stop offset="100%" stop-color="#666ED3" stop-opacity="1"/></linearGradient><linearGradient x1="1" y1="0.11170429736375809" x2="-0.16458997914487825" y2="0.4811027443316508" id="master_svga_53_67805"><stop offset="0%" stop-color="#9D9BE7" stop-opacity="1"/><stop offset="100%" stop-color="#283382" stop-opacity="1"/></linearGradient><linearGradient x1="0.45117783546447754" y1="0.2270856648683548" x2="0.3105976110472359" y2="0.8711346855394513" id="master_svgb_53_68089"><stop offset="0%" stop-color="#A99EE4" stop-opacity="1"/><stop offset="100%" stop-color="#FFFFFF" stop-opacity="1"/></linearGradient><linearGradient x1="1" y1="0.06924013793468475" x2="0.674192789345644" y2="1.1951012211192755" id="master_svgc_53_67719"><stop offset="44.59604024887085%" stop-color="#D0CAE4" stop-opacity="1"/><stop offset="100%" stop-color="#7874CB" stop-opacity="1"/></linearGradient><linearGradient x1="1" y1="0" x2="0.12075087661512407" y2="1.0967998847283762" id="master_svgd_53_67727"><stop offset="0%" stop-color="#A5A2D7" stop-opacity="1"/><stop offset="100%" stop-color="#7975CC" stop-opacity="1"/></linearGradient><linearGradient x1="1" y1="0" x2="-0.1911614937914193" y2="0.6493177467684731" id="master_svge_53_67735"><stop offset="13.767962157726288%" stop-color="#7073C4" stop-opacity="1"/><stop offset="99.99997615814209%" stop-color="#1E2470" stop-opacity="1"/></linearGradient><linearGradient x1="0.5" y1="1" x2="0.5" y2="0" id="master_svgf_53_67671"><stop offset="0%" stop-color="#FFFFFF" stop-opacity="0"/><stop offset="13.93861323595047%" stop-color="#FFFFFF" stop-opacity="0.7300000190734863"/><stop offset="45.283243060112%" stop-color="#FFFFFF" stop-opacity="1"/><stop offset="64.94658589363098%" stop-color="#D9C4E5" stop-opacity="1"/><stop offset="77.79598236083984%" stop-color="#FFFFFF" stop-opacity="0"/></linearGradient><linearGradient x1="0.5" y1="0" x2="0.45589452330233127" y2="1.0197186212501008" id="master_svgg_53_67687"><stop offset="49.669477343559265%" stop-color="#CEC8EA" stop-opacity="1"/><stop offset="100%" stop-color="#7074DF" stop-opacity="1"/></linearGradient><linearGradient x1="1" y1="0" x2="0.8378076718466648" y2="1.121197212519129" id="master_svgh_53_67695"><stop offset="0%" stop-color="#C5B5E6" stop-opacity="1"/><stop offset="100%" stop-color="#7B5EDE" stop-opacity="1"/></linearGradient><linearGradient x1="1" y1="0" x2="0.6185083321143302" y2="1.1971052827367468" id="master_svgi_53_67703"><stop offset="0%" stop-color="#877BD1" stop-opacity="1"/><stop offset="100%" stop-color="#412D9C" stop-opacity="1"/></linearGradient><linearGradient x1="1" y1="0" x2="0.14479952726410053" y2="1.111418534367575" id="master_svgj_53_67711"><stop offset="0%" stop-color="#3F3E9A" stop-opacity="1"/><stop offset="100%" stop-color="#130E36" stop-opacity="1"/></linearGradient><linearGradient x1="0.5" y1="0" x2="0.45589452330233127" y2="1.0197186212501008" id="master_svgk_53_67687"><stop offset="49.669477343559265%" stop-color="#CEC8EA" stop-opacity="1"/><stop offset="100%" stop-color="#7074DF" stop-opacity="1"/></linearGradient><linearGradient x1="1" y1="0" x2="0.8378076718466648" y2="1.121197212519129" id="master_svgl_53_67695"><stop offset="0%" stop-color="#C5B5E6" stop-opacity="1"/><stop offset="100%" stop-color="#7B5EDE" stop-opacity="1"/></linearGradient><linearGradient x1="1" y1="0" x2="0.6185083321143302" y2="1.1971052827367468" id="master_svgm_53_67703"><stop offset="0%" stop-color="#877BD1" stop-opacity="1"/><stop offset="100%" stop-color="#412D9C" stop-opacity="1"/></linearGradient><linearGradient x1="1" y1="0" x2="0.14479952726410053" y2="1.111418534367575" id="master_svgn_53_67711"><stop offset="0%" stop-color="#3F3E9A" stop-opacity="1"/><stop offset="100%" stop-color="#130E36" stop-opacity="1"/></linearGradient><linearGradient x1="1" y1="0.23770467936992645" x2="0.6497330343051507" y2="1.2294696972841386" id="master_svgo_53_68165"><stop offset="0%" stop-color="#DFCADB" stop-opacity="1"/><stop offset="100%" stop-color="#8372D2" stop-opacity="1"/></linearGradient><linearGradient x1="1" y1="0.11170429736375809" x2="-0.16458997914487825" y2="0.4811027443316508" id="master_svgp_53_68157"><stop offset="0%" stop-color="#AEA1CB" stop-opacity="1"/><stop offset="100%" stop-color="#283382" stop-opacity="1"/></linearGradient><linearGradient x1="0.45117783546447754" y1="0.2270856648683548" x2="0.3105976110472359" y2="0.8711346855394513" id="master_svgq_53_68089"><stop offset="0%" stop-color="#A99EE4" stop-opacity="1"/><stop offset="100%" stop-color="#FFFFFF" stop-opacity="1"/></linearGradient><linearGradient x1="1" y1="0.06924013793468475" x2="0.674192789345644" y2="1.1951012211192755" id="master_svgr_53_68153"><stop offset="44.59604024887085%" stop-color="#D7C0DB" stop-opacity="1"/><stop offset="100%" stop-color="#7874CB" stop-opacity="1"/></linearGradient><linearGradient x1="1" y1="0" x2="0.12075087661512407" y2="1.0967998847283762" id="master_svgs_53_68149"><stop offset="0%" stop-color="#AF95C5" stop-opacity="1"/><stop offset="100%" stop-color="#7975CC" stop-opacity="1"/></linearGradient><linearGradient x1="1" y1="0" x2="-0.1911614937914193" y2="0.6493177467684731" id="master_svgt_53_67735"><stop offset="13.767962157726288%" stop-color="#7073C4" stop-opacity="1"/><stop offset="99.99997615814209%" stop-color="#1E2470" stop-opacity="1"/></linearGradient><linearGradient x1="1" y1="0.23770467936992645" x2="0.6497330343051507" y2="1.2294696972841386" id="master_svgu_53_68165"><stop offset="0%" stop-color="#DFCADB" stop-opacity="1"/><stop offset="100%" stop-color="#8372D2" stop-opacity="1"/></linearGradient><linearGradient x1="1" y1="0.11170429736375809" x2="-0.16458997914487825" y2="0.4811027443316508" id="master_svgv_53_68157"><stop offset="0%" stop-color="#AEA1CB" stop-opacity="1"/><stop offset="100%" stop-color="#283382" stop-opacity="1"/></linearGradient><linearGradient x1="0.45117783546447754" y1="0.2270856648683548" x2="0.3105976110472359" y2="0.8711346855394513" id="master_svgw_53_68089"><stop offset="0%" stop-color="#A99EE4" stop-opacity="1"/><stop offset="100%" stop-color="#FFFFFF" stop-opacity="1"/></linearGradient><linearGradient x1="1" y1="0.06924013793468475" x2="0.674192789345644" y2="1.1951012211192755" id="master_svgx_53_68153"><stop offset="44.59604024887085%" stop-color="#D7C0DB" stop-opacity="1"/><stop offset="100%" stop-color="#7874CB" stop-opacity="1"/></linearGradient><linearGradient x1="1" y1="0" x2="0.12075087661512407" y2="1.0967998847283762" id="master_svgy_53_68149"><stop offset="0%" stop-color="#AF95C5" stop-opacity="1"/><stop offset="100%" stop-color="#7975CC" stop-opacity="1"/></linearGradient><linearGradient x1="1" y1="0" x2="-0.1911614937914193" y2="0.6493177467684731" id="master_svgz_53_67735"><stop offset="13.767962157726288%" stop-color="#7073C4" stop-opacity="1"/><stop offset="99.99997615814209%" stop-color="#1E2470" stop-opacity="1"/></linearGradient><linearGradient x1="0.5" y1="1" x2="0.5" y2="0" id="master_svg10_53_67671"><stop offset="0%" stop-color="#FFFFFF" stop-opacity="0"/><stop offset="13.93861323595047%" stop-color="#FFFFFF" stop-opacity="0.7300000190734863"/><stop offset="45.283243060112%" stop-color="#FFFFFF" stop-opacity="1"/><stop offset="64.94658589363098%" stop-color="#D9C4E5" stop-opacity="1"/><stop offset="77.79598236083984%" stop-color="#FFFFFF" stop-opacity="0"/></linearGradient><linearGradient x1="0.5" y1="0" x2="0.45589452330233127" y2="1.0197186212501008" id="master_svg11_53_68137"><stop offset="49.669477343559265%" stop-color="#D9BDD6" stop-opacity="1"/><stop offset="100%" stop-color="#7074DF" stop-opacity="1"/></linearGradient><linearGradient x1="1" y1="0" x2="0.8378076718466648" y2="1.121197212519129" id="master_svg12_53_68141"><stop offset="0%" stop-color="#CCACD3" stop-opacity="1"/><stop offset="100%" stop-color="#7B5EDE" stop-opacity="1"/></linearGradient><linearGradient x1="1" y1="0" x2="0.6185083321143302" y2="1.1971052827367468" id="master_svg13_53_68145"><stop offset="0%" stop-color="#8667AD" stop-opacity="1"/><stop offset="100%" stop-color="#412D9C" stop-opacity="1"/></linearGradient><linearGradient x1="1" y1="0" x2="0.14479952726410053" y2="1.111418534367575" id="master_svg14_53_67711"><stop offset="0%" stop-color="#3F3E9A" stop-opacity="1"/><stop offset="100%" stop-color="#130E36" stop-opacity="1"/></linearGradient><linearGradient x1="0.5" y1="0" x2="0.45589452330233127" y2="1.0197186212501008" id="master_svg15_53_68137"><stop offset="49.669477343559265%" stop-color="#D9BDD6" stop-opacity="1"/><stop offset="100%" stop-color="#7074DF" stop-opacity="1"/></linearGradient><linearGradient x1="1" y1="0" x2="0.8378076718466648" y2="1.121197212519129" id="master_svg16_53_68141"><stop offset="0%" stop-color="#CCACD3" stop-opacity="1"/><stop offset="100%" stop-color="#7B5EDE" stop-opacity="1"/></linearGradient><linearGradient x1="1" y1="0" x2="0.6185083321143302" y2="1.1971052827367468" id="master_svg17_53_68145"><stop offset="0%" stop-color="#8667AD" stop-opacity="1"/><stop offset="100%" stop-color="#412D9C" stop-opacity="1"/></linearGradient><linearGradient x1="1" y1="0" x2="0.14479952726410053" y2="1.111418534367575" id="master_svg18_53_67711"><stop offset="0%" stop-color="#3F3E9A" stop-opacity="1"/><stop offset="100%" stop-color="#130E36" stop-opacity="1"/></linearGradient><clipPath id="master_svg19_53_69295"><rect x="17.5" y="4" width="185" height="374" rx="0"/></clipPath><linearGradient x1="0.5" y1="1.0008732080459595" x2="0.5" y2="0.0008731707348488271" id="master_svg1a_53_51332"><stop offset="0%" stop-color="#898198" stop-opacity="1"/><stop offset="17.85714328289032%" stop-color="#CDC6D9" stop-opacity="1"/><stop offset="49.28571283817291%" stop-color="#E8E3F0" stop-opacity="1"/><stop offset="84.28571224212646%" stop-color="#CDC6D9" stop-opacity="1"/><stop offset="100%" stop-color="#898198" stop-opacity="1"/></linearGradient><linearGradient x1="0.5" y1="1.0008732080459595" x2="0.5" y2="0.0008731707348488271" id="master_svg1b_53_51332"><stop offset="0%" stop-color="#898198" stop-opacity="1"/><stop offset="17.85714328289032%" stop-color="#CDC6D9" stop-opacity="1"/><stop offset="49.28571283817291%" stop-color="#E8E3F0" stop-opacity="1"/><stop offset="84.28571224212646%" stop-color="#CDC6D9" stop-opacity="1"/><stop offset="100%" stop-color="#898198" stop-opacity="1"/></linearGradient><linearGradient x1="0.5" y1="1.0008732080459595" x2="0.5" y2="0.0008731707348488271" id="master_svg1c_53_51332"><stop offset="0%" stop-color="#898198" stop-opacity="1"/><stop offset="17.85714328289032%" stop-color="#CDC6D9" stop-opacity="1"/><stop offset="49.28571283817291%" stop-color="#E8E3F0" stop-opacity="1"/><stop offset="84.28571224212646%" stop-color="#CDC6D9" stop-opacity="1"/><stop offset="100%" stop-color="#898198" stop-opacity="1"/></linearGradient><linearGradient x1="0.5" y1="1.0008732080459595" x2="0.5" y2="0.0008731707348488271" id="master_svg1d_53_51332"><stop offset="0%" stop-color="#898198" stop-opacity="1"/><stop offset="17.85714328289032%" stop-color="#CDC6D9" stop-opacity="1"/><stop offset="49.28571283817291%" stop-color="#E8E3F0" stop-opacity="1"/><stop offset="84.28571224212646%" stop-color="#CDC6D9" stop-opacity="1"/><stop offset="100%" stop-color="#898198" stop-opacity="1"/></linearGradient><linearGradient x1="0.49518001079559326" y1="1.0046600103378296" x2="0.49518001079559326" y2="-0.016860000789165497" id="master_svg1e_1_2230"><stop offset="0%" stop-color="#1F1F1F" stop-opacity="1"/><stop offset="100%" stop-color="#0F0F0F" stop-opacity="1"/></linearGradient></defs><g clip-path="url(#master_svg0_53_69293)"><rect x="0" y="0" width="220" height="382" rx="0" fill="#FFFFFF" fill-opacity="0"/><g clip-path="url(#master_svg1_53_69495)"><rect x="0" y="0" width="220" height="382" rx="0" fill="#FFFFFF" fill-opacity="0"/><g><g><rect x="27.5" y="12" width="165" height="358" rx="12" fill="url(#master_svg2_53_65009)" fill-opacity="1"/></g><g><g><g><path d="M110,191Q161.5,189.5,192.5,173L192.5,32Q110,92,110,191Z" fill="url(#master_svg3_53_67743)" fill-opacity="1"/></g><g><path d="M110,190Q165.5,183.5,192,154L192,141Q127,155,110,190Z" fill="url(#master_svg4_53_67805)" fill-opacity="1"/><path d="M192.100006,140.87616831L191.978951,140.902241811Q126.931332,154.912498,109.910049178,189.956314L109.83026953,190.120564L110.011632208,190.099323Q165.549152,183.594929,192.07439399999998,154.066827L192.100006,154.038321L192.100006,140.87616831ZM191.900002,141.1238589Q127.205553,155.087129,110.17010725,189.879326Q165.467449,183.359928,191.900002,153.961673L191.900002,141.1238589Z" fill-rule="evenodd" fill="url(#master_svg5_53_68089)" fill-opacity="1"/></g><g><path d="M110,190Q159,187,192,91L192,32Q110,90,110,190Z" fill="url(#master_svg6_53_67719)" fill-opacity="1"/><path d="M192.200005,31.61356333L191.884506,31.83671686Q109.79999998,89.8965,109.79999998,190.00002L109.79999997,190.21262L110.012222013,190.19963Q159.145676,187.19147,192.18914,91.06501800000001L192.200005,91.033417L192.200005,31.61356333ZM191.800003,32.3868117Q110.28721166,90.234184,110.20009322,189.78694Q158.917904,186.60072,191.800003,90.966591L191.800003,32.3868117Z" fill-rule="evenodd" fill="#FFFFFF" fill-opacity="0.4000000059604645"/></g><g><path d="M110,190Q156.5,184,187,104C171,107,110,135,110,190Z" fill="url(#master_svg7_53_67727)" fill-opacity="1"/></g><g><path d="M110,190.5Q139.5,188,163.5,151C140,155.5,110,170.5,110,190.5Z" fill="url(#master_svg8_53_67735)" fill-opacity="1"/></g></g><g transform="matrix(-1,0,0,1,219,0)"><g><path d="M109.5,191Q161,189.5,192,173L192,32Q109.5,92,109.5,191Z" fill="url(#master_svg9_53_67743)" fill-opacity="1"/></g><g><path d="M109.5,190Q165,183.5,191.5,154L191.5,141Q126.5,155,109.5,190Z" fill="url(#master_svga_53_67805)" fill-opacity="1"/><path d="M191.600006,140.87616831L191.478951,140.902241811Q126.431332,154.912498,109.410049178,189.956314L109.33026953,190.120564L109.511632208,190.099323Q165.049152,183.594929,191.57439399999998,154.066827L191.600006,154.038321L191.600006,140.87616831ZM191.400002,141.1238589Q126.705553,155.087129,109.67010725,189.879326Q164.967449,183.359928,191.400002,153.961673L191.400002,141.1238589Z" fill-rule="evenodd" fill="url(#master_svgb_53_68089)" fill-opacity="1"/></g><g><path d="M109.5,190Q158.5,187,191.5,91L191.5,32Q109.5,90,109.5,190Z" fill="url(#master_svgc_53_67719)" fill-opacity="1"/><path d="M191.700005,31.61356333L191.384506,31.83671686Q109.29999998,89.8965,109.29999998,190.00002L109.29999997,190.21262L109.512222013,190.19963Q158.645676,187.19147,191.68914,91.06501800000001L191.700005,91.033417L191.700005,31.61356333ZM191.300003,32.3868117Q109.78721166,90.234184,109.70009322,189.78694Q158.417904,186.60072,191.300003,90.966591L191.300003,32.3868117Z" fill-rule="evenodd" fill="#FFFFFF" fill-opacity="0.4000000059604645"/></g><g><path d="M109.5,190Q156,184,186.5,104C170.5,107,109.5,135,109.5,190Z" fill="url(#master_svgd_53_67727)" fill-opacity="1"/></g><g><path d="M109.5,190.5Q139,188,163,151C139.5,155.5,109.5,170.5,109.5,190.5Z" fill="url(#master_svge_53_67735)" fill-opacity="1"/></g></g><g><g><path d="M57.00439453125,12Q68.50439453125,190.5,110.50458953124999,190.5Q153.00420353125,185,163.00439453125,12L57.00439453125,12Z" fill="#D3CCEB" fill-opacity="1"/><path d="M56.68444484125,11.69999999L56.70501518125,12.019287745Q68.22310153125,190.8,110.50458953124999,190.8L110.52392153125,190.8L110.54309053125,190.79753Q153.28936053125,185.26561,163.30389453125,12.017312469L163.32224453125002,11.69999999L56.68444484125,11.69999999ZM57.32437774125,12.30000001Q68.82041653125,190.15884,110.48530953125001,190.19998Q152.68251753125,184.70015,162.68651453125,12.30000001L57.32437774125,12.30000001Z" fill-rule="evenodd" fill="url(#master_svgf_53_67671)" fill-opacity="1"/></g><g><g><path d="M110,190.5Q155,175.5,162.5,12L141,12Q110,114.5,110,190.5Z" fill="url(#master_svgg_53_67687)" fill-opacity="1"/></g><g><path d="M110,191Q148.5,175.5,154.5,74C144.5,78,110,116,110,191Z" fill="url(#master_svgh_53_67695)" fill-opacity="1"/></g><g><path d="M111,190Q134,183,146,128C136.5,133,111,149,111,190Z" fill="url(#master_svgi_53_67703)" fill-opacity="1"/></g><g><path d="M111,190.5Q127.5,187,136,162C122.5,166.5,111,175.5,111,190.5Z" fill="url(#master_svgj_53_67711)" fill-opacity="1"/></g></g><g transform="matrix(-1,0,0,1,219,0)"><g><path d="M109.5,190.5Q154.5,175.5,162,12L140.5,12Q109.5,114.5,109.5,190.5Z" fill="url(#master_svgk_53_67687)" fill-opacity="1"/></g><g><path d="M109.5,191Q148,175.5,154,74C144,78,109.5,116,109.5,191Z" fill="url(#master_svgl_53_67695)" fill-opacity="1"/></g><g><path d="M110.5,190Q133.5,183,145.5,128C136,133,110.5,149,110.5,190Z" fill="url(#master_svgm_53_67703)" fill-opacity="1"/></g><g><path d="M110.5,190.5Q127,187,135.5,162C122,166.5,110.5,175.5,110.5,190.5Z" fill="url(#master_svgn_53_67711)" fill-opacity="1"/></g></g></g></g><g transform="matrix(1,0,0,-1,0,740)"><g><g><path d="M110,549Q161.5,547.5,192.5,531L192.5,390Q110,450,110,549Z" fill="url(#master_svgo_53_68165)" fill-opacity="1"/></g><g><path d="M110,548Q165.5,541.5,192,512L192,499Q127,513,110,548Z" fill="url(#master_svgp_53_68157)" fill-opacity="1"/><path d="M192.100006,498.87616831L191.978951,498.902241811Q126.931332,512.912498,109.910049178,547.956314L109.83026953,548.1205640000001L110.011632208,548.099323Q165.549152,541.594929,192.07439399999998,512.066827L192.100006,512.038321L192.100006,498.87616831ZM191.900002,499.1238589Q127.205553,513.087129,110.17010725,547.879326Q165.467449,541.359928,191.900002,511.961673L191.900002,499.1238589Z" fill-rule="evenodd" fill="url(#master_svgq_53_68089)" fill-opacity="1"/></g><g><path d="M110,548Q159,545,192,449L192,390Q110,448,110,548Z" fill="url(#master_svgr_53_68153)" fill-opacity="1"/><path d="M192.200005,389.61356333L191.884506,389.83671686Q109.79999998,447.8965,109.79999998,548.00002L109.79999997,548.21262L110.012222013,548.1996300000001Q159.145676,545.19147,192.18914,449.065018L192.200005,449.033417L192.200005,389.61356333ZM191.800003,390.3868117Q110.28721166,448.234184,110.20009322,547.78694Q158.917904,544.60072,191.800003,448.966591L191.800003,390.3868117Z" fill-rule="evenodd" fill="#FFFFFF" fill-opacity="0.4000000059604645"/></g><g><path d="M110,548Q156.5,542,187,462C171,465,110,493,110,548Z" fill="url(#master_svgs_53_68149)" fill-opacity="1"/></g><g><path d="M110,548.5Q139.5,546,163.5,509C140,513.5,110,528.5,110,548.5Z" fill="url(#master_svgt_53_67735)" fill-opacity="1"/></g></g><g transform="matrix(-1,0,0,1,219,0)"><g><path d="M109.5,549Q161,547.5,192,531L192,390Q109.5,450,109.5,549Z" fill="url(#master_svgu_53_68165)" fill-opacity="1"/></g><g><path d="M109.5,548Q165,541.5,191.5,512L191.5,499Q126.5,513,109.5,548Z" fill="url(#master_svgv_53_68157)" fill-opacity="1"/><path d="M191.600006,498.87616831L191.478951,498.902241811Q126.431332,512.912498,109.410049178,547.956314L109.33026953,548.1205640000001L109.511632208,548.099323Q165.049152,541.594929,191.57439399999998,512.066827L191.600006,512.038321L191.600006,498.87616831ZM191.400002,499.1238589Q126.705553,513.087129,109.67010725,547.879326Q164.967449,541.359928,191.400002,511.961673L191.400002,499.1238589Z" fill-rule="evenodd" fill="url(#master_svgw_53_68089)" fill-opacity="1"/></g><g><path d="M109.5,548Q158.5,545,191.5,449L191.5,390Q109.5,448,109.5,548Z" fill="url(#master_svgx_53_68153)" fill-opacity="1"/><path d="M191.700005,389.61356333L191.384506,389.83671686Q109.29999998,447.8965,109.29999998,548.00002L109.29999997,548.21262L109.512222013,548.1996300000001Q158.645676,545.19147,191.68914,449.065018L191.700005,449.033417L191.700005,389.61356333ZM191.300003,390.3868117Q109.78721166,448.234184,109.70009322,547.78694Q158.417904,544.60072,191.300003,448.966591L191.300003,390.3868117Z" fill-rule="evenodd" fill="#FFFFFF" fill-opacity="0.4000000059604645"/></g><g><path d="M109.5,548Q156,542,186.5,462C170.5,465,109.5,493,109.5,548Z" fill="url(#master_svgy_53_68149)" fill-opacity="1"/></g><g><path d="M109.5,548.5Q139,546,163,509C139.5,513.5,109.5,528.5,109.5,548.5Z" fill="url(#master_svgz_53_67735)" fill-opacity="1"/></g></g><g><g><path d="M57.00439453125,370Q68.50439453125,548.5,110.50458953124999,548.5Q153.00420353125,543,163.00439453125,370L57.00439453125,370Z" fill="#EBE0EE" fill-opacity="1"/><path d="M56.68444484125,369.69999999L56.70501518125,370.019287745Q68.22310153125,548.8,110.50458953124999,548.8L110.52392153125,548.8L110.54309053125,548.79753Q153.28936053125,543.26561,163.30389453125,370.017312469L163.32224453125002,369.69999999L56.68444484125,369.69999999ZM57.32437774125,370.30000001Q68.82041653125,548.15884,110.48530953125001,548.19998Q152.68251753125,542.70015,162.68651453125,370.30000001L57.32437774125,370.30000001Z" fill-rule="evenodd" fill="url(#master_svg10_53_67671)" fill-opacity="1"/></g><g><g><path d="M110,548.5Q155,533.5,162.5,370L141,370Q110,472.5,110,548.5Z" fill="url(#master_svg11_53_68137)" fill-opacity="1"/></g><g><path d="M110,549Q148.5,533.5,154.5,432C144.5,436,110,474,110,549Z" fill="url(#master_svg12_53_68141)" fill-opacity="1"/></g><g><path d="M111,548Q134,541,146,486C136.5,491,111,507,111,548Z" fill="url(#master_svg13_53_68145)" fill-opacity="1"/></g><g><path d="M111,548.5Q127.5,545,136,520C122.5,524.5,111,533.5,111,548.5Z" fill="url(#master_svg14_53_67711)" fill-opacity="1"/></g></g><g transform="matrix(-1,0,0,1,219,0)"><g><path d="M109.5,548.5Q154.5,533.5,162,370L140.5,370Q109.5,472.5,109.5,548.5Z" fill="url(#master_svg15_53_68137)" fill-opacity="1"/></g><g><path d="M109.5,549Q148,533.5,154,432C144,436,109.5,474,109.5,549Z" fill="url(#master_svg16_53_68141)" fill-opacity="1"/></g><g><path d="M110.5,548Q133.5,541,145.5,486C136,491,110.5,507,110.5,548Z" fill="url(#master_svg17_53_68145)" fill-opacity="1"/></g><g><path d="M110.5,548.5Q127,545,135.5,520C122,524.5,110.5,533.5,110.5,548.5Z" fill="url(#master_svg18_53_67711)" fill-opacity="1"/></g></g></g></g></g></g><g clip-path="url(#master_svg19_53_69295)"><g><g><path d="M173.2,5C188.3,5,200.5,17.2,200.5,32.299999L200.5,349.69998C200.5,364.79999,188.3,376.99997,173.2,376.99997L46.799999,376.99997C31.7,377,19.5,364.79999,19.5,349.70001L19.5,32.299999C19.5,17.2,31.7,5,46.799999,5L173.2,5ZM173.2,4L46.799999,4C31.2,4,18.5,16.7,18.5,32.299999L18.5,349.69998C18.5,365.29999,31.2,378,46.799999,378L173.2,378C188.8,378,201.5,365.29999,201.5,349.70001L201.5,32.299999C201.5,16.7,188.8,4,173.2,4Z" fill="#A9A2B5" fill-opacity="1" style="mix-blend-mode:passthrough"/></g><g><path d="M173.2,6C187.7,6,199.5,17.8,199.5,32.299999L199.5,349.69998C199.5,364.19998,187.7,375.99997,173.2,375.99997L46.799999,375.99997C32.3,376,20.5,364.20001,20.5,349.70001L20.5,32.299999C20.5,17.8,32.3,6,46.799999,6L173.2,6ZM173.2,5L46.799999,5C31.7,5,19.5,17.2,19.5,32.299999L19.5,349.69998C19.5,364.79999,31.7,377,46.799999,377L173.2,377C188.3,377,200.5,364.79999,200.5,349.70001L200.5,32.299999C200.5,17.2,188.3,5,173.2,5Z" fill="#D0C9DC" fill-opacity="1" style="mix-blend-mode:passthrough"/></g><g><path d="M173.2,7C187.2,7,198.5,18.4,198.5,32.299999L198.5,349.69998C198.5,363.69998,187.10001,374.99997,173.2,374.99997L46.799999,374.99997C32.9,375,21.5,363.60001,21.5,349.70001L21.5,32.299999C21.5,18.4,32.9,7,46.799999,7L173.2,7ZM173.2,6L46.799999,6C32.3,6,20.5,17.8,20.5,32.299999L20.5,349.69998C20.5,364.20001,32.3,376,46.799999,376L173.2,376C187.7,376,199.5,364.20001,199.5,349.70001L199.5,32.299999C199.5,17.8,187.7,6,173.2,6Z" fill="#E0DBE8" fill-opacity="1" style="mix-blend-mode:passthrough"/></g></g><g><path d="M173.89999,7L46.1,7C32.5,7,21.5,18,21.5,31.6L21.5,350.5C21.5,364,32.5,375,46.1,375L174,375C187.60001,375,198.60001,364,198.60001,350.39999L198.60001,31.6C198.5,18,187.5,7,173.89999,7ZM192.5,349.39999C192.5,360.69998,183.3,369.89999,171.89999,369.89999L48.1,369.89999C36.700001,369.89999,27.5,360.69998,27.5,349.39999L27.5,32.6C27.5,21.200001,36.700001,12,48.1,12L63.5,12L73.799999,12L147.2,12L152.09999,12L171.89999,12C183.29999,12,192.5,21.200001,192.5,32.5L192.5,349.39999Z" fill="#000000" fill-opacity="1" style="mix-blend-mode:passthrough"/></g><g><g><path d="M19,156.70000839233398L19.5,156.70000839233398L19.5,132.70000839233398L19,132.70000839233398C18.19999999,132.70000839233398,17.5,133.400005342334,17.5,134.20000839233398L17.5,155.10000239233398C17.5,156.100017392334,18.19999999,156.70000839233398,19,156.70000839233398Z" fill="url(#master_svg1a_53_51332)" fill-opacity="1" style="mix-blend-mode:passthrough"/></g><g><path d="M19,123.70000839233398L19.5,123.70000839233398L19.5,99.70000839233398L19,99.70000839233398C18.19999999,99.70000839233398,17.5,100.40000534233398,17.5,101.20000839233398L17.5,122.10000239233398C17.5,123.10001739233398,18.19999999,123.70000839233398,19,123.70000839233398Z" fill="url(#master_svg1b_53_51332)" fill-opacity="1" style="mix-blend-mode:passthrough"/></g><g><path d="M18.7,86.70001220703125L19.5,86.70001220703125L19.5,71.70001220703125L18.7,71.70001220703125C18.00000006,71.70001220703125,17.5,72.20001220703125,17.5,72.90001300703125L17.5,85.50001120703125C17.5,86.20001220703125,18,86.70001220703125,18.7,86.70001220703125Z" fill="url(#master_svg1c_53_51332)" fill-opacity="1" style="mix-blend-mode:passthrough"/></g><g><path d="M200.5,148.70000839233398L200.5,107.70000839233398C201.6000061,107.70000839233398,202.5,108.60000992233398,202.5,109.70000839233398L202.5,146.70000839233398C202.5,147.800014392334,201.6000061,148.70000839233398,200.5,148.70000839233398Z" fill="url(#master_svg1d_53_51332)" fill-opacity="1" style="mix-blend-mode:passthrough"/></g></g><g><g style="opacity:0.20000000298023224;"><rect x="198.5" y="37.70000076293945" width="3" height="4" rx="0" fill="#000000" fill-opacity="1" style="mix-blend-mode:passthrough"/></g><g style="opacity:0.20000000298023224;"><rect x="160" y="4" width="4" height="3" rx="0" fill="#000000" fill-opacity="1" style="mix-blend-mode:passthrough"/></g><g style="opacity:0.20000000298023224;"><rect x="57.900001525878906" y="375" width="4" height="3" rx="0" fill="#000000" fill-opacity="1" style="mix-blend-mode:passthrough"/></g><g style="opacity:0.20000000298023224;"><rect x="18.5" y="37.70000076293945" width="3" height="4" rx="0" fill="#000000" fill-opacity="1" style="mix-blend-mode:passthrough"/></g><g style="opacity:0.20000000298023224;"><rect x="18.5" y="330.70001220703125" width="3" height="4" rx="0" fill="#000000" fill-opacity="1" style="mix-blend-mode:passthrough"/></g><g style="opacity:0.20000000298023224;"><rect x="198.5" y="330.70001220703125" width="3" height="4" rx="0" fill="#000000" fill-opacity="1" style="mix-blend-mode:passthrough"/></g></g><g><g><path d="M126.800003,33.10000071661377L93.1999969,33.10000071661377C89,33.10000071661377,85.5,29.700000716613772,85.5,25.40000151661377C85.5,21.20000071661377,88.9000015,17.70000171661377,93.1999969,17.70000171661377L126.89999399999999,17.70000171661377C131.099991,17.70000171661377,134.599991,21.100002316613768,134.599991,25.40000151661377C134.5,29.60000071661377,131.099998,33.10000071661377,126.800003,33.10000071661377Z" fill="#000000" fill-opacity="1" style="mix-blend-mode:passthrough"/></g><g><g><ellipse cx="126.19999694824219" cy="25.399999618530273" rx="2.5" ry="2.5" fill="url(#master_svg1e_1_2230)" fill-opacity="1" style="mix-blend-mode:passthrough"/></g><g><ellipse cx="126.19999694824219" cy="25.399999618530273" rx="1.5" ry="1.5" fill="#070D1D" fill-opacity="1" style="mix-blend-mode:passthrough"/></g><g><g><path d="M125.30000304763672,25.3999996C125.30000304763672,24.79999924,125.40000152763672,24.29999924,125.60000610763672,24C125.00000762763672,24.20000076,124.70000457763672,24.79999924,124.70000457763672,25.3999996C124.70000457763672,26,125.10000610763672,26.6000004,125.60000610763672,26.7999992C125.40000152763672,26.5,125.30000304763672,26,125.30000304763672,25.3999996Z" fill="#0D569A" fill-opacity="1" style="mix-blend-mode:passthrough"/></g><g><path d="M126.69999694824219,24C126.89999389824219,24.29999924,126.99999999824219,24.79999924,126.99999999824219,25.3999996C126.99999999824219,26,126.90000152824219,26.5,126.69999694824219,26.7999992C127.29999541824219,26.599998499999998,127.59999847824218,26,127.59999847824218,25.3999996C127.59999847824218,24.79999924,127.30000304824219,24.20000076,126.69999694824219,24Z" fill="#0D569A" fill-opacity="1" style="mix-blend-mode:passthrough"/></g></g></g></g></g></g></svg>