<svg xmlns="http://www.w3.org/2000/svg" xmlns:xlink="http://www.w3.org/1999/xlink" fill="none" version="1.1" width="220" height="382" viewBox="0 0 220 382"><defs><clipPath id="master_svg0_53_69138"><rect x="0" y="0" width="220" height="382" rx="0"/></clipPath><clipPath id="master_svg1_53_69437"><rect x="0" y="0" width="220" height="382" rx="0"/></clipPath><linearGradient x1="0.5" y1="0" x2="0.5" y2="1" id="master_svg2_53_59265"><stop offset="0%" stop-color="#EA8B53" stop-opacity="1"/><stop offset="100%" stop-color="#FDBF9A" stop-opacity="0"/></linearGradient><linearGradient x1="0.5" y1="0" x2="0.5" y2="1" id="master_svg3_53_66734"><stop offset="0%" stop-color="#DFA785" stop-opacity="1"/><stop offset="100%" stop-color="#A2826F" stop-opacity="0"/></linearGradient><linearGradient x1="0.5" y1="0" x2="0.5" y2="1" id="master_svg4_53_66028"><stop offset="0%" stop-color="#090D16" stop-opacity="1"/><stop offset="71.58499360084534%" stop-color="#13182B" stop-opacity="1"/><stop offset="100%" stop-color="#2A3259" stop-opacity="1"/></linearGradient><linearGradient x1="0.5" y1="0" x2="0.4989804637066619" y2="1.3119851682498043" id="master_svg5_53_66044"><stop offset="15.944604575634003%" stop-color="#060610" stop-opacity="1"/><stop offset="51.95313096046448%" stop-color="#050922" stop-opacity="1"/><stop offset="100%" stop-color="#2C3D83" stop-opacity="1"/></linearGradient><linearGradient x1="0.5" y1="-0.052721962332725525" x2="0.5" y2="1.1828840970993042" id="master_svg6_53_66052"><stop offset="54.97393608093262%" stop-color="#01040B" stop-opacity="1"/><stop offset="100%" stop-color="#39488D" stop-opacity="1"/></linearGradient><clipPath id="master_svg7_53_69140"><rect x="17.5" y="4" width="185" height="374" rx="0"/></clipPath><linearGradient x1="0.5" y1="1.002393364906311" x2="0.5" y2="0.0023933332413434982" id="master_svg8_53_49765"><stop offset="0%" stop-color="#444854" stop-opacity="1"/><stop offset="21.42857164144516%" stop-color="#737992" stop-opacity="1"/><stop offset="50%" stop-color="#8B91A9" stop-opacity="1"/><stop offset="82.85714387893677%" stop-color="#737992" stop-opacity="1"/><stop offset="100%" stop-color="#444854" stop-opacity="1"/></linearGradient><linearGradient x1="0.5" y1="1.002393364906311" x2="0.5" y2="0.0023933332413434982" id="master_svg9_53_49765"><stop offset="0%" stop-color="#444854" stop-opacity="1"/><stop offset="21.42857164144516%" stop-color="#737992" stop-opacity="1"/><stop offset="50%" stop-color="#8B91A9" stop-opacity="1"/><stop offset="82.85714387893677%" stop-color="#737992" stop-opacity="1"/><stop offset="100%" stop-color="#444854" stop-opacity="1"/></linearGradient><linearGradient x1="0.5" y1="1.002393364906311" x2="0.5" y2="0.0023933332413434982" id="master_svga_53_49765"><stop offset="0%" stop-color="#444854" stop-opacity="1"/><stop offset="21.42857164144516%" stop-color="#737992" stop-opacity="1"/><stop offset="50%" stop-color="#8B91A9" stop-opacity="1"/><stop offset="82.85714387893677%" stop-color="#737992" stop-opacity="1"/><stop offset="100%" stop-color="#444854" stop-opacity="1"/></linearGradient><linearGradient x1="0.5" y1="1.002393364906311" x2="0.5" y2="0.0023933332413434982" id="master_svgb_53_49765"><stop offset="0%" stop-color="#444854" stop-opacity="1"/><stop offset="21.42857164144516%" stop-color="#737992" stop-opacity="1"/><stop offset="50%" stop-color="#8B91A9" stop-opacity="1"/><stop offset="82.85714387893677%" stop-color="#737992" stop-opacity="1"/><stop offset="100%" stop-color="#444854" stop-opacity="1"/></linearGradient><linearGradient x1="0.49518001079559326" y1="1.0046600103378296" x2="0.49518001079559326" y2="-0.016860000789165497" id="master_svgc_1_2230"><stop offset="0%" stop-color="#1F1F1F" stop-opacity="1"/><stop offset="100%" stop-color="#0F0F0F" stop-opacity="1"/></linearGradient></defs><g clip-path="url(#master_svg0_53_69138)"><rect x="0" y="0" width="220" height="382" rx="0" fill="#FFFFFF" fill-opacity="0"/><g clip-path="url(#master_svg1_53_69437)"><rect x="0" y="0" width="220" height="382" rx="0" fill="#FFFFFF" fill-opacity="0"/><g><g><rect x="27.5" y="12" width="165" height="358" rx="12" fill="#000000" fill-opacity="1"/><rect x="27.700000002980232" y="12.200000002980232" width="164.59999999403954" height="357.59999999403954" rx="11.799999997019768" fill-opacity="0" stroke-opacity="1" stroke="#909DB3" fill="none" stroke-width="0.4000000059604645"/></g><g><path d="M46.5,328.5L52,357L169,357L176.5,323.5L46.5,328.5Z" fill="url(#master_svg2_53_59265)" fill-opacity="1"/></g><g><path d="M43,205L48.5,233.5L139,233.5L132.5,205L43,205Z" fill="url(#master_svg3_53_66734)" fill-opacity="1"/></g><g><path d="M31.9829459,144.98773Q31.5771799,149.65787,27.16551763,153.62836L27.83448237,154.37164Q32.5392909,150.13733,32.9791927,145.07431Q33.2434454,142.03291,31.5779362,135.91532999999998Q30,130.11941000000002,30,127Q30,101.991867,60.008198,101.499931L168.5,101.5Q177.40559,101.5,183.7028,95.202797Q190,88.905594,190,80L190,36Q190,27.091213,183.72183,20.797637899999998Q177.43962,14.5,168.53722,14.5L54,14.5Q44.129564,14.5,39.742823,12.06292135L39.257177999999996,12.93707865Q43.870438,15.5,54,15.5L168.53722,15.5Q177.02469,15.5,183.01387,21.5038786Q189,27.504703,189,36L189,80Q189,88.491379,182.9957,94.495697Q176.99138,100.5,168.5,100.5L59.991806,100.500076Q29,101.008133,29,127Q29,130.25311,30.6130557,136.17802Q32.2317829,142.12378,31.9829459,144.98773ZM50.950249,93.002487Q35.7726488,94.520248,27.14644662,103.146446L27.85355338,103.853561Q36.2203617,95.486748,51.025009,94L167,94Q173.42032,94,177.96016,89.460159Q182.5,84.920311,182.5,78.5L182.5,37.000004000000004Q182.5,30.583096,177.9386,26.039168Q173.38196,21.500000999999997,166.95822,21.5000029L49.5,21.5Q35.222682,21.5,30.8716474,16.6655178L30.128353099999998,17.3344822Q34.7773185,22.5,49.5,22.5L166.95822,22.500003Q172.96887,22.500002000000002,177.23285,26.747631Q181.5,30.998436,181.5,37.000004000000004L181.5,78.5Q181.5,84.506096,177.25305,88.753052Q173.0061,93,167,93L50.975063,93L50.950249,93.002487ZM175.5,145.5Q189.61996,145.5,192.01825,154.13382L192.98177,153.86618Q190.38005,144.5,175.5,144.5L60.75,144.5Q52.983503,144.5,47.491749,139.00826Q42,133.5165,42,125.75Q42,117.98351,47.491749,112.491753Q52.983501000000004,107,60.75,107L177,107Q183.62743,107,188.31372,102.313713Q193,97.627426,193,91L192,91Q192,97.213196,187.6066,101.606598Q183.2132,106,177,106L60.75,106Q52.569281000000004,106,46.784641,111.784637Q41,117.56927,41,125.75Q41,133.93072999999998,46.784641,139.71536Q52.569281000000004,145.5,60.75,145.5L175.5,145.5ZM170.99222,115.5Q187.21498,116.00543,192.86859,109.83786L192.13142,109.16214Q186.78639,114.99309,171.01562,114.50024L171.00781,114.5L58.499998000000005,114.5Q53.943647,114.5,50.721824999999995,117.72182Q47.5,120.94365,47.5,125.5Q47.5,130.05635999999998,50.721824999999995,133.27818000000002Q53.943647,136.5,58.5,136.5L192.5,136.5L192.5,135.5L58.5,135.5Q54.357867999999996,135.5,51.428932,132.57107000000002Q48.5,129.64213999999998,48.5,125.5Q48.5,121.35787,51.428932,118.42894Q54.357867999999996,115.5,58.499998000000005,115.5L170.99222,115.5ZM36.5307655,250.23666L27.99308997,199.41716L27.00691003,199.58286L35.5445862,250.40234Q36.4244671,255.63974,40.478934,259.06987000000004Q44.533401,262.5,49.844193000000004,262.5L167.58493,262.5Q170.54361,262.5,172.90845,260.89578Q175.11958,259.39581,176.24194,256.91228Q177.36429,254.42874,177.02895,251.77795Q176.67029,248.94293,174.71515,246.72229L154.20186999999999,223.42326Q150.01141,218.66374,148.43806999999998,214.62619Q146.39728,209.38907,149.22911,206.21941Q152.99878,202,163.5,202Q180.83646,202,186.54219,196.83191Q183.60094,204.2502,163.4567,206.00188L163.44028,206.00333L163.42398,206.00583Q160.61954,206.43729,159.54031,208.71564Q158.422,211.07654,159.72015,214.49022Q162.82503,222.65491,177.20354,231.90381Q189.08122,241.80725,192.03185,249.67557L192.96817,249.32445Q189.92171,241.20056,177.8201,231.11589L177.79637,231.09612L177.77039,231.07941Q163.64552,221.99915,160.65485,214.1348Q159.50818,211.11949,160.44406,209.14374Q161.29309,207.35135,163.55981,206.9967Q186.95447,204.95891,187.99725,195.05235L188.20197,193.10765L187.08891,194.71539Q182.73804,201,163.5,201Q152.55123,201,148.48338,205.55315Q145.24272000000002,209.1804,147.50630999999998,214.98926Q149.14391,219.1917,153.45132,224.08408L173.9646,247.3831Q175.71675,249.3732,176.03687,251.90349Q176.33678,254.27414,175.33066,256.50046Q174.32455,258.72675000000004,172.34706,260.06822Q170.23642,261.5,167.58493,261.5L49.844193000000004,261.5Q44.899649,261.5,41.124813,258.30644Q37.3499699,255.11288,36.5307655,250.23666Z" fill-rule="evenodd" fill="#8B99B3" fill-opacity="1"/></g><g><path d="M48,125.5C48,131.29899,52.7010098,136,58.500002,136L192.5,136L192.5,109.5Q187,115.5,171,115L58.5,115C52.7010098,115,48,119.70101,48,125.5Z" fill="#121832" fill-opacity="1"/><path d="M193,136.5L193,108.2145991L192.13142,109.16213766Q186.78639,114.9930811,171.01562,114.5002441L171.00781,114.5L58.5,114.5000014Q53.9436507,114.500001,50.7218254,117.7218266Q47.5,120.943652,47.50000125,125.5Q47.50000063,130.056351,50.721826300000004,133.278175Q53.9436507,136.5,58.500003,136.5L193,136.5ZM192,110.6911173L192,135.5L58.500003,135.5Q54.3578658,135.5,51.4289331,132.571068Q48.50000066,129.642136,48.50000131,125.5Q48.5,121.357864,51.4289322,118.4289322Q54.3578634,115.5000014,58.5,115.5000014L170.99222,115.5Q186.04735,115.9690533,192,110.6911173Z" fill-rule="evenodd" fill="#8B99B3" fill-opacity="1"/></g><g><path d="M27.5,103.5Q36,95,51,93.5L167,93.5C175.28427,93.5,182,86.784271,182,78.5L182,37.000001999999995C182,28.715729,175.24249,21.9999995,166.95822,22L49.5,22Q35,22,30.5,17C28.5791324,18.9208676,27.5,21.5360022,27.5,24.2525206L27.5,103.5Z" fill="url(#master_svg4_53_66028)" fill-opacity="1"/><path d="M49.5,21.5Q35.222680600000004,21.4999995,30.871646900000002,16.66551763L30.5190973,16.27379584L30.1464467,16.64644539Q27,19.7928939,27,24.2525225L27,104.707108L27.85355338,103.853561Q36.2203617,95.486748,51.025009,94L167,94Q173.42032,94,177.96016,89.460159Q182.5,84.920311,182.5,78.5L182.5,37.000004000000004Q182.5,30.583097000000002,177.9386,26.0391674Q173.38196,21.4999995,166.95824,21.5L49.5,21.5ZM30.500163999999998,17.72349453Q28,20.4658794,28,24.2525225L28,102.325127Q36.5099478,94.446518,50.950249,93.002487L50.975063,93L167,93Q173.0061,93,177.25305,88.753052Q181.5,84.506096,181.5,78.5L181.5,37.000004000000004Q181.5,30.998438,177.23285,26.747630100000002Q172.96887,22.4999995,166.95824,22.5L49.5,22.5Q35.3425474,22.5,30.500163999999998,17.72349453Z" fill-rule="evenodd" fill="#8B99B3" fill-opacity="1"/></g><g><path d="M55.465599,156.5C44.269509,156.5,35.7897947,166.61234100000001,37.7410765,177.637083L42.3924084,203.917107C43.3223019,209.171005,47.888504,213,53.22406,213L122.046318,213C127.218765,213,131.938568,210.05093,134.20629,205.4021C138.05714,197.507854,146.07191,192.5,154.85531,192.5L167.5,192.5C177.44113,192.5,185.5,184.441126,185.5,174.5C185.5,164.5588741,177.44113,156.5,167.5,156.5L55.465599,156.5Z" fill="url(#master_svg5_53_66044)" fill-opacity="1"/><path d="M37.2487285,177.724224L41.9000607,204.00425Q42.6291809,208.123787,45.834841,210.811897Q49.040495,213.5,53.22406,213.5L122.046318,213.5Q126.069016,213.5,129.480522,211.368393Q132.89202899999998,209.236786,134.65567,205.621315Q137.48097,199.829475,142.94603999999998,196.414742Q148.41111999999998,193,154.85531,193L167.5,193Q175.16296,193,180.58148,187.581478Q186,182.16296,186,174.5Q186,166.837044,180.58148,161.4185247Q175.16296,156,167.5,156L55.465603,155.99999869Q46.835281,155.99999869,41.2899485,162.6129923Q35.7446158,169.225986,37.2487285,177.724224ZM46.477381,210.045639Q43.5504742,207.591278,42.8847532,203.829964L38.2334247,177.549942Q36.8106143,169.511065,42.056200000000004,163.2555332Q47.301786,156.99999875,55.465603,156.99999875L167.5,157Q174.74875,157,179.87437,162.1256313Q185,167.251263,185,174.5Q185,181.748739,179.87437,186.874371Q174.74875,192,167.5,192L154.85531,192Q148.12439,192,142.41615000000002,195.566677Q136.70791,199.13335,133.756912,205.182888Q132.11897299999998,208.540661,128.950638,210.520332Q125.782303,212.5,122.046318,212.5L53.22406,212.5Q49.404287,212.5,46.477381,210.045639Z" fill-rule="evenodd" fill="#8B99B3" fill-opacity="1"/></g><g><path d="M55.055084,280.5C45.66926,280.5,38.5889231,289.0224056,40.3091798,298.249237L45.7159595,327.249237C47.039994,334.35087599999997,53.237854,339.5,60.461863,339.5L160.78607,339.5C168.339,339.5,174.71387,333.884193,175.66632,326.391556L179.35277,297.391558C180.49213,288.4286623,173.50754,280.5,164.47251,280.5L55.055084,280.5Z" fill="url(#master_svg6_53_66052)" fill-opacity="1"/><path d="M43.1327605,285.5950422Q38.484450100000004,291.190085,39.8176498,298.340879L45.2244301,327.340878Q46.2505589,332.844658,50.556907,336.422329Q54.863253,340,60.461864,340L160.78607,340Q166.63959,340,171.03189,336.130703Q175.42419,332.261395,176.16234,326.454613L179.84879,297.454609Q180.73178,290.508368,176.10323,285.2541828Q171.47467,280,164.47252,280L55.055084,280Q47.781071,280,43.1327605,285.5950422ZM46.20749,327.1576L40.8007102,298.157597Q39.5535238,291.468145,43.9019432,286.2340717Q48.250364,281,55.055084,281L164.47252,281Q171.02292,281.00000036,175.35286,285.9152031Q179.6828,290.830399,178.85675,297.328505L175.17032,326.328503Q174.47978,331.760677,170.37088,335.380337Q166.26196,339,160.78607,339L60.461864,339Q55.224457,339,51.195937,335.653145Q47.167415,332.306286,46.20749,327.1576Z" fill-rule="evenodd" fill="#8B99B3" fill-opacity="1"/></g></g></g><g clip-path="url(#master_svg7_53_69140)"><g><g><path d="M173.2,5C188.3,5,200.5,17.2,200.5,32.299999L200.5,349.69998C200.5,364.79999,188.3,376.99997,173.2,376.99997L46.799999,376.99997C31.7,377,19.5,364.79999,19.5,349.70001L19.5,32.299999C19.5,17.2,31.7,5,46.799999,5L173.2,5ZM173.2,4L46.799999,4C31.2,4,18.5,16.7,18.5,32.299999L18.5,349.69998C18.5,365.29999,31.2,378,46.799999,378L173.2,378C188.8,378,201.5,365.29999,201.5,349.70001L201.5,32.299999C201.5,16.7,188.8,4,173.2,4Z" fill="#444854" fill-opacity="1" style="mix-blend-mode:passthrough"/></g><g><path d="M173.2,6C187.7,6,199.5,17.8,199.5,32.299999L199.5,349.69998C199.5,364.19998,187.7,375.99997,173.2,375.99997L46.799999,375.99997C32.3,376,20.5,364.20001,20.5,349.70001L20.5,32.299999C20.5,17.8,32.3,6,46.799999,6L173.2,6ZM173.2,5L46.799999,5C31.7,5,19.5,17.2,19.5,32.299999L19.5,349.69998C19.5,364.79999,31.7,377,46.799999,377L173.2,377C188.3,377,200.5,364.79999,200.5,349.70001L200.5,32.299999C200.5,17.2,188.3,5,173.2,5Z" fill="#484D63" fill-opacity="1" style="mix-blend-mode:passthrough"/></g><g><path d="M173.2,7C187.2,7,198.5,18.4,198.5,32.299999L198.5,349.69998C198.5,363.69998,187.10001,374.99997,173.2,374.99997L46.799999,374.99997C32.9,375,21.5,363.60001,21.5,349.70001L21.5,32.299999C21.5,18.4,32.9,7,46.799999,7L173.2,7ZM173.2,6L46.799999,6C32.3,6,20.5,17.8,20.5,32.299999L20.5,349.69998C20.5,364.20001,32.3,376,46.799999,376L173.2,376C187.7,376,199.5,364.20001,199.5,349.70001L199.5,32.299999C199.5,17.8,187.7,6,173.2,6Z" fill="#8B91A9" fill-opacity="1" style="mix-blend-mode:passthrough"/></g></g><g><path d="M173.89999,7L46.1,7C32.5,7,21.5,18,21.5,31.6L21.5,350.5C21.5,364,32.5,375,46.1,375L174,375C187.60001,375,198.60001,364,198.60001,350.39999L198.60001,31.6C198.5,18,187.5,7,173.89999,7ZM192.5,349.39999C192.5,360.69998,183.3,369.89999,171.89999,369.89999L48.1,369.89999C36.700001,369.89999,27.5,360.69998,27.5,349.39999L27.5,32.6C27.5,21.200001,36.700001,12,48.1,12L63.5,12L73.799999,12L147.2,12L152.09999,12L171.89999,12C183.29999,12,192.5,21.200001,192.5,32.5L192.5,349.39999Z" fill="#000000" fill-opacity="1" style="mix-blend-mode:passthrough"/></g><g><g><path d="M19,156.70000839233398L19.5,156.70000839233398L19.5,132.70000839233398L19,132.70000839233398C18.19999999,132.70000839233398,17.5,133.400005342334,17.5,134.20000839233398L17.5,155.10000239233398C17.5,156.100017392334,18.19999999,156.70000839233398,19,156.70000839233398Z" fill="url(#master_svg8_53_49765)" fill-opacity="1" style="mix-blend-mode:passthrough"/></g><g><path d="M19,123.70000839233398L19.5,123.70000839233398L19.5,99.70000839233398L19,99.70000839233398C18.19999999,99.70000839233398,17.5,100.40000534233398,17.5,101.20000839233398L17.5,122.10000239233398C17.5,123.10001739233398,18.19999999,123.70000839233398,19,123.70000839233398Z" fill="url(#master_svg9_53_49765)" fill-opacity="1" style="mix-blend-mode:passthrough"/></g><g><path d="M18.7,86.70001220703125L19.5,86.70001220703125L19.5,71.70001220703125L18.7,71.70001220703125C18.00000006,71.70001220703125,17.5,72.20001220703125,17.5,72.90001300703125L17.5,85.50001120703125C17.5,86.20001220703125,18,86.70001220703125,18.7,86.70001220703125Z" fill="url(#master_svga_53_49765)" fill-opacity="1" style="mix-blend-mode:passthrough"/></g><g><path d="M200.5,148.70000839233398L200.5,107.70000839233398C201.6000061,107.70000839233398,202.5,108.60000992233398,202.5,109.70000839233398L202.5,146.70000839233398C202.5,147.800014392334,201.6000061,148.70000839233398,200.5,148.70000839233398Z" fill="url(#master_svgb_53_49765)" fill-opacity="1" style="mix-blend-mode:passthrough"/></g></g><g><g style="opacity:0.20000000298023224;"><rect x="198.5" y="37.70000076293945" width="3" height="4" rx="0" fill="#000000" fill-opacity="1" style="mix-blend-mode:passthrough"/></g><g style="opacity:0.20000000298023224;"><rect x="160" y="4" width="4" height="3" rx="0" fill="#000000" fill-opacity="1" style="mix-blend-mode:passthrough"/></g><g style="opacity:0.20000000298023224;"><rect x="57.900001525878906" y="375" width="4" height="3" rx="0" fill="#000000" fill-opacity="1" style="mix-blend-mode:passthrough"/></g><g style="opacity:0.20000000298023224;"><rect x="18.5" y="37.70000076293945" width="3" height="4" rx="0" fill="#000000" fill-opacity="1" style="mix-blend-mode:passthrough"/></g><g style="opacity:0.20000000298023224;"><rect x="18.5" y="330.70001220703125" width="3" height="4" rx="0" fill="#000000" fill-opacity="1" style="mix-blend-mode:passthrough"/></g><g style="opacity:0.20000000298023224;"><rect x="198.5" y="330.70001220703125" width="3" height="4" rx="0" fill="#000000" fill-opacity="1" style="mix-blend-mode:passthrough"/></g></g><g><g><path d="M126.800003,33.10000071661377L93.1999969,33.10000071661377C89,33.10000071661377,85.5,29.700000716613772,85.5,25.40000151661377C85.5,21.20000071661377,88.9000015,17.70000171661377,93.1999969,17.70000171661377L126.89999399999999,17.70000171661377C131.099991,17.70000171661377,134.599991,21.100002316613768,134.599991,25.40000151661377C134.5,29.60000071661377,131.099998,33.10000071661377,126.800003,33.10000071661377Z" fill="#000000" fill-opacity="1" style="mix-blend-mode:passthrough"/></g><g><g><ellipse cx="126.19999694824219" cy="25.399999618530273" rx="2.5" ry="2.5" fill="url(#master_svgc_1_2230)" fill-opacity="1" style="mix-blend-mode:passthrough"/></g><g><ellipse cx="126.19999694824219" cy="25.399999618530273" rx="1.5" ry="1.5" fill="#070D1D" fill-opacity="1" style="mix-blend-mode:passthrough"/></g><g><g><path d="M125.30000304763672,25.3999996C125.30000304763672,24.79999924,125.40000152763672,24.29999924,125.60000610763672,24C125.00000762763672,24.20000076,124.70000457763672,24.79999924,124.70000457763672,25.3999996C124.70000457763672,26,125.10000610763672,26.6000004,125.60000610763672,26.7999992C125.40000152763672,26.5,125.30000304763672,26,125.30000304763672,25.3999996Z" fill="#0D569A" fill-opacity="1" style="mix-blend-mode:passthrough"/></g><g><path d="M126.69999694824219,24C126.89999389824219,24.29999924,126.99999999824219,24.79999924,126.99999999824219,25.3999996C126.99999999824219,26,126.90000152824219,26.5,126.69999694824219,26.7999992C127.29999541824219,26.599998499999998,127.59999847824218,26,127.59999847824218,25.3999996C127.59999847824218,24.79999924,127.30000304824219,24.20000076,126.69999694824219,24Z" fill="#0D569A" fill-opacity="1" style="mix-blend-mode:passthrough"/></g></g></g></g></g></g></svg>