<svg xmlns="http://www.w3.org/2000/svg" xmlns:xlink="http://www.w3.org/1999/xlink" fill="none" version="1.1" width="220" height="382" viewBox="0 0 220 382"><defs><clipPath id="master_svg0_56_2209"><rect x="-0.5" y="-0.5" width="221" height="383" rx="0"/></clipPath><radialGradient cx="0" cy="0" r="1" gradientUnits="userSpaceOnUse" id="master_svg1_56_4884" gradientTransform="translate(110 191) rotate(90) scale(240.71437668800354 110.9437769651413)"><stop offset="30.299553275108337%" stop-color="#645C7B" stop-opacity="1"/><stop offset="100%" stop-color="#090717" stop-opacity="1"/></radialGradient><radialGradient cx="0" cy="0" r="1" gradientUnits="userSpaceOnUse" id="master_svg2_56_4884" gradientTransform="translate(110 191) rotate(90) scale(240.71437668800354 110.9437769651413)"><stop offset="30.299553275108337%" stop-color="#FFFFFF" stop-opacity="1"/><stop offset="100%" stop-color="#FFFFFF" stop-opacity="1"/></radialGradient><mask id="master_svg3_56_5625" style="mask-type:alpha" maskUnits="userSpaceOnUse" x="27" y="12" width="268" height="358"><rect x="27.5" y="12" width="165" height="358" rx="12" fill="url(#master_svg2_56_4884)" fill-opacity="1"/></mask><linearGradient x1="0.5" y1="0.027777962386608124" x2="0.48095201204942245" y2="1.000219362315987" id="master_svg4_56_4944"><stop offset="0%" stop-color="#242037" stop-opacity="1"/><stop offset="100.00001192092896%" stop-color="#5F5B7E" stop-opacity="1"/></linearGradient><linearGradient x1="0.5" y1="0" x2="0.5" y2="1" id="master_svg5_56_1452"><stop offset="0%" stop-color="#FFFFFF" stop-opacity="1"/><stop offset="100%" stop-color="#FFFFFF" stop-opacity="0"/></linearGradient><linearGradient x1="0.5" y1="0.027777962386608124" x2="0.4911605646211352" y2="1.0001945976775974" id="master_svg6_56_4944"><stop offset="0%" stop-color="#242037" stop-opacity="1"/><stop offset="100.00001192092896%" stop-color="#5F5B7E" stop-opacity="1"/></linearGradient><linearGradient x1="0.5" y1="0" x2="0.5" y2="1" id="master_svg7_56_1452"><stop offset="0%" stop-color="#FFFFFF" stop-opacity="1"/><stop offset="100%" stop-color="#FFFFFF" stop-opacity="0"/></linearGradient><linearGradient x1="0.5" y1="0.027777962386608124" x2="0.48995961572263763" y2="1.0002086331948645" id="master_svg8_56_4944"><stop offset="0%" stop-color="#242037" stop-opacity="1"/><stop offset="100.00001192092896%" stop-color="#5F5B7E" stop-opacity="1"/></linearGradient><linearGradient x1="0.5" y1="0" x2="0.5" y2="1" id="master_svg9_56_1452"><stop offset="0%" stop-color="#FFFFFF" stop-opacity="1"/><stop offset="100%" stop-color="#FFFFFF" stop-opacity="0"/></linearGradient><linearGradient x1="0.5" y1="0.027777962386608124" x2="0.48395426283581894" y2="1.0002343224346042" id="master_svga_56_4944"><stop offset="0%" stop-color="#242037" stop-opacity="1"/><stop offset="100.00001192092896%" stop-color="#5F5B7E" stop-opacity="1"/></linearGradient><linearGradient x1="0.5" y1="0" x2="0.5" y2="1" id="master_svgb_56_1452"><stop offset="0%" stop-color="#FFFFFF" stop-opacity="1"/><stop offset="100%" stop-color="#FFFFFF" stop-opacity="0"/></linearGradient><linearGradient x1="0.5" y1="0.027777962386608124" x2="0.46905672697993367" y2="0.9999778361987068" id="master_svgc_56_4944"><stop offset="0%" stop-color="#242037" stop-opacity="1"/><stop offset="100.00001192092896%" stop-color="#5F5B7E" stop-opacity="1"/></linearGradient><linearGradient x1="0.5" y1="0" x2="0.5" y2="1" id="master_svgd_56_1452"><stop offset="0%" stop-color="#FFFFFF" stop-opacity="1"/><stop offset="100%" stop-color="#FFFFFF" stop-opacity="0"/></linearGradient><linearGradient x1="1" y1="0" x2="-0.0004303710299766536" y2="0.9995692582123122" id="master_svge_56_5068"><stop offset="0%" stop-color="#A776B9" stop-opacity="1"/><stop offset="100%" stop-color="#FDB8D7" stop-opacity="1"/></linearGradient><clipPath id="master_svgf_56_2211"><rect x="17.5" y="4" width="185" height="374" rx="0"/></clipPath><linearGradient x1="0.5" y1="1.0041600465774536" x2="0.5" y2="-0.01735999993979931" id="master_svgg_56_111"><stop offset="0%" stop-color="#1F1F1F" stop-opacity="1"/><stop offset="100%" stop-color="#0F0F0F" stop-opacity="1"/></linearGradient><linearGradient x1="0.5" y1="1.0014958381652832" x2="0.5" y2="0.0014916666550561786" id="master_svgh_1_0389"><stop offset="0%" stop-color="#2A2A2A" stop-opacity="1"/><stop offset="16.428571939468384%" stop-color="#606060" stop-opacity="1"/><stop offset="52.14285850524902%" stop-color="#606060" stop-opacity="1"/><stop offset="82.14285969734192%" stop-color="#606060" stop-opacity="1"/><stop offset="100%" stop-color="#2A2A2A" stop-opacity="1"/></linearGradient><linearGradient x1="0.5" y1="1.001491665840149" x2="0.5" y2="0.0014916666550561786" id="master_svgi_1_0369"><stop offset="0%" stop-color="#2A2A2A" stop-opacity="1"/><stop offset="14.599999785423279%" stop-color="#606060" stop-opacity="1"/><stop offset="52.14285850524902%" stop-color="#606060" stop-opacity="1"/><stop offset="85.71428656578064%" stop-color="#606060" stop-opacity="1"/><stop offset="100%" stop-color="#2A2A2A" stop-opacity="1"/></linearGradient><linearGradient x1="0.5" y1="1.002393364906311" x2="0.5" y2="0.0023933332413434982" id="master_svgj_1_0349"><stop offset="0%" stop-color="#2A2A2A" stop-opacity="1"/><stop offset="17.142857611179352%" stop-color="#606060" stop-opacity="1"/><stop offset="50%" stop-color="#606060" stop-opacity="1"/><stop offset="82.85714387893677%" stop-color="#606060" stop-opacity="1"/><stop offset="100%" stop-color="#2A2A2A" stop-opacity="1"/></linearGradient><linearGradient x1="0.5" y1="1.0008732080459595" x2="0.5" y2="0.0008731707348488271" id="master_svgk_1_0329"><stop offset="0%" stop-color="#2A2A2A" stop-opacity="1"/><stop offset="17.85714328289032%" stop-color="#606060" stop-opacity="1"/><stop offset="50.71428418159485%" stop-color="#606060" stop-opacity="1"/><stop offset="84.28571224212646%" stop-color="#606060" stop-opacity="1"/><stop offset="99.28571581840515%" stop-color="#2A2A2A" stop-opacity="1"/></linearGradient></defs><g clip-path="url(#master_svg0_56_2209)"><rect x="0" y="0" width="220" height="382" rx="0" fill="#FFFFFF" fill-opacity="0"/><rect x="27.5" y="12" width="165" height="358" rx="12" fill="url(#master_svg1_56_4884)" fill-opacity="1"/><g mask="url(#master_svg3_56_5625)"><g style="opacity:0.6000000238418579;"><path d="M193,29.515102Q191.53967,28.456406,190.039,27.455762999999997Q188.53831,26.45512,186.99957,25.514067Q185.46082,24.573012,183.88635,23.692994Q182.31189,22.812977,180.70416,21.995347000000002Q179.09642,21.1777172,177.45787,20.4237328Q175.81931,19.6697488,174.15247,18.9805689Q172.48561999999998,18.2913876,170.79305,17.6680708Q169.10046,17.0447531,167.38477,16.4882565Q165.66905,15.9317598,163.93285,15.4429398Q162.19665,14.9541194,160.44262,14.5337269Q158.68859,14.1133342,156.91943,13.7620155Q155.15028,13.410696699999999,153.36871,13.1289915Q151.58714,12.84728622,149.79590000000002,12.635627509999999Q148.00465,12.42396888,146.206497,12.28268215Q144.40834,12.14139539,142.606018,12.070697695Q140.803696,12,139,12Q136.741531,12,134.48577899999998,12.11081801Q132.230019,12.22163603,129.98242199999999,12.44300508Q127.734818,12.66437411,125.500793,12.99576092Q123.266769,13.3271477,121.051689,13.7677538Q118.836609,14.2083602,116.645821,14.7571242Q114.455032,15.3058887,112.293808,15.9614887Q110.13258400000001,16.6170888,108.00613,17.3779449Q105.879681,18.1388016,103.793121,19.0030818Q101.70656600000001,19.867362,99.664925,20.832983Q97.623291,21.798605000000002,95.6315,22.863242Q93.639702,23.927879,91.702545,25.088966Q89.765388,26.250053,87.887535,27.504793Q86.009682,28.759535,84.19566,30.104906Q82.38163800000001,31.450277,80.635818,32.883038Q78.889994,34.315798,77.21657400000001,35.832495Q75.543156,37.349194,73.946175,38.946175Q72.349194,40.543155999999996,70.832495,42.216576Q69.315798,43.889994,67.883038,45.635818Q66.450277,47.381638,65.104906,49.19566Q63.759535,51.009682,62.504793,52.887535Q61.250053,54.765388,60.088966,56.702545Q58.927879000000004,58.639702,57.863243,60.6315Q56.798605,62.623291,55.832983999999996,64.664928Q54.867362,66.70656199999999,54.003081800000004,68.79311799999999Q53.1388016,70.879677,52.3779454,73.006126Q51.6170888,75.13257999999999,50.9614887,77.293808Q50.3058887,79.455032,49.7571242,81.645821Q49.2083602,83.836609,48.7677538,86.051689Q48.3271477,88.266769,47.99576092,90.500793Q47.66437411,92.734825,47.44300508,94.98243Q47.22163603,97.230026,47.11081801,99.485779Q47,101.741531,47,104Q47,106.258469,47.11081801,108.514221Q47.22163603,110.769974,47.44300508,113.01757Q47.66437411,115.26517,47.99576092,117.4992Q48.3271477,119.73322,48.7677538,121.9483Q49.2083602,124.16338,49.7571242,126.35417Q50.3058887,128.54497,50.9614887,130.70619Q51.6170888,132.86741,52.3779449,134.99385Q53.1388016,137.1203,54.003081800000004,139.20686Q54.867362,141.29343,55.832983,143.33505Q56.798605,145.37671,57.863242,147.3685Q58.927879000000004,149.36029,60.088966,151.29745Q61.250053,153.2346,62.504793,155.11246Q63.759535,156.9903,65.104906,158.80432Q66.450277,160.61835,67.883038,162.36418Q69.315798,164.11,70.832495,165.78342Q72.349194,167.45683,73.946175,169.05382Q75.543156,170.65079,77.216576,172.1675Q78.889994,173.6842,80.635818,175.11696Q82.38163800000001,176.54971,84.19566,177.8951Q86.009682,179.24046,87.887535,180.49521Q89.765388,181.74994,91.702545,182.91104Q93.639702,184.07214,95.6315,185.13678Q97.623291,186.20142,99.664928,187.16704Q101.70656199999999,188.13264,103.79311799999999,188.99692Q105.879677,189.86121,108.006126,190.62206Q110.13257999999999,191.38292,112.293808,192.03853Q114.455032,192.69412,116.645821,193.24289Q118.836609,193.79166,121.051689,194.23225Q123.266769,194.67287,125.500793,195.00424Q127.734825,195.33563,129.98243,195.55701Q132.230026,195.77837,134.48577899999998,195.88919Q136.741531,196,139,196Q140.803696,196,142.606018,195.92929Q144.40834,195.8586,146.206505,195.71732Q148.00466,195.57602,149.79590000000002,195.36436Q151.58714,195.15271,153.36871,194.87102Q155.15028,194.58929,156.91944,194.23798Q158.6886,193.88666,160.44263,193.46628Q162.19666,193.04588,163.93285,192.55707Q165.66905,192.06824,167.38477,191.51175Q169.10046,190.95525,170.79305,190.33192Q172.48563000000001,189.70862,174.15247,189.01944Q175.81931,188.33026,177.45787,187.57628Q179.09642,186.8223,180.70416,186.00467Q182.31189,185.18704,183.88635,184.30701Q185.46082,183.42699,186.99957,182.48593Q188.53831,181.54488,190.039,180.54424Q191.53967,179.54358,193,178.48489L193,29.515102Z" fill-rule="evenodd" fill="url(#master_svg4_56_4944)" fill-opacity="1"/><path d="M139,12Q140.803696,12,142.606018,12.070697695Q144.40834,12.14139539,146.206505,12.28268215Q148.00466,12.42396888,149.79590000000002,12.635627509999999Q151.58714,12.84728622,153.36871,13.1289915Q155.15028,13.410696699999999,156.91944,13.7620156Q158.6886,14.1133344,160.44263,14.5337272Q162.19666,14.9541197,163.93285,15.4429398Q165.66905,15.9317598,167.38477,16.4882565Q169.10046,17.0447531,170.79305,17.6680703Q172.48563000000001,18.2913876,174.15247,18.9805689Q175.81931,19.6697493,177.45787,20.4237337Q179.09642,21.1777182,180.70416,21.995348Q182.31189,22.812977,183.88635,23.692994Q185.46082,24.573012,186.99957,25.514067Q188.53831,26.45512,190.039,27.455762999999997Q191.53967,28.456406,193,29.515102L193,178.48489Q191.53967,179.54358,190.039,180.54424Q188.53831,181.54488,186.99957,182.48593Q185.46082,183.42699,183.88635,184.30701Q182.31189,185.18704,180.70416,186.00467Q179.09642,186.8223,177.45787,187.57628Q175.81931,188.33026,174.15247,189.01944Q172.48561999999998,189.70862,170.79305,190.33194Q169.10046,190.95525,167.38477,191.51175Q165.66905,192.06824,163.93285,192.55705Q162.19665,193.04588,160.44262,193.46628Q158.68859,193.88666,156.91943,194.23798Q155.15028,194.58929,153.36871,194.87102Q151.58714,195.15271,149.79590000000002,195.36436Q148.00465,195.57602,146.206497,195.71732Q144.40834,195.8586,142.606018,195.92929Q140.803696,196,139,196Q136.741531,196,134.48577899999998,195.88918Q132.230019,195.77837,129.98242199999999,195.55701Q127.734818,195.33563,125.500793,195.00424Q123.266769,194.67285,121.051689,194.23224Q118.836609,193.79163,116.645821,193.24286Q114.455032,192.69411,112.293808,192.03851Q110.13258400000001,191.3829,108.00613,190.62206Q105.879681,189.86121,103.793121,188.99692Q101.70656600000001,188.13263,99.664925,187.16702Q97.623291,186.20139,95.6315,185.13675Q93.639702,184.07211,91.702545,182.91103Q89.765388,181.74994,87.887535,180.49519Q86.009682,179.24045,84.19566,177.89508Q82.38163800000001,176.54971,80.635818,175.11696Q78.889994,173.68419,77.21657400000001,172.16748Q75.543156,170.65079,73.946175,169.0538Q72.349194,167.45682,70.832495,165.7834Q69.315798,164.10999,67.883038,162.36417Q66.450277,160.61835,65.104906,158.80432Q63.759535,156.9903,62.504793,155.11246Q61.250053,153.2346,60.088966,151.29745Q58.927879000000004,149.36029,57.863243,147.3685Q56.798605,145.37671,55.832983999999996,143.33507Q54.867362,141.29343,54.003081800000004,139.20686Q53.1388016,137.1203,52.3779454,134.99385Q51.6170888,132.8674,50.9614887,130.70618000000002Q50.3058887,128.54496,49.7571242,126.35417Q49.2083602,124.16338,48.7677538,121.9483Q48.3271477,119.73322,47.99576092,117.4992Q47.66437411,115.26517,47.44300508,113.01758Q47.22163603,110.769974,47.11081801,108.514229Q47,106.258469,47,104Q47,101.741531,47.11081801,99.485779Q47.22163603,97.230019,47.44300508,94.982422Q47.66437411,92.734818,47.99576092,90.500793Q48.3271477,88.266769,48.7677538,86.051689Q49.2083602,83.836609,49.7571242,81.645821Q50.3058887,79.455032,50.9614887,77.293808Q51.6170888,75.13258400000001,52.3779449,73.00613Q53.1388016,70.879681,54.003081800000004,68.793121Q54.867362,66.70656600000001,55.832983,64.664925Q56.798605,62.623291,57.863242,60.6315Q58.927879000000004,58.639702,60.088966,56.702545Q61.250053,54.765388,62.504793,52.887535Q63.759535,51.009682,65.104906,49.19566Q66.450277,47.381638,67.883038,45.635818Q69.315798,43.889994,70.832495,42.216574Q72.349194,40.543155999999996,73.946175,38.946175Q75.543156,37.349194,77.216576,35.832495Q78.889994,34.315798,80.635818,32.883038Q82.38163800000001,31.450277,84.19566,30.104906Q86.009682,28.759535,87.887535,27.504793Q89.765388,26.250053,91.702545,25.088966Q93.639702,23.927879,95.6315,22.863243Q97.623291,21.798605000000002,99.664928,20.832984Q101.70656199999999,19.867362,103.79311799999999,19.0030818Q105.879677,18.1388016,108.006126,17.3779454Q110.13257999999999,16.6170888,112.293808,15.9614887Q114.455032,15.3058887,116.645821,14.7571242Q118.836609,14.2083602,121.051689,13.7677538Q123.266769,13.3271477,125.500793,12.99576092Q127.734825,12.66437411,129.98243,12.44300508Q132.230026,12.22163603,134.48577899999998,12.11081801Q136.741531,12,139,12ZM191,177.45811L191,30.541885Q167.68271,14,139,14Q121.833084,14,105.871479,20.3190527Q88.540581,27.180197,75.360388,40.360388Q62.1802,53.540577,55.3190527,70.871479Q49,86.833084,49,104Q49,121.16692,55.3190527,137.12851999999998Q62.180199,154.45943,75.360388,167.63962Q88.540577,180.81981,105.871479,187.68095Q121.833061,194,139,194Q167.68272000000002,194,191,177.45811Z" fill-rule="evenodd" fill="url(#master_svg5_56_1452)" fill-opacity="1"/></g><g style="opacity:0.6000000238418579;"><path d="M27,238.64961Q30.9924099,239,35,239Q37.258472,239,39.514224999999996,238.88858Q41.769978,238.77716,44.017576,238.55461Q46.265173000000004,238.33203,48.499201,237.99884Q50.733231,237.66563,52.948307,237.22263Q55.163382999999996,236.77963,57.354172,236.22787Q59.54496,235.67615,61.706184,235.01698Q63.867409,234.35782,65.99386200000001,233.59282Q68.120316,232.82782,70.206871,231.95885Q72.29342700000001,231.08987,74.33506,230.119Q76.376698,229.14813,78.368496,228.07773Q80.36029099999999,227.00729,82.297447,225.83989Q84.23460399999999,224.67249,86.112453,223.41093Q87.990307,222.14937,89.804333,220.79669Q91.618355,219.44402,93.364182,218.00348Q95.110001,216.56293,96.783417,215.03796Q98.456833,213.51303,100.053818,211.90736Q101.650803,210.3017,103.167496,208.61919Q104.684196,206.93668,106.116959,205.18138Q107.549713,203.42606,108.895088,201.60217Q110.240456,199.77829,111.495193,197.89023Q112.749939,196.00217,113.911018,194.05449Q115.072105,192.10681,116.136742,190.10419Q117.201378,188.10156,118.167,186.04883Q119.132622,183.99609,119.996902,181.8982Q120.861183,179.80031,121.62204,177.66230000000002Q122.382904,175.52429,123.038506,173.35133000000002Q123.694107,171.17836,124.242867,168.97565Q124.791626,166.77296,125.232239,164.54585Q125.672844,162.31873000000002,126.004227,160.07256999999998Q126.335617,157.8264,126.556992,155.56659000000002Q126.778358,153.30677,126.889175,151.038757Q127,148.77074399999998,127,146.5Q127,144.22924799999998,126.889175,141.961243Q126.778358,139.693237,126.556992,137.433426Q126.335617,135.173607,126.004227,132.92742900000002Q125.672836,130.681259,125.232231,128.45414Q124.791626,126.22702,124.242859,124.02433Q123.694107,121.821632,123.038506,119.648666Q122.382904,117.475693,121.622047,115.337685Q120.861183,113.19967700000001,119.996902,111.101776Q119.132622,109.00388000000001,118.167,106.951149Q117.201385,104.898422,116.136749,102.895802Q115.072113,100.893181,113.911018,98.945492Q112.749939,96.997807,111.495193,95.109749Q110.240456,93.22169099999999,108.895088,91.397812Q107.549713,89.57392899999999,106.116959,87.818619Q104.684196,86.063305,103.167496,84.380795Q101.650803,82.69828,100.053818,81.09262100000001Q98.456833,79.48696100000001,96.783417,77.962021Q95.110001,76.43708000000001,93.364182,74.996534Q91.618355,73.555986,89.804329,72.20330200000001Q87.99031099999999,70.850618,86.112457,69.589059Q84.23460399999999,68.327499,82.297451,67.160102Q80.36029400000001,65.992704,78.3685,64.922282Q76.376701,63.8518591,74.335064,62.8809891Q72.29342700000001,61.9101191,70.206871,61.041142Q68.120316,60.1721649,65.99386200000001,59.4071732Q63.867409,58.6421814,61.706184,57.9830184Q59.54496,57.3238549,57.354172,56.7721083Q55.163382999999996,56.2203619,52.948307,55.7773612Q50.733231,55.3343604,48.499203,55.0011725Q46.265173000000004,54.66798484,44.017576,54.4454127Q41.769978,54.22284055,39.514224999999996,54.11142027Q37.258472,54,35,54Q30.9924099,54.000000000000014,26.999999999999986,54.35038006L27,238.64961Z" fill-rule="evenodd" fill="url(#master_svg6_56_4944)" fill-opacity="1"/><path d="M35,239Q30.9924099,239,27,238.64961L27,54.35038006Q30.9924099,54,35,54Q37.258472,54,39.514224999999996,54.11142027Q41.769978,54.22284055,44.017576,54.4454127Q46.265173000000004,54.66798484,48.499201,55.0011727Q50.733231,55.3343604,52.948307,55.7773612Q55.163382999999996,56.2203619,57.354172,56.7721086Q59.54496,57.3238549,61.706184,57.9830184Q63.867409,58.6421814,65.99386200000001,59.4071732Q68.120316,60.1721649,70.206871,61.041142Q72.29342700000001,61.9101191,74.33506,62.8809891Q76.376698,63.8518591,78.368496,64.922282Q80.36029099999999,65.992704,82.297447,67.160102Q84.23460399999999,68.327499,86.112453,69.589059Q87.990307,70.850618,89.804333,72.20330200000001Q91.618355,73.555984,93.364182,74.996532Q95.110001,76.43708000000001,96.783417,77.962021Q98.456833,79.48696100000001,100.053818,81.09262100000001Q101.650803,82.69828,103.167496,84.380793Q104.684196,86.063305,106.116959,87.818619Q107.549713,89.57392899999999,108.895088,91.397812Q110.240456,93.22169099999999,111.495193,95.109749Q112.749939,96.997807,113.911018,98.945492Q115.072105,100.89317700000001,116.136742,102.895798Q117.201378,104.89841799999999,118.167,106.951149Q119.132622,109.00388000000001,119.996902,111.101776Q120.861183,113.19967700000001,121.62204,115.337685Q122.382904,117.475693,123.038506,119.648666Q123.694107,121.821632,124.242867,124.024323Q124.791626,126.22702,125.232239,128.45414Q125.672844,130.681259,126.004227,132.92742900000002Q126.335617,135.173599,126.556992,137.43341800000002Q126.778358,139.69323,126.889175,141.961243Q127,144.22924799999998,127,146.5Q127,148.77074399999998,126.889175,151.038757Q126.778358,153.30677,126.556992,155.56659000000002Q126.335617,157.8264,126.004227,160.07256Q125.672836,162.31873000000002,125.232231,164.54585Q124.791626,166.77296,124.242859,168.97565Q123.694107,171.17836,123.038506,173.35133000000002Q122.382904,175.52429999999998,121.622047,177.66231Q120.861183,179.80031,119.996902,181.89821Q119.132622,183.99609,118.167,186.04883Q117.201385,188.10156,116.136749,190.10419Q115.072113,192.10681,113.911018,194.05449Q112.749939,196.00217,111.495193,197.89023Q110.240456,199.77829,108.895088,201.60217Q107.549713,203.42606,106.116959,205.18137Q104.684196,206.93668,103.167496,208.61919Q101.650803,210.3017,100.053818,211.90736Q98.456833,213.51303,96.783417,215.03796Q95.110001,216.56291,93.364182,218.00346Q91.618355,219.444,89.804329,220.79669Q87.99031099999999,222.14935,86.112457,223.41092Q84.23460399999999,224.67249,82.297451,225.83987Q80.36029400000001,227.00728,78.3685,228.0777Q76.376701,229.14813,74.335064,230.11899Q72.29342700000001,231.08986,70.206871,231.95883Q68.120316,232.82782,65.99386200000001,233.5928Q63.867409,234.35782,61.706184,235.01698Q59.54496,235.67613,57.354172,236.22787Q55.163382999999996,236.77962,52.948307,237.22263Q50.733231,237.66563,48.499203,237.99881Q46.265173000000004,238.33202,44.017576,238.5546Q41.769978,238.77716,39.514224999999996,238.88858Q37.258472,239,35,239ZM29,56.2013144Q31.9956422,56,35,56Q52.164992999999996,56,68.125069,62.352787Q85.45542499999999,69.251004,98.635788,82.502998Q111.81739,95.75623300000001,118.679581,113.183987Q125,129.23580900000002,125,146.5Q125,163.76421,118.679581,179.81601999999998Q111.81739,197.24377,98.635788,210.49701Q85.45540600000001,223.74902,68.125069,230.64723Q52.165043,237,35,237Q31.9957356,237,29,236.79868L29,56.2013144Z" fill-rule="evenodd" fill="url(#master_svg7_56_1452)" fill-opacity="1"/></g><g style="opacity:0.6000000238418579;"><path d="M26.99999999999998,334.83745999999996Q34.2039027,336,41.5,336Q43.746199000000004,336,45.989693,335.88918Q48.233185,335.77837,50.468569,335.55701Q52.703951,335.33563000000004,54.925837,335.00424Q57.147722,334.67285000000004,59.350761,334.23224Q61.553802,333.79163,63.732685,333.24286Q65.911568,332.69411,68.061047,332.03851Q70.210522,331.3829,72.325417,330.62206000000003Q74.44031100000001,329.86121,76.51553,328.99692Q78.59074799999999,328.13263,80.62128799999999,327.16702Q82.65182899999999,326.20139,84.632801,325.13675Q86.61377,324.07211,88.54039800000001,322.91103Q90.467026,321.74994000000004,92.334671,320.49519Q94.202316,319.24045,96.006485,317.89508Q97.810654,316.54971,99.546989,315.11696Q101.283325,313.68419,102.947647,312.16748Q104.611969,310.65079000000003,106.200264,309.0538Q107.788574,307.45682,109.297028,305.78340000000003Q110.805481,304.10999000000004,112.230453,302.36417Q113.655426,300.61834999999996,114.993484,298.80431999999996Q116.331543,296.9903,117.579468,295.11246Q118.827385,293.2346,119.982162,291.29745Q121.13694,289.36028999999996,122.195793,287.36850000000004Q123.254639,285.37671,124.215012,283.33507Q125.175385,281.29343,126.034966,279.20686Q126.894547,277.1203,127.65128,274.99385Q128.40798999999998,272.8674,129.06004000000001,270.70618Q129.71206999999998,268.54496,130.25785000000002,266.35417Q130.80363,264.16338,131.24184,261.9483Q131.68005,259.73322,132.00964,257.4992Q132.33923,255.26517,132.55939999999998,253.01758Q132.77957,250.769974,132.88978,248.514229Q133,246.258469,133,244Q133,241.741531,132.88978,239.48577899999998Q132.77957,237.230019,132.55939999999998,234.98242199999999Q132.33923,232.73481800000002,132.00964,230.500793Q131.68005,228.266769,131.24184,226.051689Q130.80363,223.836609,130.25784,221.645821Q129.71206999999998,219.45503200000002,129.06004000000001,217.293808Q128.40800000000002,215.132584,127.65128,213.00612999999998Q126.894554,210.879681,126.034973,208.79312099999999Q125.175385,206.706566,124.215019,204.66492499999998Q123.254646,202.623291,122.195801,200.63150000000002Q121.136948,198.639702,119.982162,196.702545Q118.827385,194.765388,117.579468,192.887535Q116.331543,191.009682,114.993484,189.19566Q113.655426,187.381638,112.230453,185.635818Q110.805481,183.889994,109.297028,182.216574Q107.788574,180.543156,106.200264,178.946175Q104.611969,177.349194,102.947647,175.832495Q101.283325,174.315798,99.546989,172.883038Q97.810654,171.450277,96.006485,170.104906Q94.202316,168.759535,92.334671,167.504793Q90.467026,166.250053,88.54039399999999,165.088966Q86.61377,163.927879,84.632797,162.863243Q82.651825,161.798605,80.621284,160.832984Q78.590744,159.867362,76.515526,159.0030818Q74.440308,158.1388016,72.325417,157.3779454Q70.21051800000001,156.6170888,68.061043,155.9614887Q65.911568,155.3058887,63.732681,154.7571242Q61.553802,154.2083602,59.350761,153.7677538Q57.147722,153.3271477,54.925837,152.99576092Q52.703951,152.66437411,50.468569,152.44300508Q48.233185,152.22163603,45.989693,152.11081801Q43.746199000000004,152,41.5,152Q34.2039027,152,26.99999999999997,153.1625303L27,334.83745999999996L26.99999999999998,334.83745999999996Z" fill-rule="evenodd" fill="url(#master_svg8_56_4944)" fill-opacity="1"/><path d="M41.5,336Q34.2039027,336,27,334.83745999999996L27,153.1625303Q34.2039027,152,41.5,152Q43.746199000000004,152,45.989693,152.11081801Q48.233185,152.22163603,50.468569,152.44300508Q52.703951,152.66437411,54.925837,152.99576092Q57.147722,153.3271477,59.350761,153.7677538Q61.553802,154.2083602,63.732685,154.7571242Q65.911568,155.3058887,68.061047,155.9614887Q70.210522,156.6170888,72.325417,157.3779449Q74.44031100000001,158.1388016,76.51553,159.0030818Q78.59074799999999,159.867362,80.62128799999999,160.832983Q82.65182899999999,161.798605,84.632801,162.863242Q86.61377,163.927879,88.54039800000001,165.088966Q90.467026,166.250053,92.334671,167.504793Q94.202316,168.759535,96.006485,170.104906Q97.810654,171.450277,99.546989,172.883038Q101.283325,174.315798,102.947647,175.832495Q104.611969,177.349194,106.200264,178.946175Q107.788574,180.543156,109.297028,182.216576Q110.805481,183.889994,112.230453,185.635818Q113.655426,187.381638,114.993484,189.19566Q116.331543,191.009682,117.579468,192.887535Q118.827385,194.765388,119.982162,196.702545Q121.13694,198.639702,122.195793,200.63150000000002Q123.254639,202.623291,124.215012,204.664928Q125.175385,206.706562,126.034966,208.793118Q126.894547,210.87967700000002,127.65128,213.006126Q128.40798999999998,215.13258,129.06004000000001,217.293808Q129.71206999999998,219.45503200000002,130.25785000000002,221.645821Q130.80363,223.836609,131.24184,226.051689Q131.68005,228.266769,132.00964,230.500793Q132.33923,232.734825,132.55939999999998,234.98243Q132.77957,237.230026,132.88978,239.48577899999998Q133,241.741531,133,244Q133,246.258469,132.88978,248.51422100000002Q132.77957,250.769974,132.55939999999998,253.01757Q132.33923,255.26517,132.00964,257.4992Q131.68005,259.73322,131.24184,261.9483Q130.80363,264.16338,130.25784,266.35417Q129.71206999999998,268.54497000000003,129.06004000000001,270.70619Q128.40800000000002,272.86741,127.65128,274.99385Q126.894554,277.1203,126.034973,279.20686Q125.175385,281.29343,124.215019,283.33505Q123.254646,285.37671,122.195801,287.36850000000004Q121.136948,289.36028999999996,119.982162,291.29745Q118.827385,293.2346,117.579468,295.11246Q116.331543,296.9903,114.993484,298.80431999999996Q113.655426,300.61834999999996,112.230453,302.36418000000003Q110.805481,304.11,109.297028,305.78342Q107.788574,307.45682999999997,106.200264,309.05382Q104.611969,310.65079000000003,102.947647,312.1675Q101.283325,313.68420000000003,99.546989,315.11696Q97.810654,316.54971,96.006485,317.8951Q94.202316,319.24046,92.334671,320.49521Q90.467026,321.74994000000004,88.54039399999999,322.91104Q86.61377,324.07214,84.632797,325.13678Q82.651825,326.20142,80.621284,327.16704Q78.590744,328.13264000000004,76.515526,328.99692Q74.440308,329.86121,72.325417,330.62206000000003Q70.21051800000001,331.38292,68.061043,332.03853000000004Q65.911568,332.69412,63.732681,333.24289Q61.553802,333.79166,59.350761,334.23225Q57.147722,334.67287,54.925837,335.00424Q52.703951,335.33563000000004,50.468569,335.55701Q48.233185,335.77837,45.989693,335.88919Q43.746199000000004,336,41.5,336ZM29,154.8820245Q35.2150345,154,41.5,154Q58.569607000000005,154,74.44099800000001,160.3176737Q91.675064,167.177766,104.782204,180.356529Q117.890625,193.536583,124.714691,210.868015Q131,226.831139,131,244Q131,261.16885,124.714684,277.13199Q117.89061,294.46344,104.782204,307.64348Q91.675072,320.82223999999997,74.441006,327.68233Q58.569618,334,41.5,334Q35.215066,334,29,333.11797L29,154.8820245Z" fill-rule="evenodd" fill="url(#master_svg9_56_1452)" fill-opacity="1"/></g><g style="opacity:0.6000000238418579;"><path d="M193,193.14647300000001Q190.57396,191.9016438,188.07846,190.8026834Q185.58294999999998,189.703723,183.02674000000002,188.7544889Q180.47054,187.8052554,177.86259,187.0090809Q175.25464,186.2129068,172.60412,185.5725868Q169.9536,184.932267,167.26981,184.4500498Q164.58601,183.96783245,161.87837000000002,183.6454106Q159.17073,183.32298878,156.448746,183.16149439Q153.726768,183,151,183Q148.741531,183,146.48577899999998,183.11081801Q144.230019,183.22163603,141.98242199999999,183.44300508Q139.73481800000002,183.66437411,137.500793,183.99576092Q135.266769,184.3271477,133.051689,184.7677538Q130.836609,185.2083602,128.645821,185.7571242Q126.455032,186.3058887,124.293808,186.9614887Q122.13258400000001,187.6170888,120.00613,188.3779449Q117.879681,189.1388016,115.793121,190.0030818Q113.70656600000001,190.867362,111.664925,191.832983Q109.623291,192.798605,107.6315,193.863242Q105.639702,194.927879,103.702545,196.088966Q101.765388,197.250053,99.887535,198.504793Q98.009682,199.759535,96.19566,201.104906Q94.38163800000001,202.450277,92.635818,203.883038Q90.889994,205.315798,89.21657400000001,206.832495Q87.543156,208.349194,85.946175,209.946175Q84.349194,211.543156,82.832495,213.216576Q81.315798,214.889994,79.883038,216.635818Q78.450277,218.381638,77.104906,220.19566Q75.759535,222.009682,74.504793,223.887535Q73.250053,225.765388,72.088966,227.702545Q70.927879,229.639702,69.863243,231.63150000000002Q68.798605,233.623291,67.832984,235.664928Q66.867362,237.706562,66.0030818,239.793118Q65.1388016,241.87967700000002,64.3779454,244.006126Q63.6170888,246.13258,62.9614887,248.293808Q62.3058887,250.45503200000002,61.7571242,252.645821Q61.2083602,254.836609,60.7677538,257.051689Q60.3271477,259.266769,59.99576092,261.500793Q59.66437411,263.734825,59.44300508,265.98243Q59.22163603,268.230026,59.11081801,270.485779Q59,272.741531,59,275Q59,277.258469,59.11081801,279.514221Q59.22163603,281.769974,59.44300508,284.01757Q59.66437411,286.26517,59.99576092,288.4992Q60.3271477,290.73322,60.7677538,292.9483Q61.2083602,295.16338,61.7571242,297.35417Q62.3058887,299.54497000000003,62.9614887,301.70619Q63.6170888,303.86741,64.3779449,305.99385Q65.1388016,308.1203,66.0030818,310.20686Q66.867362,312.29343,67.832983,314.33505Q68.798605,316.37671,69.863242,318.36850000000004Q70.927879,320.36028999999996,72.088966,322.29745Q73.250053,324.2346,74.504793,326.11246Q75.759535,327.9903,77.104906,329.80431999999996Q78.450277,331.61834999999996,79.883038,333.36418000000003Q81.315798,335.11,82.832495,336.78342Q84.349194,338.45682999999997,85.946175,340.05382Q87.543156,341.65079000000003,89.216576,343.1675Q90.889994,344.68420000000003,92.635818,346.11696Q94.38163800000001,347.54971,96.19566,348.8951Q98.009682,350.24046,99.887535,351.49521Q101.765388,352.74994000000004,103.702545,353.91104Q105.639702,355.07214,107.6315,356.13678Q109.623291,357.20142,111.664928,358.16704Q113.70656199999999,359.13264000000004,115.79311799999999,359.99692Q117.879677,360.86121,120.006126,361.62206000000003Q122.13257999999999,362.38292,124.293808,363.03853000000004Q126.455032,363.69412,128.645821,364.24289Q130.836609,364.79166,133.051689,365.23225Q135.266769,365.67287,137.500793,366.00424Q139.734825,366.33563000000004,141.98243,366.55701Q144.230026,366.77837,146.48577899999998,366.88919Q148.741531,367,151,367Q153.726768,367,156.448753,366.8385Q159.17073,366.677,161.87837000000002,366.35458Q164.58601,366.03217,167.26981,365.54996Q169.9536,365.06773,172.60412,364.42741Q175.25464,363.78709000000003,177.86257999999998,362.99091999999996Q180.47054,362.19475,183.02674000000002,361.24550999999997Q185.58294999999998,360.29628,188.07846,359.19732999999997Q190.57396,358.09836,193,356.85353L193,193.14647300000001Z" fill-rule="evenodd" fill="url(#master_svga_56_4944)" fill-opacity="1"/><path d="M151,183Q153.726768,183,156.448753,183.16149439Q159.17073,183.32298878,161.87837000000002,183.6454106Q164.58601,183.96783245,167.26981,184.4500496Q169.9536,184.932267,172.60412,185.5725868Q175.25464,186.2129068,177.86257999999998,187.0090809Q180.47054,187.8052554,183.02674000000002,188.7544889Q185.58294999999998,189.703723,188.07846,190.8026834Q190.57396,191.9016438,193,193.14647300000001L193,356.85353Q190.57396,358.09836,188.07846,359.19732999999997Q185.58294999999998,360.29628,183.02674000000002,361.24550999999997Q180.47054,362.19475,177.86259,362.99091999999996Q175.25464,363.78709000000003,172.60412,364.42741Q169.9536,365.06773,167.26981,365.54996Q164.58601,366.03217,161.87837000000002,366.35458Q159.17073,366.677,156.448746,366.8385Q153.726768,367,151,367Q148.741531,367,146.48577899999998,366.88918Q144.230019,366.77837,141.98242199999999,366.55701Q139.73481800000002,366.33563000000004,137.500793,366.00424Q135.266769,365.67285000000004,133.051689,365.23224Q130.836609,364.79163,128.645821,364.24286Q126.455032,363.69411,124.293808,363.03851Q122.13258400000001,362.3829,120.00613,361.62206000000003Q117.879681,360.86121,115.793121,359.99692Q113.70656600000001,359.13263,111.664925,358.16702Q109.623291,357.20139,107.6315,356.13675Q105.639702,355.07211,103.702545,353.91103Q101.765388,352.74994000000004,99.887535,351.49519Q98.009682,350.24045,96.19566,348.89508Q94.38163800000001,347.54971,92.635818,346.11696Q90.889994,344.68419,89.21657400000001,343.16748Q87.543156,341.65079000000003,85.946175,340.0538Q84.349194,338.45682,82.832495,336.78340000000003Q81.315798,335.10999000000004,79.883038,333.36417Q78.450277,331.61834999999996,77.104906,329.80431999999996Q75.759535,327.9903,74.504793,326.11246Q73.250053,324.2346,72.088966,322.29745Q70.927879,320.36028999999996,69.863243,318.36850000000004Q68.798605,316.37671,67.832984,314.33507Q66.867362,312.29343,66.0030818,310.20686Q65.1388016,308.1203,64.3779454,305.99385Q63.6170888,303.8674,62.9614887,301.70618Q62.3058887,299.54496,61.7571242,297.35417Q61.2083602,295.16338,60.7677538,292.9483Q60.3271477,290.73322,59.99576092,288.4992Q59.66437411,286.26517,59.44300508,284.01758Q59.22163603,281.769974,59.11081801,279.514229Q59,277.258469,59,275Q59,272.741531,59.11081801,270.485779Q59.22163603,268.23001899999997,59.44300508,265.982422Q59.66437411,263.734818,59.99576092,261.500793Q60.3271477,259.266769,60.7677538,257.051689Q61.2083602,254.836609,61.7571242,252.645821Q62.3058887,250.45503200000002,62.9614887,248.293808Q63.6170888,246.132584,64.3779449,244.00612999999998Q65.1388016,241.879681,66.0030818,239.79312099999999Q66.867362,237.706566,67.832983,235.66492499999998Q68.798605,233.623291,69.863242,231.63150000000002Q70.927879,229.639702,72.088966,227.702545Q73.250053,225.765388,74.504793,223.887535Q75.759535,222.009682,77.104906,220.19566Q78.450277,218.381638,79.883038,216.635818Q81.315798,214.889994,82.832495,213.216574Q84.349194,211.543156,85.946175,209.946175Q87.543156,208.349194,89.216576,206.832495Q90.889994,205.315798,92.635818,203.883038Q94.38163800000001,202.450277,96.19566,201.104906Q98.009682,199.759535,99.887535,198.504793Q101.765388,197.250053,103.702545,196.088966Q105.639702,194.927879,107.6315,193.863243Q109.623291,192.798605,111.664928,191.832984Q113.70656199999999,190.867362,115.79311799999999,190.0030818Q117.879677,189.1388016,120.006126,188.3779454Q122.13257999999999,187.6170888,124.293808,186.9614887Q126.455032,186.3058887,128.645821,185.7571242Q130.836609,185.2083602,133.051689,184.7677538Q135.266769,184.3271477,137.500793,183.99576092Q139.734825,183.66437411,141.98243,183.44300508Q144.230026,183.22163603,146.48577899999998,183.11081801Q148.741531,183,151,183ZM191,355.62306L191,194.376941Q172.13266,185,151,185Q133.83308399999999,185,117.871479,191.3190527Q100.540581,198.180197,87.360388,211.360388Q74.1802,224.54057699999998,67.3190527,241.871479Q61,257.833084,61,275Q61,292.16692,67.3190527,308.12852Q74.180199,325.45943,87.360388,338.63962000000004Q100.540577,351.81980999999996,117.871479,358.68095Q133.833061,365,151,365Q172.13265,365,191,355.62306Z" fill-rule="evenodd" fill="url(#master_svgb_56_1452)" fill-opacity="1"/></g><g style="opacity:0.6000000238418579;"><path d="M193,93.54214589165356Q190.910629,93.76936359660156,188.833862,94.09124314660156Q186.757111,94.41312277660157,184.697304,94.82899261660157Q182.637482,95.24486241660156,180.598915,95.75385471660157Q178.560349,96.26284691660156,176.54727200000002,96.86389951660156Q174.534203,97.46495201660156,172.550835,98.15681071660157Q170.567467,98.84867001660156,168.617935,99.62989141660157Q166.668404,100.41111281660156,164.756775,101.28006651660156Q162.845146,102.14902021660156,160.975414,103.10389331660156Q159.105682,104.05876651660157,157.281746,105.09756651660156Q155.457809,106.13636551660156,153.683475,107.25692451660156Q151.909142,108.37748251660156,150.18811399999998,109.57746151660156Q148.467087,110.77744151660156,146.802952,112.05433851660156Q145.13881700000002,113.33123351660156,143.535057,114.68238451660156Q141.93129,116.03353351660157,140.391241,117.45611551660156Q138.851189,118.87869651660156,137.378067,120.36974351660156Q135.904943,121.86079051660155,134.501823,123.41718851660156Q133.098703,124.97358851660157,131.76851299999998,126.59209451660156Q130.438324,128.21060151660157,129.183842,129.88783651660157Q127.92935800000001,131.56507151660156,126.753195,133.29753151660157Q125.577034,135.02999151660157,124.48165,136.81406751660157Q123.386268,138.59814451660156,122.373948,140.43011051660156Q121.361629,142.26207751660155,120.4344845,144.13811451660155Q119.5073404,146.01414451660156,118.6673069,147.93033551660156Q117.8272734,149.84651951660157,117.0761027,151.79886651660155Q116.3249321,153.75120551660157,115.6641917,155.73563051660156Q115.0034518,157.72005451660158,114.4345214,159.73242151660156Q113.8655906,161.74478151660156,113.3896563,163.78088351660156Q112.913722,165.81698651660156,112.5317775,167.87258951660158Q112.1498328,169.92819251660154,111.86267489,171.99899251660156Q111.57551694,174.06979351660158,111.38374472,176.15148151660156Q111.19197249,178.23316951660155,111.095986247,180.32139551660157Q111,182.40960651660157,111,184.50001551660156Q111,186.59041551660158,111.095986247,188.67864251660154Q111.19197249,190.76686051660158,111.38374472,192.84854851660157Q111.57551694,194.93021951660157,111.86267489,197.00102951660156Q112.1498328,199.07181951660158,112.5317775,201.12741951660155Q112.913722,203.18300951660154,113.3896563,205.21912951660158Q113.8655906,207.25522951660156,114.4345214,209.26760951660157Q115.0034518,211.27996951660157,115.6641917,213.26438951660157Q116.3249321,215.24880951660157,117.0761027,217.20114951660156Q117.8272734,219.15348951660155,118.6673069,221.06968951660156Q119.5073414,222.98586951660155,120.4344854,224.86190951660157Q121.361629,226.73794951660156,122.373949,228.56991951660157Q123.386269,230.40186951660155,124.481651,232.18593951660156Q125.577035,233.97001951660155,126.753196,235.70246951660155Q127.92935800000001,237.43494951660156,129.183842,239.11217951660157Q130.438324,240.78940951660155,131.768515,242.40790951660156Q133.098703,244.02640951660157,134.501823,245.58282951660155Q135.904943,247.13921951660157,137.378065,248.63025951660157Q138.851189,250.12131951660157,140.39123899999998,251.54389951660156Q141.931288,252.96647951660157,143.53504900000001,254.31762951660156Q145.13881700000002,255.66877951660157,146.80294800000001,256.94565951660155Q148.467083,258.22256951660154,150.18811399999998,259.4225495166015Q151.909142,260.62252951660156,153.683475,261.7430895166016Q155.457809,262.8636495166015,157.281746,263.90244951660156Q159.105682,264.94123951660157,160.975414,265.8961195166016Q162.845146,266.8509995166016,164.756775,267.7199395166016Q166.668404,268.5888995166016,168.617935,269.37011951660156Q170.567467,270.15134951660156,172.550835,270.84319951660154Q174.534203,271.5350495166016,176.54727200000002,272.13610951660155Q178.560349,272.73716951660157,180.598915,273.2461695166015Q182.637482,273.75515951660157,184.697304,274.1710395166016Q186.757111,274.58689951660153,188.83387,274.90877951660156Q190.910629,275.23066951660155,193,275.45788951660154L193,93.54214589165356ZM281,233.02012951660157Q281.85220000000004,231.66501951660157,282.65628000000004,230.28112951660157Q283.46036000000004,228.89722951660156,284.21533,227.48626951660157Q284.97033999999996,226.07529951660158,285.67532,224.63895951660157Q286.38031,223.20261951660157,287.03441,221.74265951660155Q287.68854,220.28271951660156,288.29098999999997,218.80092951660157Q288.89342999999997,217.31914951660156,289.44348,215.81734951660155Q289.99352999999996,214.31554951660155,290.49051,212.79555951660154Q290.98746,211.27556951660156,291.43074,209.73923951660157Q291.87404000000004,208.20291951660158,292.26311999999996,206.65212951660158Q292.65219,205.10133951660157,292.98657000000003,203.53797951660158Q293.32095000000004,201.97462951660157,293.60022000000004,200.40059951660157Q293.87949000000003,198.82659951660156,294.10332,197.24383951660155Q294.32714999999996,195.66107951660155,294.49527,194.07150951660157Q294.66339,192.48194851660156,294.77556000000004,190.88751251660156Q294.88775999999996,189.29307551660156,294.94388000000004,187.69572451660156Q295,186.09835851660156,295,184.50001551660156Q295,182.90167951660158,294.94388000000004,181.30432151660156Q294.88775999999996,179.70695451660157,294.77554,178.11251851660157Q294.66336,176.51808151660157,294.49525,174.92851251660156Q294.32714999999996,173.33894351660155,294.1033,171.75618751660156Q293.87949000000003,170.17343151660157,293.60022000000004,168.59941851660156Q293.32095000000004,167.02539851660157,292.98656,165.46203651660156Q292.65219,163.89868151660156,292.26311999999996,162.34789251660158Q291.87405,160.79710351660157,291.43075999999996,159.26077251660155Q290.98749,157.72444951660157,290.49051,156.20445251660158Q289.99352999999996,154.68446351660157,289.44348,153.18265951660157Q288.89342999999997,151.68085851660157,288.29098999999997,150.19907751660156Q287.68854,148.71730051660157,287.03442,147.25735451660157Q286.38031,145.79740551660157,285.67532,144.36106851660156Q284.97033999999996,142.92473251660158,284.21535,141.51375951660157Q283.46036000000004,140.10279051660157,282.65628000000004,138.71890651660158Q281.85220000000004,137.33502151660156,281,135.97990751660157L281,233.02012951660157Z" fill-rule="evenodd" fill="url(#master_svgc_56_4944)" fill-opacity="1"/><path d="M191,93.78170971660157Q191.99867999999998,93.65103854660157,193,93.54214589165356L193,275.45788951660154Q191.99867999999998,275.34899951660157,191,275.2183195166016Q188.94735,274.94973951660154,186.908928,274.58959951660154Q184.87051400000001,274.22945951660154,182.850449,273.77848951660155Q180.830376,273.32751951660157,178.83274799999998,272.7866195166016Q176.835129,272.2457395166016,174.863991,271.61602951660154Q172.892853,270.98629951660155,170.95219,270.26902951660156Q169.011528,269.5517395166016,167.105274,268.74836951660154Q165.19902,267.9449895166016,163.33103599999998,267.0571595166016Q161.463051,266.1693295166016,159.637115,265.19880951660156Q157.811172,264.2282695166016,156.030979,263.1770495166015Q154.250786,262.1258095166015,152.519943,260.99599951660156Q150.789097,259.86619951660157,149.111107,258.66007951660157Q147.433117,257.4539995166016,145.811382,256.17403951660157Q144.18964,254.89405951660157,142.627434,253.54284951660156Q141.065229,252.19163951660155,139.565723,250.77189951660156Q138.066216,249.35215951660157,136.632444,247.86675951660158Q135.198671,246.38135951660155,133.833536,244.83333951660157Q132.468395,243.28528951660155,131.17466,241.67774951660155Q129.88092,240.07020951660155,128.661205,238.40639951660157Q127.441486,236.74259951660156,126.298258,235.02588951660155Q125.155029,233.30921951660156,124.090604,231.54313951660157Q123.02617599999999,229.77701951660157,122.04271,227.96509951660155Q121.059242,226.15314951660156,120.1587257,224.29906951660155Q119.2582083,222.44495951660156,118.4424648,220.55246951660155Q117.6267214,218.65995951660156,116.8974023,216.73287951660154Q116.1680822,214.80578951660158,115.5266633,212.84800951660156Q114.8852446,210.89023951660158,114.3330262,208.90574951660156Q113.780807,206.92126951660157,113.3189061,204.91408951660156Q112.8570051,202.90690951660156,112.4863573,200.88109951660158Q112.1157092,198.85528951660154,111.8370645,196.81492951660158Q111.55841982,194.77457951660156,111.37234277,192.72383151660156Q111.18626566,190.67308051660154,111.093132831,188.61608151660158Q111,186.55908251660156,111,184.50001551660156Q111,182.44091751660156,111.093132831,180.38391851660157Q111.18626566,178.32691951660155,111.37234277,176.27618451660157Q111.55841982,174.22543351660158,111.8370645,172.18508151660154Q112.1157092,170.14474451660158,112.4863573,168.11893451660154Q112.8570051,166.09310951660154,113.3189061,164.08592951660157Q113.780807,162.07875051660156,114.3330259,160.09427651660155Q114.8852444,158.10978651660156,115.5266633,156.15201951660157Q116.1680822,154.19424851660156,116.8974023,152.26716251660156Q117.6267214,150.34006851660155,118.4424648,148.44755551660157Q119.2582083,146.55504651660158,120.1587257,144.70095051660155Q121.059242,142.84685151660156,122.042709,141.03492351660157Q123.02617599999999,139.22299151660155,124.090604,137.45690151660156Q125.155029,135.69080351660156,126.298258,133.97411351660156Q127.441486,132.25742751660155,128.661205,130.59362751660157Q129.88092,128.92982851660156,131.17466,127.32228051660155Q132.468395,125.71473651660156,133.833536,124.16670451660156Q135.198671,122.61866551660157,136.632444,121.13327251660156Q138.066217,119.64787651660157,139.565725,118.22813651660157Q141.065231,116.80839151660156,142.627436,115.45717451660155Q144.18964,114.10595751660156,145.811382,112.82600251660156Q147.433117,111.54604351660157,149.111107,110.33993951660156Q150.789097,109.13383351660156,152.519943,108.00402351660156Q154.250786,106.87421251660156,156.030979,105.82298451660157Q157.811172,104.77175551660156,159.637115,103.80123851660156Q161.463051,102.83071901660156,163.33103599999998,101.94287491660157Q165.19902,101.05503031660156,167.105274,100.25165941660157Q169.011528,99.44828791660156,170.95219,98.73101521660156Q172.892853,98.01374341660156,174.863991,97.38402271660156Q176.835129,96.75430151660156,178.83274799999998,96.21340631660156Q180.83036800000002,95.67251161660157,182.850441,95.22153781660157Q184.870506,94.77056411660156,186.908928,94.41042482660156Q188.94735,94.05028551660156,191,93.78170971660157ZM191,95.79579041660156Q158.230179,100.08360101660156,135.987291,124.75636451660156Q112.9999981,150.25484851660156,113,184.50001551660156Q113,218.74517951660158,135.987291,244.24364951660155Q158.230202,268.91642951660157,191,273.20423951660155L191,95.79579041660156ZM283,229.68436951660155Q282.0356,231.37336951660157,281,233.02012951660157L281,135.97990751660157Q282.0356,137.62667051660156,283,139.31565451660157Q284.46703,141.88488751660157,285.76431,144.54290051660155Q287.06163000000004,147.20091251660156,288.18381,149.93662251660157Q289.30600000000004,152.67234051660157,290.24838,155.47435751660157Q291.19077,158.27638251660156,291.94943,161.13302651660155Q292.7081,163.98966951660157,293.27988,166.88904551660156Q293.85165,169.78842151660155,294.23416,172.71844451660155Q294.61668,175.64846851660155,294.80835,178.59693951660157Q295,181.54539451660156,295,184.50001551660156Q295,187.45463551660157,294.80835,190.40309951660157Q294.61668,193.35156251660158,294.23416,196.28157951660157Q293.85165,199.21160951660156,293.27988,202.11098951660156Q292.7081,205.01036951660154,291.94943,207.86700951660157Q291.19077,210.72365951660157,290.24838,213.52567951660154Q289.30600000000004,216.32769951660157,288.18381,219.06339951660158Q287.06163000000004,221.79911951660156,285.76431,224.45713951660156Q284.46703,227.11513951660157,283,229.68436951660155ZM283,225.53979951660156Q293,206.44664951660155,293,184.50001551660156Q293,162.55339051660155,283,143.46024351660157L283,225.53979951660156Z" fill-rule="evenodd" fill="url(#master_svgd_56_1452)" fill-opacity="1"/></g><g style="opacity:0.800000011920929;"><path d="M124.99890127441407,141.99993419647188Q127.96679327441407,167.3738614824219,119.33276727441407,179.99326348242187C131.66209027441406,172.47077148242187,145.92823827441407,174.50132748242189,158.39140327441407,180.53460648242188Q134.45708827441405,192.64497348242188,119.31226727441407,187.90111948242188C132.27450527441405,195.90504048242187,136.60216127441407,210.24710848242188,136.21469527441405,224.59206348242188Q113.76681927441406,206.4934994824219,113.24948927441406,189.64338348242188C107.47013827441407,204.47657748242187,93.53114127441407,211.14315048242187,78.87097737441407,212.87258948242186Q91.93082827441407,190.79151148242187,106.51122327441406,186.03070848242186C91.94953927441406,184.45523448242187,81.87198357441406,173.94659848242188,75.76370286941406,161.37240048242188Q102.78734827441406,166.83149148242188,111.49529227441406,180.52143048242186C107.56808827441407,165.53230048242187,114.56195827441405,152.07932348242187,124.99890127441407,141.99993419647188Z" fill-rule="evenodd" fill="url(#master_svge_56_5068)" fill-opacity="1"/><path d="M125.49551427441406,141.94184711942188Q128.48515327441407,167.50170748242186,119.74543027441406,180.27560048242188L119.33277127441406,179.99326348242187L119.07234927441407,179.56643648242186Q127.94065827441406,174.15561248242187,138.83598327441405,174.68110248242186Q148.40001727441407,175.14238348242188,158.60926827441406,180.08456848242187L159.51846327441405,180.52469648242186L158.61714127441405,180.98075148242188Q134.50152627441406,193.18285348242188,119.16281127441405,188.37826148242186L119.31226727441407,187.90111948242188L119.57496227441406,187.47568848242187Q128.88240827441405,193.22284748242188,133.23126227441406,203.67665848242189Q137.03298227441405,212.81524648242186,136.71451527441405,224.60556048242188L136.68724027441408,225.61531848242186L135.90087127441407,224.98130848242187Q113.27410927441406,206.7385254824219,112.74972527441406,189.65872948242188L113.24948927441406,189.64338348242188L113.71537827441406,189.82490148242186Q109.57148727441407,200.46054848242187,99.65362127441406,206.5970914824219Q91.01234727441407,211.94375648242186,78.92956517441407,213.36914848242188L77.92638827441407,213.48748748242187L78.44061617441406,212.61805748242188Q91.59643327441407,190.37472148242188,106.35602427441407,185.55540448242186L106.51122327441406,186.03071248242188L106.45744127441407,186.52781248242187Q95.98816727441407,185.39510748242188,87.64111227441407,178.20491048242187Q80.32201197441407,171.90019648242188,75.31396228441406,161.5908774824219L74.87258541441406,160.6822854824219L75.86270874041406,160.88230148242187Q103.09499127441407,166.3835414824219,111.91717927441405,180.25307848242187L111.49529227441406,180.52143048242186L111.01161927441406,180.64815548242188Q108.19327127441406,169.89124648242188,112.39540827441405,159.23609148242187Q116.06411027441406,149.93353268242188,124.65156127441406,141.64027598242188L125.37816627441407,140.93856288242188L125.49551427441406,141.94184711942188ZM124.50228927441407,142.05802127342187L124.99890127441407,141.99993419647188L125.34624527441406,142.35959685242187Q116.91481027441407,150.50217918242188,113.32568027441405,159.60297048242188Q109.24347727441406,169.95402148242187,111.97896927441406,180.39470648242187L112.78922627441406,183.48725548242186L111.07341027441407,180.78978748242187Q102.47970427441406,167.27944548242186,75.66469699841406,161.86250148242186L75.76370286941406,161.37240248242188L76.21344757441406,161.15392648242187Q81.13121227441407,171.2773874824219,88.29376427441406,177.44725048242188Q96.40507327441406,184.43437548242187,106.56500627441406,185.53361148242186L108.87805927441406,185.7838704824219L106.66641827441407,186.5060194824219Q92.26522427441407,191.20830948242187,79.30133887441406,213.12712848242188L78.87097737441407,212.87258948242186L78.81240887441406,212.37603748242188Q90.67485627441407,210.9766384824219,99.12745627441406,205.74670448242188Q108.76107027441407,199.78604148242187,112.78360327441406,189.46186448242187L113.67398827441406,187.17660548242188L113.74925227441406,189.62803648242186Q114.25953627441406,206.24848148242188,136.52852627441405,224.2028194824219L136.21469927441404,224.59206348242188L135.71488227441407,224.57856748242187Q136.02757227441407,213.0019454824219,132.30797527441405,204.0607524824219Q128.08287027441406,193.90443048242187,119.04957227441406,188.32654948242188L115.65867227441407,186.23273848242187L119.46172327441406,187.4239764824219Q134.41265127441406,192.10709748242186,158.16566427441404,180.08846648242186L158.39140327441407,180.53460648242188L158.17354627441406,180.98464948242187Q148.14799527441406,176.13139348242188,138.78780727441406,175.6799434824219Q128.19929127441407,175.1692504824219,119.59319327441406,180.42008948242187L117.60492727441405,181.63319048242187L118.92011227441407,179.71092948242188Q127.44843327441407,167.24601548242188,124.50228927441407,142.05802127342187Z" fill="#FCD2E8" fill-opacity="1"/></g></g><g clip-path="url(#master_svgf_56_2211)"><path d="M173.2,5C188.3,5,200.5,17.2,200.5,32.299999L200.5,349.69998C200.5,364.79999,188.3,376.99997,173.2,376.99997L46.799999,376.99997C31.7,377,19.5,364.79999,19.5,349.70001L19.5,32.299999C19.5,17.2,31.7,5,46.799999,5L173.2,5ZM173.2,4L46.799999,4C31.2,4,18.5,16.7,18.5,32.299999L18.5,349.69998C18.5,365.29999,31.2,378,46.799999,378L173.2,378C188.8,378,201.5,365.29999,201.5,349.70001L201.5,32.299999C201.5,16.7,188.8,4,173.2,4Z" fill="#2A2A2A" fill-opacity="1" style="mix-blend-mode:passthrough"/><path d="M173.2,6C187.7,6,199.5,17.8,199.5,32.299999L199.5,349.69998C199.5,364.19998,187.7,375.99997,173.2,375.99997L46.799999,375.99997C32.3,376,20.5,364.20001,20.5,349.70001L20.5,32.299999C20.5,17.8,32.3,6,46.799999,6L173.2,6ZM173.2,5L46.799999,5C31.7,5,19.5,17.2,19.5,32.299999L19.5,349.69998C19.5,364.79999,31.7,377,46.799999,377L173.2,377C188.3,377,200.5,364.79999,200.5,349.70001L200.5,32.299999C200.5,17.2,188.3,5,173.2,5Z" fill="#494949" fill-opacity="1" style="mix-blend-mode:passthrough"/><path d="M173.2,7C187.2,7,198.5,18.4,198.5,32.299999L198.5,349.69998C198.5,363.69998,187.10001,374.99997,173.2,374.99997L46.799999,374.99997C32.9,375,21.5,363.60001,21.5,349.70001L21.5,32.299999C21.5,18.4,32.9,7,46.799999,7L173.2,7ZM173.2,6L46.799999,6C32.3,6,20.5,17.8,20.5,32.299999L20.5,349.69998C20.5,364.20001,32.3,376,46.799999,376L173.2,376C187.7,376,199.5,364.20001,199.5,349.70001L199.5,32.299999C199.5,17.8,187.7,6,173.2,6Z" fill="#3E3E3E" fill-opacity="1" style="mix-blend-mode:passthrough"/><path d="M173.89999,7L46.1,7C32.5,7,21.5,18,21.5,31.6L21.5,350.5C21.5,364,32.5,375,46.1,375L174,375C187.60001,375,198.60001,364,198.60001,350.39999L198.60001,31.6C198.5,18,187.5,7,173.89999,7ZM192.5,349.39999C192.5,360.69998,183.3,369.89999,171.89999,369.89999L48.1,369.89999C36.700001,369.89999,27.5,360.69998,27.5,349.39999L27.5,32.6C27.5,21.200001,36.700001,12,48.1,12L63.5,12L73.799999,12L147.2,12L152.09999,12L171.89999,12C183.29999,12,192.5,21.200001,192.5,32.5L192.5,349.39999Z" fill="#000000" fill-opacity="1" style="mix-blend-mode:passthrough"/><path d="M77,17.999999C77,22.418278,80.5817223,26,85.000001,26L136,26C140.418278,26,144,22.418278,144,17.999999L144,12L77,12L77,17.999999Z" fill="#000000" fill-opacity="1"/><path d="M74,12Q77,13,77,15L77,12L74,12Z" fill="#000000" fill-opacity="1"/><path d="M147,12Q150,13,150,15L150,12L147,12Z" fill="#000000" fill-opacity="1" transform="matrix(-1,0,0,1,294,0)"/><path d="M121,10L99,10C98.40000153,10,98,9.6000004,98,9C98,8.39999962,98.40000153,8,99,8L121,8C121.599998,8,122,8.39999962,122,9C122,9.6000004,121.599998,10,121,10Z" fill="#212021" fill-opacity="1" style="mix-blend-mode:passthrough"/><ellipse cx="85.5" cy="17.5" rx="2.75" ry="2.75" fill="url(#master_svgg_56_111)" fill-opacity="1" style="mix-blend-mode:passthrough"/><ellipse cx="85.5" cy="17.5" rx="1.75" ry="1.75" fill="#070D1D" fill-opacity="1" style="mix-blend-mode:passthrough"/><path d="M84.59999847,17.499999981469728C84.59999847,16.899999621469725,84.69999695,16.399999621469725,84.90000153,16.100000381469727C84.30000305,16.30000114146973,84,16.899999621469725,84,17.499999981469728C84,18.100000381469727,84.40000153,18.700000781469726,84.90000153,18.899999581469725C84.69999695,18.600000381469727,84.59999847,18.100000381469727,84.59999847,17.499999981469728Z" fill="#0D569A" fill-opacity="1" style="mix-blend-mode:passthrough"/><path d="M86.0999984741211,16.100000381469727C86.2999954241211,16.399999621469725,86.4000015241211,16.899999621469725,86.4000015241211,17.499999981469728C86.4000015241211,18.100000381469727,86.30000305412109,18.600000381469727,86.0999984741211,18.899999581469725C86.6999969441211,18.699998881469725,87.00000000412109,18.100000381469727,87.00000000412109,17.499999981469728C87.00000000412109,16.899999621469725,86.5999984741211,16.299999241469727,86.0999984741211,16.100000381469727Z" fill="#0D569A" fill-opacity="1" style="mix-blend-mode:passthrough"/><path d="M19,156.70000839233398L19.5,156.70000839233398L19.5,132.70000839233398L19,132.70000839233398C18.19999999,132.70000839233398,17.5,133.400005342334,17.5,134.20000839233398L17.5,155.10000239233398C17.5,156.100017392334,18.19999999,156.70000839233398,19,156.70000839233398Z" fill="url(#master_svgh_1_0389)" fill-opacity="1" style="mix-blend-mode:passthrough"/><path d="M19,123.70000839233398L19.5,123.70000839233398L19.5,99.70000839233398L19,99.70000839233398C18.19999999,99.70000839233398,17.5,100.40000534233398,17.5,101.20000839233398L17.5,122.10000239233398C17.5,123.10001739233398,18.19999999,123.70000839233398,19,123.70000839233398Z" fill="url(#master_svgi_1_0369)" fill-opacity="1" style="mix-blend-mode:passthrough"/><path d="M18.7,86.70001220703125L19.5,86.70001220703125L19.5,71.70001220703125L18.7,71.70001220703125C18.00000006,71.70001220703125,17.5,72.20001220703125,17.5,72.90001300703125L17.5,85.50001120703125C17.5,86.20001220703125,18,86.70001220703125,18.7,86.70001220703125Z" fill="url(#master_svgj_1_0349)" fill-opacity="1" style="mix-blend-mode:passthrough"/><path d="M200.5,148.70000839233398L200.5,107.70000839233398C201.6000061,107.70000839233398,202.5,108.60000992233398,202.5,109.70000839233398L202.5,146.70000839233398C202.5,147.800014392334,201.6000061,148.70000839233398,200.5,148.70000839233398Z" fill="url(#master_svgk_1_0329)" fill-opacity="1" style="mix-blend-mode:passthrough"/><rect x="198.5" y="37.70000076293945" width="3" height="4" rx="0" fill="#000000" fill-opacity="1" style="opacity:0.20000000298023224;"/><rect x="160" y="4" width="4" height="3" rx="0" fill="#000000" fill-opacity="1" style="opacity:0.20000000298023224;"/><rect x="57.900001525878906" y="375" width="4" height="3" rx="0" fill="#000000" fill-opacity="1" style="opacity:0.20000000298023224;"/><rect x="18.5" y="37.70000076293945" width="3" height="4" rx="0" fill="#000000" fill-opacity="1" style="opacity:0.20000000298023224;"/><rect x="18.5" y="330.70001220703125" width="3" height="4" rx="0" fill="#000000" fill-opacity="1" style="opacity:0.20000000298023224;"/><rect x="198.5" y="330.70001220703125" width="3" height="4" rx="0" fill="#000000" fill-opacity="1" style="opacity:0.20000000298023224;"/></g></g></svg>