<svg xmlns="http://www.w3.org/2000/svg" xmlns:xlink="http://www.w3.org/1999/xlink" fill="none" version="1.1" width="220" height="382" viewBox="0 0 220 382"><defs><clipPath id="master_svg0_53_69200"><rect x="0" y="0" width="220" height="382" rx="0"/></clipPath><clipPath id="master_svg1_53_69465"><rect x="0" y="0" width="220" height="382" rx="0"/></clipPath><linearGradient x1="0.5" y1="0" x2="0.5" y2="1" id="master_svg2_53_66755"><stop offset="0%" stop-color="#C8C2B4" stop-opacity="1"/><stop offset="100%" stop-color="#F5F4F0" stop-opacity="1"/></linearGradient><linearGradient x1="0.5" y1="0" x2="0.5" y2="1" id="master_svg3_53_66935"><stop offset="0%" stop-color="#8F7866" stop-opacity="1"/><stop offset="100%" stop-color="#DCCCC0" stop-opacity="1"/></linearGradient><linearGradient x1="0.5" y1="0" x2="0.5" y2="1" id="master_svg4_53_66895"><stop offset="0%" stop-color="#DFD6C5" stop-opacity="1"/><stop offset="100%" stop-color="#F6F2E7" stop-opacity="1"/></linearGradient><linearGradient x1="0.5" y1="0" x2="0.3838490474079238" y2="1.1109553331749278" id="master_svg5_53_55502"><stop offset="0%" stop-color="#FFFFFF" stop-opacity="1"/><stop offset="100%" stop-color="#FFFFFF" stop-opacity="0"/></linearGradient><linearGradient x1="-0.05403878167271614" y1="0.08147887885570526" x2="1.136102169323355" y2="0.48663325391982903" id="master_svg6_53_66887"><stop offset="0%" stop-color="#8F7866" stop-opacity="1"/><stop offset="26.027396321296692%" stop-color="#EADED5" stop-opacity="1"/><stop offset="52.054792642593384%" stop-color="#8F7866" stop-opacity="1"/><stop offset="76.7123281955719%" stop-color="#EADED5" stop-opacity="1"/><stop offset="100%" stop-color="#8F7866" stop-opacity="1"/></linearGradient><linearGradient x1="0.5" y1="0" x2="0.5074125003073134" y2="1.080210166296453" id="master_svg7_53_66767"><stop offset="0%" stop-color="#FEFBF6" stop-opacity="1"/><stop offset="78.76712083816528%" stop-color="#FAF5EF" stop-opacity="1"/><stop offset="100%" stop-color="#E0D9C9" stop-opacity="1"/></linearGradient><clipPath id="master_svg8_53_69202"><rect x="17.5" y="4" width="185" height="374" rx="0"/></clipPath><linearGradient x1="0.5" y1="1.0008732080459595" x2="0.5" y2="0.0008731707348488271" id="master_svg9_53_50352"><stop offset="0%" stop-color="#2B2716" stop-opacity="1"/><stop offset="18.621017038822174%" stop-color="#C2BCAA" stop-opacity="1"/><stop offset="50%" stop-color="#F1EBDB" stop-opacity="1"/><stop offset="84.28570628166199%" stop-color="#C2BCAA" stop-opacity="1"/><stop offset="100%" stop-color="#2B2716" stop-opacity="1"/></linearGradient><linearGradient x1="0.5" y1="1.0008732080459595" x2="0.5" y2="0.0008731707348488271" id="master_svga_53_50352"><stop offset="0%" stop-color="#2B2716" stop-opacity="1"/><stop offset="18.621017038822174%" stop-color="#C2BCAA" stop-opacity="1"/><stop offset="50%" stop-color="#F1EBDB" stop-opacity="1"/><stop offset="84.28570628166199%" stop-color="#C2BCAA" stop-opacity="1"/><stop offset="100%" stop-color="#2B2716" stop-opacity="1"/></linearGradient><linearGradient x1="0.5" y1="1.0008732080459595" x2="0.5" y2="0.0008731707348488271" id="master_svgb_53_50352"><stop offset="0%" stop-color="#2B2716" stop-opacity="1"/><stop offset="18.621017038822174%" stop-color="#C2BCAA" stop-opacity="1"/><stop offset="50%" stop-color="#F1EBDB" stop-opacity="1"/><stop offset="84.28570628166199%" stop-color="#C2BCAA" stop-opacity="1"/><stop offset="100%" stop-color="#2B2716" stop-opacity="1"/></linearGradient><linearGradient x1="0.5" y1="1.0008732080459595" x2="0.5" y2="0.0008731707348488271" id="master_svgc_53_50352"><stop offset="0%" stop-color="#2B2716" stop-opacity="1"/><stop offset="18.621017038822174%" stop-color="#C2BCAA" stop-opacity="1"/><stop offset="50%" stop-color="#F1EBDB" stop-opacity="1"/><stop offset="84.28570628166199%" stop-color="#C2BCAA" stop-opacity="1"/><stop offset="100%" stop-color="#2B2716" stop-opacity="1"/></linearGradient><linearGradient x1="0.49518001079559326" y1="1.0046600103378296" x2="0.49518001079559326" y2="-0.016860000789165497" id="master_svgd_1_2230"><stop offset="0%" stop-color="#1F1F1F" stop-opacity="1"/><stop offset="100%" stop-color="#0F0F0F" stop-opacity="1"/></linearGradient></defs><g clip-path="url(#master_svg0_53_69200)"><rect x="0" y="0" width="220" height="382" rx="0" fill="#FFFFFF" fill-opacity="0"/><g clip-path="url(#master_svg1_53_69465)"><rect x="0" y="0" width="220" height="382" rx="0" fill="#FFFFFF" fill-opacity="0"/><g><g><rect x="27.5" y="12" width="165" height="358" rx="12" fill="url(#master_svg2_53_66755)" fill-opacity="1"/></g><g><path d="M27.5,214.25C27.5,230.40433,40.595670999999996,243.5,56.75,243.5L159,243.5C177.50154,243.5,192.5,258.49846,192.5,277L192.5,93C192.5,108.463974,179.96397,121,164.5,121L162.40186,121C145.77911,121,132.30371,107.524605,132.30371,90.901855L132.30371,34.358974C132.30371,22.010453,122.293251,12,109.944733,12L39.500004000000004,12C32.872583399999996,12,27.5,17.3725834,27.5,24.000002000000002L27.5,96C27.5,113.67311,41.826889,128,59.500004,128L163,128C178.74011,128,191.5,140.75989,191.5,156.5C191.5,172.24011,178.74011,185,163,185L56.75,185C40.595669,185,27.5,198.09567,27.5,214.25Z" fill="url(#master_svg3_53_66935)" fill-opacity="1"/></g><g><path d="M27.5,26.000002000000002L27.5,98C27.5,115.67311,41.826889,130,59.500004,130L163,130C179.2924,130,192.5,143.2076,192.5,159.5L192.5,95C192.5,111.016258,179.51627,124,163.5,124L161.40186,124C144.22682,124,130.30371,110.076889,130.30371,92.901855L130.30371,36.564102C130.30371,24.102293,120.201416,14,107.739609,14L39.500004000000004,14C32.872583399999996,14,27.5,19.3725834,27.5,26.000002000000002ZM27.5,217.25C27.5,232.85205,40.147954999999996,245.5,55.75,245.5L159,245.5C177.50154,245.5,192.5,260.49846,192.5,279L192.5,159.5C192.5,175.7924,179.2924,189,163,189L55.75,189C40.147954999999996,189,27.5,201.64795,27.5,217.25Z" fill="#8F7866" fill-opacity="1"/></g><g><path d="M27.5,24.000002000000002L27.5,96C27.5,113.67311,41.826889,128,59.500004,128L163,128C179.2924,128,192.5,141.2076,192.5,157.5L192.5,93C192.5,109.016258,179.51627,122,163.5,122L161.40186,122C144.22682,122,130.30371,108.076889,130.30371,90.901855L130.30371,34.564102C130.30371,22.102293,120.201416,12,107.739609,12L39.500004000000004,12C32.872583399999996,12,27.5,17.3725834,27.5,24.000002000000002ZM27.5,215.25C27.5,230.85205,40.147954999999996,243.5,55.75,243.5L159,243.5C177.50154,243.5,192.5,258.49846,192.5,277L192.5,157.5C192.5,173.7924,179.2924,187,163,187L55.75,187C40.147954999999996,187,27.5,199.64795,27.5,215.25Z" fill="url(#master_svg4_53_66895)" fill-opacity="1"/><path d="M163.5,122C175.77359,122,186.26633,114.37534,190.5,103.604271C191.791,100.319763,192.5,96.742676,192.5,93L192.5,157.5C192.5,153.72624,191.7914,150.118,190.5,146.80104C186.21603,135.79773,175.51865,128,163,128L59.500004,128C41.826889,128,27.5,113.67311,27.5,96L27.5,24.000002000000002C27.5,17.3725834,32.872583399999996,12,39.500004000000004,12L107.739609,12C120.201416,12,130.30371,22.102293,130.30371,34.564102L130.30371,90.901855C130.30371,108.076889,144.22682,122,161.40186,122L163.5,122ZM190.5,168.19896C191.7914,164.882,192.5,161.27376,192.5,157.5L192.5,277C192.5,272.98654,191.79422,269.13791,190.5,265.57147C185.82805,252.69713,173.48807,243.5,159,243.5L55.75,243.5C40.147954999999996,243.5,27.5,230.85205,27.5,215.25C27.5,199.64795,40.147954999999996,187,55.75,187L163,187C175.51865,187,186.21603,179.20227,190.5,168.19896ZM185.42032,114.92031Q188.4735,111.867134,190.5,108.38868L190.5,141.97441Q188.42508,138.37736,185.27386,135.22614Q176.04773,126,163,126L59.500008,126Q47.073593,126,38.286798,117.21321Q29.5,108.426414,29.5,96L29.5,24.000003Q29.5000005,19.8578658,32.4289331,16.928933100000002Q35.3578663,14,39.500004000000004,14L107.739609,14Q116.257538,14,122.280624,20.0230856Q128.30371,26.046177,128.30371,34.564102L128.30371,90.901855Q128.30371,104.611557,137.99794,114.30578Q147.69216,124,161.40186,124L163.50005,124Q176.34064,124,185.42032,114.92031ZM185.27386,179.77386Q188.42508,176.62265,190.5,173.02559L190.5,260.41607999999997Q188.0509,255.84634,184.10229,251.89774Q173.70457,241.5,159,241.5L55.75,241.5Q44.876883,241.5,37.188446,233.81157Q29.5,226.12314,29.5,215.25Q29.4999994,204.37689,37.188448,196.68845Q44.876884000000004,189,55.75,189L163,189Q176.04773,189,185.27386,179.77386Z" fill-rule="evenodd" fill="url(#master_svg5_53_55502)" fill-opacity="1"/></g><g><path d="M27.5,358C27.5,364.62741900000003,32.8725843,370,39.500003,370L159.03662,370C141.36351000000002,370,127.036621,355.673111,127.036621,337.999996L127.036621,318.857178C127.036621,314.4389,123.454903,310.857178,119.036621,310.857178L48.357178000000005,310.857178C36.838075599999996,310.857178,27.5,301.519102,27.5,290L27.5,358Z" fill="url(#master_svg6_53_66887)" fill-opacity="1"/></g><g><path d="M27.5,290L27.5,358C27.5,364.62741900000003,32.8725843,370,39.500003,370L158.03662,370C140.36351000000002,370,126.036621,355.673111,126.036621,337.999996L126.036621,320.857178C126.036621,316.4389,122.454903,312.857178,118.036621,312.857178L50.357178000000005,312.857178C37.733506,312.857178,27.5,302.623672,27.5,290Z" fill="url(#master_svg7_53_66767)" fill-opacity="1"/></g></g></g><g clip-path="url(#master_svg8_53_69202)"><g><g><path d="M173.2,5C188.3,5,200.5,17.2,200.5,32.299999L200.5,349.69998C200.5,364.79999,188.3,376.99997,173.2,376.99997L46.799999,376.99997C31.7,377,19.5,364.79999,19.5,349.70001L19.5,32.299999C19.5,17.2,31.7,5,46.799999,5L173.2,5ZM173.2,4L46.799999,4C31.2,4,18.5,16.7,18.5,32.299999L18.5,349.69998C18.5,365.29999,31.2,378,46.799999,378L173.2,378C188.8,378,201.5,365.29999,201.5,349.70001L201.5,32.299999C201.5,16.7,188.8,4,173.2,4Z" fill="#2B2716" fill-opacity="1" style="mix-blend-mode:passthrough"/></g><g><path d="M173.2,6C187.7,6,199.5,17.8,199.5,32.299999L199.5,349.69998C199.5,364.19998,187.7,375.99997,173.2,375.99997L46.799999,375.99997C32.3,376,20.5,364.20001,20.5,349.70001L20.5,32.299999C20.5,17.8,32.3,6,46.799999,6L173.2,6ZM173.2,5L46.799999,5C31.7,5,19.5,17.2,19.5,32.299999L19.5,349.69998C19.5,364.79999,31.7,377,46.799999,377L173.2,377C188.3,377,200.5,364.79999,200.5,349.70001L200.5,32.299999C200.5,17.2,188.3,5,173.2,5Z" fill="#625C49" fill-opacity="1" style="mix-blend-mode:passthrough"/></g><g><path d="M173.2,7C187.2,7,198.5,18.4,198.5,32.299999L198.5,349.69998C198.5,363.69998,187.10001,374.99997,173.2,374.99997L46.799999,374.99997C32.9,375,21.5,363.60001,21.5,349.70001L21.5,32.299999C21.5,18.4,32.9,7,46.799999,7L173.2,7ZM173.2,6L46.799999,6C32.3,6,20.5,17.8,20.5,32.299999L20.5,349.69998C20.5,364.20001,32.3,376,46.799999,376L173.2,376C187.7,376,199.5,364.20001,199.5,349.70001L199.5,32.299999C199.5,17.8,187.7,6,173.2,6Z" fill="#F1EBDB" fill-opacity="1" style="mix-blend-mode:passthrough"/></g></g><g><path d="M173.89999,7L46.1,7C32.5,7,21.5,18,21.5,31.6L21.5,350.5C21.5,364,32.5,375,46.1,375L174,375C187.60001,375,198.60001,364,198.60001,350.39999L198.60001,31.6C198.5,18,187.5,7,173.89999,7ZM192.5,349.39999C192.5,360.69998,183.3,369.89999,171.89999,369.89999L48.1,369.89999C36.700001,369.89999,27.5,360.69998,27.5,349.39999L27.5,32.6C27.5,21.200001,36.700001,12,48.1,12L63.5,12L73.799999,12L147.2,12L152.09999,12L171.89999,12C183.29999,12,192.5,21.200001,192.5,32.5L192.5,349.39999Z" fill="#000000" fill-opacity="1" style="mix-blend-mode:passthrough"/></g><g><g><path d="M19,156.69999313354492L19.5,156.69999313354492L19.5,132.69999313354492L19,132.69999313354492C18.19999999,132.69999313354492,17.5,133.39999008354494,17.5,134.19999313354492L17.5,155.09998713354491C17.5,156.10000213354493,18.19999999,156.69999313354492,19,156.69999313354492Z" fill="url(#master_svg9_53_50352)" fill-opacity="1" style="mix-blend-mode:passthrough"/></g><g><path d="M19,123.69999313354492L19.5,123.69999313354492L19.5,99.69999313354492L19,99.69999313354492C18.19999999,99.69999313354492,17.5,100.39999008354492,17.5,101.19999313354492L17.5,122.09998713354491C17.5,123.10000213354492,18.19999999,123.69999313354492,19,123.69999313354492Z" fill="url(#master_svga_53_50352)" fill-opacity="1" style="mix-blend-mode:passthrough"/></g><g><path d="M18.7,86.69999694824219L19.5,86.69999694824219L19.5,71.69999694824219L18.7,71.69999694824219C18.00000006,71.69999694824219,17.5,72.19999694824219,17.5,72.89999774824219L17.5,85.49999594824219C17.5,86.19999694824219,18,86.69999694824219,18.7,86.69999694824219Z" fill="url(#master_svgb_53_50352)" fill-opacity="1" style="mix-blend-mode:passthrough"/></g><g><path d="M200.5,148.69999313354492L200.5,107.69999313354492C201.6000061,107.69999313354492,202.5,108.59999466354492,202.5,109.69999313354492L202.5,146.69999313354492C202.5,147.79999913354493,201.6000061,148.69999313354492,200.5,148.69999313354492Z" fill="url(#master_svgc_53_50352)" fill-opacity="1" style="mix-blend-mode:passthrough"/></g></g><g><g style="opacity:0.20000000298023224;"><rect x="198.5" y="37.70000076293945" width="3" height="4" rx="0" fill="#000000" fill-opacity="1" style="mix-blend-mode:passthrough"/></g><g style="opacity:0.20000000298023224;"><rect x="160" y="4" width="4" height="3" rx="0" fill="#000000" fill-opacity="1" style="mix-blend-mode:passthrough"/></g><g style="opacity:0.20000000298023224;"><rect x="57.900001525878906" y="375" width="4" height="3" rx="0" fill="#000000" fill-opacity="1" style="mix-blend-mode:passthrough"/></g><g style="opacity:0.20000000298023224;"><rect x="18.5" y="37.70000076293945" width="3" height="4" rx="0" fill="#000000" fill-opacity="1" style="mix-blend-mode:passthrough"/></g><g style="opacity:0.20000000298023224;"><rect x="18.5" y="330.70001220703125" width="3" height="4" rx="0" fill="#000000" fill-opacity="1" style="mix-blend-mode:passthrough"/></g><g style="opacity:0.20000000298023224;"><rect x="198.5" y="330.70001220703125" width="3" height="4" rx="0" fill="#000000" fill-opacity="1" style="mix-blend-mode:passthrough"/></g></g><g><g><path d="M126.800003,33.10000071661377L93.1999969,33.10000071661377C89,33.10000071661377,85.5,29.700000716613772,85.5,25.40000151661377C85.5,21.20000071661377,88.9000015,17.70000171661377,93.1999969,17.70000171661377L126.89999399999999,17.70000171661377C131.099991,17.70000171661377,134.599991,21.100002316613768,134.599991,25.40000151661377C134.5,29.60000071661377,131.099998,33.10000071661377,126.800003,33.10000071661377Z" fill="#000000" fill-opacity="1" style="mix-blend-mode:passthrough"/></g><g><g><ellipse cx="126.19999694824219" cy="25.399999618530273" rx="2.5" ry="2.5" fill="url(#master_svgd_1_2230)" fill-opacity="1" style="mix-blend-mode:passthrough"/></g><g><ellipse cx="126.19999694824219" cy="25.399999618530273" rx="1.5" ry="1.5" fill="#070D1D" fill-opacity="1" style="mix-blend-mode:passthrough"/></g><g><g><path d="M125.30000304763672,25.3999996C125.30000304763672,24.79999924,125.40000152763672,24.29999924,125.60000610763672,24C125.00000762763672,24.20000076,124.70000457763672,24.79999924,124.70000457763672,25.3999996C124.70000457763672,26,125.10000610763672,26.6000004,125.60000610763672,26.7999992C125.40000152763672,26.5,125.30000304763672,26,125.30000304763672,25.3999996Z" fill="#0D569A" fill-opacity="1" style="mix-blend-mode:passthrough"/></g><g><path d="M126.69999694824219,24C126.89999389824219,24.29999924,126.99999999824219,24.79999924,126.99999999824219,25.3999996C126.99999999824219,26,126.90000152824219,26.5,126.69999694824219,26.7999992C127.29999541824219,26.599998499999998,127.59999847824218,26,127.59999847824218,25.3999996C127.59999847824218,24.79999924,127.30000304824219,24.20000076,126.69999694824219,24Z" fill="#0D569A" fill-opacity="1" style="mix-blend-mode:passthrough"/></g></g></g></g></g></g></svg>