<svg xmlns="http://www.w3.org/2000/svg" xmlns:xlink="http://www.w3.org/1999/xlink" fill="none" version="1.1" width="220" height="382" viewBox="0 0 220 382"><defs><clipPath id="master_svg0_56_025"><rect x="0" y="0" width="220" height="382" rx="0"/></clipPath><clipPath id="master_svg1_56_027"><rect x="17.5" y="4" width="185" height="374" rx="0"/></clipPath><mask id="master_svg2_56_232" style="mask-type:alpha" maskUnits="userSpaceOnUse" x="22" y="7" width="176" height="366"><path d="M179,7L41,7C30.5,7,22,15.5,22,26L22,354C22,364.5,30.5,373,41,373L179,373C189.5,373,198,364.5,198,354L198,26C198,15.5,189.5,7,179,7ZM192,353C192,361.29999,185.3,368,177,368L43,368C34.700001,368,28,361.29999,28,353L28,27C28,18.700001,34.700001,12,43,12L74,12C75.699997,12,77,13.3000002,77,15L77,18C77,22.4,80.599998,26,85,26L136,26C140.39999,26,144,22.4,144,18L144,15C144,13.3000002,145.3,12,147,12L177,12C185.3,12,192,18.700001,192,27L192,353Z" fill="#FFFFFF" fill-opacity="1" style="mix-blend-mode:passthrough"/></mask><linearGradient x1="0.5" y1="1.0041600465774536" x2="0.5" y2="-0.01735999993979931" id="master_svg3_56_111"><stop offset="0%" stop-color="#1F1F1F" stop-opacity="1"/><stop offset="100%" stop-color="#0F0F0F" stop-opacity="1"/></linearGradient><linearGradient x1="0.5" y1="1.0008732080459595" x2="0.5" y2="0.0008731707348488271" id="master_svg4_53_51759"><stop offset="0%" stop-color="#868686" stop-opacity="1"/><stop offset="17.85714328289032%" stop-color="#C1C1C1" stop-opacity="1"/><stop offset="49.28571283817291%" stop-color="#D1D1D1" stop-opacity="1"/><stop offset="84.28571224212646%" stop-color="#C1C1C1" stop-opacity="1"/><stop offset="100%" stop-color="#868686" stop-opacity="1"/></linearGradient><linearGradient x1="0.5" y1="1.0008732080459595" x2="0.5" y2="0.0008731707348488271" id="master_svg5_53_51759"><stop offset="0%" stop-color="#868686" stop-opacity="1"/><stop offset="17.85714328289032%" stop-color="#C1C1C1" stop-opacity="1"/><stop offset="49.28571283817291%" stop-color="#D1D1D1" stop-opacity="1"/><stop offset="84.28571224212646%" stop-color="#C1C1C1" stop-opacity="1"/><stop offset="100%" stop-color="#868686" stop-opacity="1"/></linearGradient><linearGradient x1="0.5" y1="1.0008732080459595" x2="0.5" y2="0.0008731707348488271" id="master_svg6_53_51759"><stop offset="0%" stop-color="#868686" stop-opacity="1"/><stop offset="17.85714328289032%" stop-color="#C1C1C1" stop-opacity="1"/><stop offset="49.28571283817291%" stop-color="#D1D1D1" stop-opacity="1"/><stop offset="84.28571224212646%" stop-color="#C1C1C1" stop-opacity="1"/><stop offset="100%" stop-color="#868686" stop-opacity="1"/></linearGradient><linearGradient x1="0.5" y1="1.0008732080459595" x2="0.5" y2="0.0008731707348488271" id="master_svg7_53_51759"><stop offset="0%" stop-color="#868686" stop-opacity="1"/><stop offset="17.85714328289032%" stop-color="#C1C1C1" stop-opacity="1"/><stop offset="49.28571283817291%" stop-color="#D1D1D1" stop-opacity="1"/><stop offset="84.28571224212646%" stop-color="#C1C1C1" stop-opacity="1"/><stop offset="100%" stop-color="#868686" stop-opacity="1"/></linearGradient></defs><g clip-path="url(#master_svg0_56_025)"><rect x="0" y="0" width="220" height="382" rx="0" fill="#FFFFFF" fill-opacity="0"/><g clip-path="url(#master_svg1_56_027)"><path d="M173.2,5C188.3,5,200.5,17.2,200.5,32.299999L200.5,349.69998C200.5,364.79999,188.3,376.99997,173.2,376.99997L46.799999,376.99997C31.7,377,19.5,364.79999,19.5,349.70001L19.5,32.299999C19.5,17.2,31.7,5,46.799999,5L173.2,5ZM173.2,4L46.799999,4C31.2,4,18.5,16.7,18.5,32.299999L18.5,349.69998C18.5,365.29999,31.2,378,46.799999,378L173.2,378C188.8,378,201.5,365.29999,201.5,349.70001L201.5,32.299999C201.5,16.7,188.8,4,173.2,4Z" fill="#969696" fill-opacity="1" style="mix-blend-mode:passthrough"/><path d="M173.2,6C187.7,6,199.5,17.8,199.5,32.299999L199.5,349.69998C199.5,364.19998,187.7,375.99997,173.2,375.99997L46.799999,375.99997C32.3,376,20.5,364.20001,20.5,349.70001L20.5,32.299999C20.5,17.8,32.3,6,46.799999,6L173.2,6ZM173.2,5L46.799999,5C31.7,5,19.5,17.2,19.5,32.299999L19.5,349.69998C19.5,364.79999,31.7,377,46.799999,377L173.2,377C188.3,377,200.5,364.79999,200.5,349.70001L200.5,32.299999C200.5,17.2,188.3,5,173.2,5Z" fill="#A5A5A5" fill-opacity="1" style="mix-blend-mode:passthrough"/><path d="M173.2,7C187.2,7,198.5,18.4,198.5,32.299999L198.5,349.69998C198.5,363.69998,187.10001,374.99997,173.2,374.99997L46.799999,374.99997C32.9,375,21.5,363.60001,21.5,349.70001L21.5,32.299999C21.5,18.4,32.9,7,46.799999,7L173.2,7ZM173.2,6L46.799999,6C32.3,6,20.5,17.8,20.5,32.299999L20.5,349.69998C20.5,364.20001,32.3,376,46.799999,376L173.2,376C187.7,376,199.5,364.20001,199.5,349.70001L199.5,32.299999C199.5,17.8,187.7,6,173.2,6Z" fill="#D1D1D1" fill-opacity="1" style="mix-blend-mode:passthrough"/><g mask="url(#master_svg2_56_232)"><rect x="72" y="7" width="77" height="20" rx="0" fill="#000000" fill-opacity="1"/></g><path d="M173.89999,7L46.1,7C32.5,7,21.5,18,21.5,31.6L21.5,350.5C21.5,364,32.5,375,46.1,375L174,375C187.60001,375,198.60001,364,198.60001,350.39999L198.60001,31.6C198.5,18,187.5,7,173.89999,7ZM192.5,349.39999C192.5,360.69998,183.3,369.89999,171.89999,369.89999L48.1,369.89999C36.700001,369.89999,27.5,360.69998,27.5,349.39999L27.5,32.6C27.5,21.200001,36.700001,12,48.1,12L63.5,12L73.799999,12L147.2,12L152.09999,12L171.89999,12C183.29999,12,192.5,21.200001,192.5,32.5L192.5,349.39999Z" fill="#000000" fill-opacity="1" style="mix-blend-mode:passthrough"/><path d="M121,10L99,10C98.40000153,10,98,9.6000004,98,9C98,8.39999962,98.40000153,8,99,8L121,8C121.599998,8,122,8.39999962,122,9C122,9.6000004,121.599998,10,121,10Z" fill="#212021" fill-opacity="1" style="mix-blend-mode:passthrough"/><ellipse cx="85.5" cy="17.5" rx="2.75" ry="2.75" fill="url(#master_svg3_56_111)" fill-opacity="1" style="mix-blend-mode:passthrough"/><ellipse cx="85.5" cy="17.5" rx="1.75" ry="1.75" fill="#070D1D" fill-opacity="1" style="mix-blend-mode:passthrough"/><path d="M84.59999847,17.499999981469728C84.59999847,16.899999621469725,84.69999695,16.399999621469725,84.90000153,16.100000381469727C84.30000305,16.30000114146973,84,16.899999621469725,84,17.499999981469728C84,18.100000381469727,84.40000153,18.700000781469726,84.90000153,18.899999581469725C84.69999695,18.600000381469727,84.59999847,18.100000381469727,84.59999847,17.499999981469728Z" fill="#0D569A" fill-opacity="1" style="mix-blend-mode:passthrough"/><path d="M86.0999984741211,16.100000381469727C86.2999954241211,16.399999621469725,86.4000015241211,16.899999621469725,86.4000015241211,17.499999981469728C86.4000015241211,18.100000381469727,86.30000305412109,18.600000381469727,86.0999984741211,18.899999581469725C86.6999969441211,18.699998881469725,87.00000000412109,18.100000381469727,87.00000000412109,17.499999981469728C87.00000000412109,16.899999621469725,86.5999984741211,16.299999241469727,86.0999984741211,16.100000381469727Z" fill="#0D569A" fill-opacity="1" style="mix-blend-mode:passthrough"/><path d="M19,156.70000839233398L19.5,156.70000839233398L19.5,132.70000839233398L19,132.70000839233398C18.19999999,132.70000839233398,17.5,133.400005342334,17.5,134.20000839233398L17.5,155.10000239233398C17.5,156.100017392334,18.19999999,156.70000839233398,19,156.70000839233398Z" fill="url(#master_svg4_53_51759)" fill-opacity="1" style="mix-blend-mode:passthrough"/><path d="M19,123.70000839233398L19.5,123.70000839233398L19.5,99.70000839233398L19,99.70000839233398C18.19999999,99.70000839233398,17.5,100.40000534233398,17.5,101.20000839233398L17.5,122.10000239233398C17.5,123.10001739233398,18.19999999,123.70000839233398,19,123.70000839233398Z" fill="url(#master_svg5_53_51759)" fill-opacity="1" style="mix-blend-mode:passthrough"/><path d="M18.7,86.70001220703125L19.5,86.70001220703125L19.5,71.70001220703125L18.7,71.70001220703125C18.00000006,71.70001220703125,17.5,72.20001220703125,17.5,72.90001300703125L17.5,85.50001120703125C17.5,86.20001220703125,18,86.70001220703125,18.7,86.70001220703125Z" fill="url(#master_svg6_53_51759)" fill-opacity="1" style="mix-blend-mode:passthrough"/><path d="M200.5,148.70000839233398L200.5,107.70000839233398C201.6000061,107.70000839233398,202.5,108.60000992233398,202.5,109.70000839233398L202.5,146.70000839233398C202.5,147.800014392334,201.6000061,148.70000839233398,200.5,148.70000839233398Z" fill="url(#master_svg7_53_51759)" fill-opacity="1" style="mix-blend-mode:passthrough"/><rect x="198.5" y="37.70000076293945" width="3" height="4" rx="0" fill="#000000" fill-opacity="1" style="opacity:0.20000000298023224;"/><rect x="160" y="4" width="4" height="3" rx="0" fill="#000000" fill-opacity="1" style="opacity:0.20000000298023224;"/><rect x="57.900001525878906" y="375" width="4" height="3" rx="0" fill="#000000" fill-opacity="1" style="opacity:0.20000000298023224;"/><rect x="18.5" y="37.70000076293945" width="3" height="4" rx="0" fill="#000000" fill-opacity="1" style="opacity:0.20000000298023224;"/><rect x="18.5" y="330.70001220703125" width="3" height="4" rx="0" fill="#000000" fill-opacity="1" style="opacity:0.20000000298023224;"/><rect x="198.5" y="330.70001220703125" width="3" height="4" rx="0" fill="#000000" fill-opacity="1" style="opacity:0.20000000298023224;"/></g></g></svg>