<?xml version="1.0" encoding="utf-8"?>
<!-- Generator: Adobe Illustrator 22.0.0, SVG Export Plug-In . SVG Version: 6.00 Build 0)  -->
<svg version="1.1" id="图层_1" xmlns="http://www.w3.org/2000/svg" xmlns:xlink="http://www.w3.org/1999/xlink" x="0px" y="0px"
	 viewBox="0 0 220 382" style="enable-background:new 0 0 220 382;" xml:space="preserve">
<style type="text/css">
	.st0{fill:#D4D4D4;}
	.st1{opacity:0.6;fill:#DA6555;}
	.st2{opacity:0.6;fill:#E6C561;}
	.st3{opacity:0.6;fill:#C34D2C;}
	.st4{opacity:0.6;fill:#CC485B;}
	.st5{opacity:0.6;fill:#A64BC4;}
	.st6{fill:#D6AFAB;}
	.st7{fill:#D6B7B4;}
	.st8{fill:#E1C6C3;}
	.st9{fill:#FBDCD6;}
	.st10{opacity:0.6;fill:#EDD0CC;}
	.st11{fill:url(#SVGID_1_);}
	.st12{fill:url(#SVGID_2_);}
	.st13{fill:url(#SVGID_3_);}
	.st14{fill:url(#SVGID_4_);}
	.st15{fill:#313036;}
	.st16{fill:#3A393F;}
	.st17{fill:#444349;}
	.st18{fill:#535356;}
	.st19{opacity:0.6;fill:#57565C;}
	.st20{fill:url(#SVGID_5_);}
	.st21{fill:url(#SVGID_6_);}
	.st22{fill:url(#SVGID_7_);}
	.st23{fill:url(#SVGID_8_);}
	.st24{fill:#94846D;}
	.st25{fill:#C1AD91;}
	.st26{fill:#D2BE9F;}
	.st27{opacity:0.6;fill:#B59B75;}
	.st28{fill:url(#SVGID_9_);}
	.st29{fill:url(#SVGID_10_);}
	.st30{fill:url(#SVGID_11_);}
	.st31{fill:url(#SVGID_12_);}
	.st32{fill:#B19EBA;}
	.st33{fill:#C7B4D1;}
	.st34{fill:#DAC7E6;}
	.st35{fill:#212021;}
	.st36{fill:url(#SVGID_13_);}
	.st37{fill:#070D1D;}
	.st38{fill:#0D569A;}
	.st39{opacity:0.6;fill:#A795AF;}
	.st40{fill:url(#SVGID_14_);}
	.st41{fill:url(#SVGID_15_);}
	.st42{fill:url(#SVGID_16_);}
	.st43{fill:url(#SVGID_17_);}
	.st44{fill:#CEC8BE;}
	.st45{fill:#E6E3DC;}
	.st46{fill:#FBFAF6;}
	.st47{fill:url(#SVGID_18_);}
	.st48{opacity:0.6;fill:#E9E5E2;}
	.st49{fill:url(#SVGID_19_);}
	.st50{fill:url(#SVGID_20_);}
	.st51{fill:url(#SVGID_21_);}
	.st52{fill:url(#SVGID_22_);}
	.st53{fill:#3B3A40;}
	.st54{fill:url(#SVGID_23_);}
	.st55{fill:url(#SVGID_24_);}
	.st56{fill:url(#SVGID_25_);}
	.st57{fill:url(#SVGID_26_);}
	.st58{fill:url(#SVGID_27_);}
	.st59{fill:#6F8FA6;}
	.st60{fill:#90A7BA;}
	.st61{fill:#ACBCCB;}
	.st62{fill:url(#SVGID_28_);}
	.st63{opacity:0.6;fill:#617EA0;}
	.st64{fill:url(#SVGID_29_);}
	.st65{fill:url(#SVGID_30_);}
	.st66{fill:url(#SVGID_31_);}
	.st67{fill:url(#SVGID_32_);}
	.st68{fill:url(#SVGID_33_);}
	.st69{fill:url(#SVGID_34_);}
	.st70{fill:url(#SVGID_35_);}
	.st71{fill:url(#SVGID_36_);}
	.st72{fill:url(#SVGID_37_);}
	.st73{fill:#A6111C;}
	.st74{fill:#B91826;}
	.st75{fill:#C91E2E;}
	.st76{fill:url(#SVGID_38_);}
	.st77{opacity:0.6;fill:#95131E;}
	.st78{fill:url(#SVGID_39_);}
	.st79{fill:url(#SVGID_40_);}
	.st80{fill:url(#SVGID_41_);}
	.st81{fill:url(#SVGID_42_);}
	.st82{fill:#485641;}
	.st83{fill:#576653;}
	.st84{fill:#687967;}
	.st85{fill:#6F7F6E;}
	.st86{fill:url(#SVGID_43_);}
	.st87{opacity:0.6;fill:#3B4B39;}
	.st88{fill:url(#SVGID_44_);}
	.st89{fill:url(#SVGID_45_);}
	.st90{fill:url(#SVGID_46_);}
	.st91{fill:url(#SVGID_47_);}
	.st92{fill:url(#SVGID_48_);}
	.st93{fill:url(#SVGID_49_);}
	.st94{fill:url(#SVGID_50_);}
	.st95{fill:url(#SVGID_51_);}
	.st96{fill:url(#SVGID_52_);}
	.st97{fill:#2A5C7D;}
	.st98{fill:#316787;}
	.st99{fill:#387393;}
	.st100{fill:#4A89A5;}
	.st101{fill:url(#SVGID_53_);}
	.st102{opacity:0.6;fill:#2A5E86;}
	.st103{fill:url(#SVGID_54_);}
	.st104{fill:url(#SVGID_55_);}
	.st105{fill:url(#SVGID_56_);}
	.st106{fill:url(#SVGID_57_);}
	.st107{fill:#878787;}
	.st108{fill:#CCCCCC;}
	.st109{fill:#AAAAAA;}
	.st110{fill:#B9B9B9;}
	.st111{fill:#ACACAC;}
	.st112{fill:#888884;}
	.st113{fill:#B0B0AC;}
	.st114{fill:#DEDEDA;}
	.st115{fill:#EAEAEA;}
	.st116{fill:url(#SVGID_58_);}
	.st117{opacity:0.6;fill:#EBEBE9;}
	.st118{fill:url(#SVGID_59_);}
	.st119{fill:url(#SVGID_60_);}
	.st120{fill:url(#SVGID_61_);}
	.st121{fill:url(#SVGID_62_);}
	.st122{fill:#314B57;}
	.st123{fill:#5D7683;}
	.st124{fill:#8EA7B4;}
	.st125{fill:#AFC1C9;}
	.st126{fill:url(#SVGID_63_);}
	.st127{opacity:0.6;fill:#AABDC7;}
	.st128{fill:url(#SVGID_64_);}
	.st129{fill:url(#SVGID_65_);}
	.st130{fill:url(#SVGID_66_);}
	.st131{fill:url(#SVGID_67_);}
	.st132{fill:#595855;}
	.st133{fill:#A19F99;}
	.st134{fill:#BCBBB7;}
	.st135{fill:#CECDCA;}
	.st136{fill:url(#SVGID_68_);}
	.st137{opacity:0.6;fill:#484745;}
	.st138{fill:url(#SVGID_69_);}
	.st139{fill:url(#SVGID_70_);}
	.st140{fill:url(#SVGID_71_);}
	.st141{fill:url(#SVGID_72_);}
	.st142{fill:#E0D1BD;}
	.st143{fill:#E5D8C6;}
	.st144{fill:url(#SVGID_73_);}
	.st145{opacity:0.6;fill:#B99E77;}
	.st146{fill:url(#SVGID_74_);}
	.st147{fill:url(#SVGID_75_);}
	.st148{fill:url(#SVGID_76_);}
	.st149{fill:url(#SVGID_77_);}
	.st150{fill:#C2BCB6;}
	.st151{fill:#D9D2CA;}
	.st152{fill:#F3EBE1;}
	.st153{fill:url(#SVGID_78_);}
	.st154{opacity:0.6;fill:#FDFBF9;}
	.st155{fill:url(#SVGID_79_);}
	.st156{fill:url(#SVGID_80_);}
	.st157{fill:url(#SVGID_81_);}
	.st158{fill:url(#SVGID_82_);}
	.st159{fill:#CE3738;}
	.st160{fill:#DD4745;}
	.st161{fill:#ED5953;}
	.st162{fill:url(#SVGID_83_);}
	.st163{opacity:0.6;fill:#F17A75;}
	.st164{fill:url(#SVGID_84_);}
	.st165{fill:url(#SVGID_85_);}
	.st166{fill:url(#SVGID_86_);}
	.st167{fill:url(#SVGID_87_);}
	.st168{fill:#887FB4;}
	.st169{fill:#A39AD0;}
	.st170{fill:#C1B8EF;}
	.st171{fill:#C9C5EF;}
	.st172{fill:url(#SVGID_88_);}
	.st173{opacity:0.6;fill:#CFC6F9;}
	.st174{fill:url(#SVGID_89_);}
	.st175{fill:url(#SVGID_90_);}
	.st176{fill:url(#SVGID_91_);}
	.st177{fill:url(#SVGID_92_);}
	.st178{fill:#9EB79A;}
	.st179{fill:#B3C9AF;}
	.st180{fill:#CADDC6;}
	.st181{fill:url(#SVGID_93_);}
	.st182{opacity:0.6;fill:#E0E4DF;}
	.st183{fill:url(#SVGID_94_);}
	.st184{fill:url(#SVGID_95_);}
	.st185{fill:url(#SVGID_96_);}
	.st186{fill:url(#SVGID_97_);}
	.st187{fill:url(#SVGID_98_);}
	.st188{opacity:0.6;fill:#A2B7C2;}
	.st189{fill:url(#SVGID_99_);}
	.st190{fill:url(#SVGID_100_);}
	.st191{fill:url(#SVGID_101_);}
	.st192{fill:url(#SVGID_102_);}
	.st193{fill:url(#SVGID_103_);}
	.st194{fill:url(#SVGID_104_);}
	.st195{fill:url(#SVGID_105_);}
	.st196{fill:url(#SVGID_106_);}
	.st197{fill:url(#SVGID_107_);}
	.st198{fill:#1D4268;}
	.st199{fill:#224B73;}
	.st200{fill:#27557F;}
	.st201{fill:url(#SVGID_108_);}
	.st202{opacity:0.6;fill:#3D668C;}
	.st203{fill:url(#SVGID_109_);}
	.st204{fill:url(#SVGID_110_);}
	.st205{fill:url(#SVGID_111_);}
	.st206{fill:url(#SVGID_112_);}
	.st207{fill:#535252;}
	.st208{fill:url(#SVGID_113_);}
	.st209{fill:url(#SVGID_114_);}
	.st210{fill:url(#SVGID_115_);}
	.st211{fill:url(#SVGID_116_);}
	.st212{fill:url(#SVGID_117_);}
	.st213{fill:#544963;}
	.st214{fill:#7B6E90;}
	.st215{fill:#A79ABB;}
	.st216{fill:#988FA4;}
	.st217{fill:#373335;}
	.st218{fill:#7D7C7D;}
	.st219{fill:#919292;}
	.st220{fill:url(#SVGID_118_);}
	.st221{opacity:0.6;fill:#6A5C7E;}
	.st222{fill:url(#SVGID_119_);}
	.st223{fill:url(#SVGID_120_);}
	.st224{fill:url(#SVGID_121_);}
	.st225{fill:url(#SVGID_122_);}
	.st226{fill:#3A3939;}
	.st227{fill:#807F7F;}
	.st228{fill:#767475;}
	.st229{fill:#636363;}
	.st230{fill:#939292;}
	.st231{fill:url(#SVGID_123_);}
	.st232{opacity:0.6;fill:#3A3939;}
	.st233{fill:url(#SVGID_124_);}
	.st234{fill:url(#SVGID_125_);}
	.st235{fill:url(#SVGID_126_);}
	.st236{fill:url(#SVGID_127_);}
	.st237{fill:#A6A5A9;}
	.st238{fill:#CACAD1;}
	.st239{fill:#F0F1F2;}
	.st240{fill:#C1C0C6;}
	.st241{fill:#373737;}
	.st242{fill:#767576;}
	.st243{fill:#979699;}
	.st244{fill:#5B5B5B;}
	.st245{fill:url(#SVGID_128_);}
	.st246{opacity:0.6;fill:#F8F8FA;}
	.st247{fill:url(#SVGID_129_);}
	.st248{fill:url(#SVGID_130_);}
	.st249{fill:url(#SVGID_131_);}
	.st250{fill:url(#SVGID_132_);}
	.st251{fill:#484848;}
	.st252{fill:#979698;}
	.st253{fill:#FEFEFE;}
	.st254{fill:#434343;}
	.st255{fill:#141314;}
	.st256{fill:#B2B1B2;}
	.st257{fill:#9F9E9F;}
	.st258{fill:#737373;}
	.st259{fill:#010101;}
	.st260{fill:url(#SVGID_133_);}
	.st261{opacity:0.6;fill:#B6B2BE;}
	.st262{fill:url(#SVGID_134_);}
	.st263{fill:url(#SVGID_135_);}
	.st264{fill:url(#SVGID_136_);}
	.st265{fill:url(#SVGID_137_);}
	.st266{fill:#587C6C;}
	.st267{fill:#6C9F87;}
	.st268{fill:#98C9B3;}
	.st269{fill:#7F9C8E;}
	.st270{fill:url(#SVGID_138_);}
	.st271{opacity:0.6;fill:#548670;}
	.st272{fill:url(#SVGID_139_);}
	.st273{fill:url(#SVGID_140_);}
	.st274{fill:url(#SVGID_141_);}
	.st275{fill:url(#SVGID_142_);}
	.st276{fill:url(#SVGID_143_);}
	.st277{fill:url(#SVGID_144_);}
	.st278{fill:url(#SVGID_145_);}
	.st279{fill:#5D6F83;}
	.st280{fill:#8BA1B9;}
	.st281{fill:#BED9F6;}
	.st282{fill:#D5E7F7;}
	.st283{opacity:0.6;fill:#73859D;}
	.st284{fill:url(#SVGID_146_);}
	.st285{fill:#D3D1CD;}
	.st286{opacity:0.6;fill:#86847F;}
	.st287{fill:url(#SVGID_147_);}
	.st288{fill:url(#SVGID_148_);}
	.st289{fill:url(#SVGID_149_);}
	.st290{fill:url(#SVGID_150_);}
	.st291{fill:url(#SVGID_151_);}
	.st292{fill:#DDD0BF;}
	.st293{fill:#E5D9CA;}
	.st294{fill:url(#SVGID_152_);}
	.st295{fill:url(#SVGID_153_);}
	.st296{fill:url(#SVGID_154_);}
	.st297{fill:url(#SVGID_155_);}
	.st298{fill:url(#SVGID_156_);}
	.st299{fill:#E3E0D8;}
	.st300{fill:#FFFFFF;}
	.st301{opacity:0.6;fill:#FEF9F8;}
	.st302{fill:url(#SVGID_157_);}
	.st303{fill:url(#SVGID_158_);}
	.st304{fill:url(#SVGID_159_);}
	.st305{fill:url(#SVGID_160_);}
	.st306{fill:url(#SVGID_161_);}
	.st307{fill:#000100;}
	.st308{fill:url(#SVGID_162_);}
	.st309{fill:url(#SVGID_163_);}
	.st310{fill:url(#SVGID_164_);}
	.st311{fill:url(#SVGID_165_);}
	.st312{fill:url(#SVGID_166_);}
	.st313{fill:url(#SVGID_167_);}
	.st314{fill:url(#SVGID_168_);}
	.st315{fill:url(#SVGID_169_);}
	.st316{fill:url(#SVGID_170_);}
	.st317{fill:url(#SVGID_171_);}
	.st318{fill:#B61724;}
	.st319{fill:#CE2E41;}
	.st320{opacity:0.6;fill:#8E101F;}
	.st321{fill:url(#SVGID_172_);}
	.st322{fill:url(#SVGID_173_);}
	.st323{fill:url(#SVGID_174_);}
	.st324{fill:url(#SVGID_175_);}
	.st325{fill:url(#SVGID_176_);}
	.st326{fill:#8B8B8B;}
	.st327{fill:#CECECE;}
	.st328{fill:#E8E8E8;}
	.st329{fill:#525252;}
	.st330{fill:#6D6D6D;}
	.st331{fill:#848484;}
	.st332{fill:#989898;}
	.st333{fill:#5C5C5C;}
	.st334{fill:url(#SVGID_177_);}
	.st335{opacity:0.6;fill:#929292;}
	.st336{fill:url(#SVGID_178_);}
	.st337{fill:url(#SVGID_179_);}
	.st338{fill:url(#SVGID_180_);}
	.st339{fill:url(#SVGID_181_);}
	.st340{fill:#725237;}
	.st341{fill:#96735C;}
	.st342{fill:#BEA693;}
	.st343{fill:#B2A89D;}
	.st344{fill:#2B2B2B;}
	.st345{fill:#747575;}
	.st346{fill:url(#SVGID_182_);}
	.st347{opacity:0.6;fill:#8E6D54;}
	.st348{fill:url(#SVGID_183_);}
	.st349{fill:url(#SVGID_184_);}
	.st350{fill:url(#SVGID_185_);}
	.st351{fill:url(#SVGID_186_);}
	.st352{fill:#5A5A5A;}
	.st353{fill:#19171A;}
	.st354{fill:#767476;}
	.st355{fill:#918F91;}
	.st356{fill:url(#SVGID_187_);}
	.st357{opacity:0.6;fill:#333233;}
	.st358{fill:url(#SVGID_188_);}
	.st359{fill:url(#SVGID_189_);}
	.st360{fill:url(#SVGID_190_);}
	.st361{fill:url(#SVGID_191_);}
	.st362{fill:#BD9E5F;}
	.st363{fill:#E0BF85;}
	.st364{fill:#FFE4AE;}
	.st365{fill:#CAC09F;}
	.st366{fill:#353F3D;}
	.st367{fill:url(#SVGID_192_);}
	.st368{opacity:0.6;fill:#F7E1A6;}
	.st369{fill:url(#SVGID_193_);}
	.st370{fill:url(#SVGID_194_);}
	.st371{fill:url(#SVGID_195_);}
	.st372{fill:url(#SVGID_196_);}
	.st373{fill:#A5A5A5;}
	.st374{fill:#CCCDD0;}
	.st375{fill:#F1F2F3;}
	.st376{fill:#C2C3C5;}
	.st377{fill:url(#SVGID_197_);}
	.st378{opacity:0.6;fill:#F7F7F9;}
	.st379{fill:url(#SVGID_198_);}
	.st380{fill:url(#SVGID_199_);}
	.st381{fill:url(#SVGID_200_);}
	.st382{fill:url(#SVGID_201_);}
	.st383{fill:#8E1F25;}
	.st384{fill:#CA3844;}
	.st385{fill:#F3626E;}
	.st386{fill:#C76C70;}
	.st387{fill:url(#SVGID_202_);}
	.st388{opacity:0.6;fill:#8B1F24;}
	.st389{fill:url(#SVGID_203_);}
	.st390{fill:url(#SVGID_204_);}
	.st391{fill:url(#SVGID_205_);}
	.st392{fill:url(#SVGID_206_);}
	.st393{fill:#C76253;}
	.st394{fill:#E5867C;}
	.st395{fill:#FFB4A8;}
	.st396{fill:#D0A7A1;}
	.st397{fill:#403F43;}
	.st398{fill:url(#SVGID_207_);}
	.st399{opacity:0.6;fill:#FFB9AA;}
	.st400{fill:url(#SVGID_208_);}
	.st401{fill:url(#SVGID_209_);}
	.st402{fill:url(#SVGID_210_);}
	.st403{fill:url(#SVGID_211_);}
	.st404{fill:#4D7698;}
	.st405{fill:#709DC2;}
	.st406{fill:#A3D0F0;}
	.st407{fill:#92AFC6;}
	.st408{fill:url(#SVGID_212_);}
	.st409{opacity:0.6;fill:#A6D7FD;}
	.st410{fill:url(#SVGID_213_);}
	.st411{fill:url(#SVGID_214_);}
	.st412{fill:url(#SVGID_215_);}
	.st413{fill:url(#SVGID_216_);}
	.st414{fill:#171719;}
	.st415{fill:#1F1E23;}
	.st416{fill:#323134;}
	.st417{fill:#434247;}
	.st418{fill:#838383;}
	.st419{fill:url(#SVGID_217_);}
	.st420{opacity:0.6;fill:#212123;}
	.st421{fill:url(#SVGID_218_);}
	.st422{fill:url(#SVGID_219_);}
	.st423{fill:url(#SVGID_220_);}
	.st424{fill:url(#SVGID_221_);}
	.st425{fill:#606060;}
	.st426{fill:#A2A2A2;}
	.st427{fill:#3E3E3E;}
	.st428{fill:url(#SVGID_222_);}
	.st429{opacity:0.6;fill:#797979;}
	.st430{fill:url(#SVGID_223_);}
	.st431{fill:url(#SVGID_224_);}
	.st432{fill:url(#SVGID_225_);}
	.st433{fill:url(#SVGID_226_);}
	.st434{fill:#CEC5BB;}
	.st435{fill:#DED7CF;}
	.st436{fill:#050505;}
	.st437{fill:#A29C95;}
	.st438{fill:url(#SVGID_227_);}
	.st439{fill:#A39EBD;}
	.st440{fill:#BBB7D2;}
	.st441{fill:#9895B5;}
	.st442{fill:url(#SVGID_228_);}
	.st443{fill:#AD8A86;}
	.st444{fill:#BE9F9A;}
	.st445{fill:#8B7370;}
	.st446{fill:url(#SVGID_229_);}
	.st447{fill:url(#SVGID_230_);}
	.st448{fill:#646366;}
	.st449{fill:#78787A;}
	.st450{fill:url(#SVGID_231_);}
	.st451{fill:#999999;}
	.st452{fill:url(#SVGID_232_);}
	.st453{fill:#C4C4C4;}
	.st454{fill:url(#SVGID_233_);}
	.st455{fill:#7D7D7D;}
	.st456{fill:url(#SVGID_234_);}
	.st457{fill:url(#SVGID_235_);}
	.st458{opacity:0.8;fill:#FFFFFF;}
	.st459{opacity:0.8;}
	.st460{opacity:0.6;}
	.st461{opacity:0.6;fill:#FFFFFF;}
	.st462{opacity:0.2;}
	.st463{fill:#DDDDDD;}
	.st464{fill:#C6C7C6;}
	.st465{fill:#F5F8F4;}
	.st466{fill:url(#SVGID_236_);}
	.st467{fill:#F3D2D0;}
	.st468{fill:#F0ADAA;}
	.st469{fill:#F0BDBF;}
	.st470{fill:url(#SVGID_237_);}
	.st471{fill:#5D5B5D;}
	.st472{fill:#AAABA9;}
	.st473{fill:#060505;}
	.st474{fill:#333232;}
	.st475{fill:url(#SVGID_238_);}
	.st476{fill:#DFDFDF;}
	.st477{fill:#C6C6C6;}
	.st478{fill:#F7F7F7;}
	.st479{fill:#D0D0CD;}
	.st480{fill:url(#SVGID_239_);}
	.st481{fill:url(#SVGID_240_);}
	.st482{fill:#AAABAA;}
	.st483{fill:#424041;}
	.st484{fill:url(#SVGID_241_);}
	.st485{fill:#050606;}
	.st486{fill:#DEDEDE;}
	.st487{fill:#CACACA;}
	.st488{fill:#343333;}
	.st489{fill:url(#SVGID_242_);}
	.st490{opacity:0.6;fill:#5A5156;}
	.st491{opacity:0.6;fill:#343333;}
	.st492{fill:#F7F9F8;}
	.st493{fill:#E6E6E5;}
	.st494{fill:#EFDBCE;}
	.st495{fill:#E2CABA;}
	.st496{fill:#DEC0AB;}
	.st497{fill:#F0DDCC;}
	.st498{fill:url(#SVGID_243_);}
	.st499{fill:url(#SVGID_244_);}
	.st500{fill:#050402;}
	.st501{fill:#393937;}
	.st502{fill:#010705;}
	.st503{fill:#FFF365;}
	.st504{fill:#EADC7C;}
	.st505{fill:#D7C889;}
	.st506{fill:#302F30;}
	.st507{fill:url(#SVGID_245_);}
	.st508{fill:url(#SVGID_246_);}
	.st509{fill:#393939;}
	.st510{fill:#F2F2F2;}
	.st511{fill:#E3E3E3;}
	.st512{fill:#AEAEAE;}
	.st513{fill:#D5D5D5;}
	.st514{fill:url(#SVGID_247_);}
	.st515{fill:url(#SVGID_248_);}
	.st516{fill:#040603;}
	.st517{fill:#373939;}
	.st518{fill:#040505;}
	.st519{fill:#FE9EA4;}
	.st520{fill:#EF9290;}
	.st521{fill:#E18382;}
	.st522{fill:#FFA8AA;}
	.st523{fill:url(#SVGID_249_);}
	.st524{fill:url(#SVGID_250_);}
	.st525{fill:#080709;}
	.st526{fill:#393837;}
	.st527{fill:#050405;}
	.st528{fill:#C3F89E;}
	.st529{fill:#AAE08A;}
	.st530{fill:#95CB70;}
	.st531{fill:#B0EC8B;}
	.st532{fill:url(#SVGID_251_);}
	.st533{fill:url(#SVGID_252_);}
	.st534{fill:#060702;}
	.st535{fill:#39383A;}
	.st536{fill:#77D3F7;}
	.st537{fill:#65CAFF;}
	.st538{fill:#40A6D9;}
	.st539{fill:#6CCFFD;}
	.st540{fill:#323232;}
	.st541{fill:url(#SVGID_253_);}
	.st542{fill:url(#SVGID_254_);}
	.st543{fill:#F7F8FB;}
	.st544{fill:#E5E6E6;}
	.st545{fill:#FEFFFF;}
	.st546{fill:#CFCFD1;}
	.st547{fill:#C4C5C7;}
	.st548{fill:#D7D8D9;}
	.st549{fill:#9D9F9C;}
	.st550{opacity:0.6;fill:#FEFFFF;}
	.st551{fill:url(#SVGID_255_);}
	.st552{fill:url(#SVGID_256_);}
	.st553{fill:#C9C9C9;}
	.st554{fill:#9B9B9B;}
	.st555{fill:#BBBBBB;}
	.st556{fill:#F7F7FA;}
	.st557{fill:#E4E6E5;}
	.st558{fill:#F5D84C;}
	.st559{fill:#F4D950;}
	.st560{fill:#F2DA4B;}
	.st561{fill:#E0E864;}
	.st562{fill:#CCCDCF;}
	.st563{fill:url(#SVGID_257_);}
	.st564{fill:#F7F8FA;}
	.st565{fill:#C4C5C8;}
	.st566{fill:#C4C5C9;}
	.st567{fill:#DBDBDB;}
	.st568{fill:url(#SVGID_258_);}
	.st569{fill:#E4E6E3;}
	.st570{fill:#F1282E;}
	.st571{fill:#FF7474;}
	.st572{fill:url(#SVGID_259_);}
	.st573{fill:#E5E5E6;}
	.st574{fill:#FEFFFE;}
	.st575{fill:#F73484;}
	.st576{fill:#F33488;}
	.st577{fill:#FB7EB0;}
	.st578{fill:#CECFD1;}
	.st579{fill:url(#SVGID_260_);}
	.st580{fill:#E4E7E5;}
	.st581{fill:#C7C939;}
	.st582{fill:#C3CA3E;}
	.st583{fill:#C3CB38;}
	.st584{fill:#E2E861;}
	.st585{fill:#D0D1D3;}
	.st586{fill:url(#SVGID_261_);}
	.st587{fill:#060506;}
	.st588{fill:#444444;}
	.st589{fill:#6A6A6C;}
	.st590{fill:#6A6A6E;}
	.st591{fill:#A09FA4;}
	.st592{fill:#3F3F40;}
	.st593{fill:url(#SVGID_262_);}
	.st594{fill:#F7F7F9;}
	.st595{fill:#E6E5E3;}
	.st596{fill:#FFFFFD;}
	.st597{fill:#E1BFA6;}
	.st598{fill:#DFBFAC;}
	.st599{fill:#DDC0AB;}
	.st600{fill:#DCDCDC;}
	.st601{fill:url(#SVGID_263_);}
	.st602{fill:#E7E5E5;}
	.st603{fill:#3A7EE6;}
	.st604{fill:#3680E3;}
	.st605{fill:#76AFFF;}
	.st606{fill:#CFD0D2;}
	.st607{fill:url(#SVGID_264_);}
	.st608{fill:#F9F8F8;}
	.st609{fill:#E7E5E3;}
	.st610{fill:#F4C4C3;}
	.st611{fill:#F2B7B6;}
	.st612{fill:#EFADA9;}
	.st613{fill:#F8CFCC;}
	.st614{fill:#EEB3B4;}
	.st615{fill:url(#SVGID_265_);}
	.st616{fill:url(#SVGID_266_);}
	.st617{fill:#050504;}
	.st618{fill:#050507;}
	.st619{fill:#9F9FA0;}
	.st620{fill:#7B7B7C;}
	.st621{fill:#6A6A6D;}
	.st622{fill:#9F9FA1;}
	.st623{opacity:0.6;fill:#4F4F55;}
	.st624{fill:url(#SVGID_267_);}
	.st625{fill:url(#SVGID_268_);}
	.st626{fill:#F7F8F9;}
	.st627{fill:#C3C3C3;}
	.st628{fill:url(#SVGID_269_);}
	.st629{opacity:0.6;fill:#827E80;}
	.st630{fill:#040404;}
	.st631{fill:#727272;}
	.st632{fill:#222222;}
	.st633{fill:#E75151;}
	.st634{fill:#CE3737;}
	.st635{fill:#AE1515;}
	.st636{fill:#302F2F;}
	.st637{fill:url(#SVGID_270_);}
	.st638{fill:url(#SVGID_271_);}
	.st639{opacity:0.6;fill:#AE1515;}
	.st640{fill:#515151;}
	.st641{fill:#3F3F3F;}
	.st642{fill:#888A87;}
	.st643{fill:url(#SVGID_272_);}
	.st644{fill:url(#SVGID_273_);}
	.st645{opacity:0.6;fill:#232323;}
	.st646{fill:url(#SVGID_274_);}
	.st647{fill:url(#SVGID_275_);}
	.st648{fill:#F9FCFE;}
	.st649{fill:#E4E6E0;}
	.st650{fill:#EB4F65;}
	.st651{fill:#D23B43;}
	.st652{fill:#B32931;}
	.st653{fill:#DBA4A7;}
	.st654{fill:url(#SVGID_276_);}
	.st655{fill:url(#SVGID_277_);}
	.st656{opacity:0.6;fill:#A3212D;}
	.st657{fill:#060606;}
	.st658{fill:#5D5D5D;}
	.st659{fill:#747474;}
	.st660{fill:#232323;}
	.st661{fill:#424242;}
	.st662{fill:url(#SVGID_278_);}
	.st663{fill:url(#SVGID_279_);}
	.st664{fill:#FDFDFE;}
	.st665{fill:#9A9D99;}
	.st666{fill:url(#SVGID_280_);}
	.st667{fill:url(#SVGID_281_);}
	.st668{opacity:0.6;fill:#B9BBB4;}
	.st669{fill:#F9FAFA;}
	.st670{fill:#F7FCFD;}
	.st671{fill:#E6E6E6;}
	.st672{fill:#FFEEE9;}
	.st673{fill:#F0C4C1;}
	.st674{fill:#E29F9C;}
	.st675{fill:url(#SVGID_282_);}
	.st676{fill:url(#SVGID_283_);}
	.st677{opacity:0.6;fill:#F7F7F7;}
	.st678{fill:#08060A;}
	.st679{fill:#444443;}
	.st680{fill:#010202;}
	.st681{fill:#ADADB3;}
	.st682{fill:#96969D;}
	.st683{fill:#7F8084;}
	.st684{fill:#B8BBB5;}
	.st685{fill:url(#SVGID_284_);}
	.st686{fill:url(#SVGID_285_);}
	.st687{opacity:0.6;fill:#5C5D61;}
	.st688{fill:#F5F7F8;}
	.st689{fill:#FCFCFD;}
	.st690{fill:#E7E6E5;}
	.st691{fill:#FEEFD9;}
	.st692{fill:#DECDB6;}
	.st693{fill:#B8A38C;}
	.st694{fill:#DBC7B1;}
	.st695{fill:#C7B4A1;}
	.st696{fill:url(#SVGID_286_);}
	.st697{fill:url(#SVGID_287_);}
	.st698{opacity:0.6;fill:#EEF0F0;}
	.st699{fill:url(#SVGID_288_);}
	.st700{fill:url(#SVGID_289_);}
	.st701{opacity:0.6;fill:#9A9D99;}
	.st702{opacity:0.75;fill:#DA6555;}
	.st703{opacity:0.75;fill:#DC7B40;}
	.st704{opacity:0.75;fill:#CA5731;}
	.st705{opacity:0.5;fill:#FFFFFF;}
	.st706{fill:#B6B6B2;}
	.st707{opacity:0.6;fill:#CBCBC9;}
	.st708{fill:url(#SVGID_290_);}
	.st709{fill:url(#SVGID_291_);}
	.st710{fill:url(#SVGID_292_);}
	.st711{fill:url(#SVGID_293_);}
	.st712{fill:url(#SVGID_294_);}
	.st713{fill:#3E3D39;}
	.st714{fill:#65645F;}
	.st715{opacity:0.6;fill:#4F4E4A;}
	.st716{fill:url(#SVGID_295_);}
	.st717{fill:url(#SVGID_296_);}
	.st718{fill:#FFFFFF;stroke:#CCCCCC;stroke-miterlimit:10;}
	.st719{fill:url(#SVGID_297_);}
	.st720{fill:url(#SVGID_298_);}
	.st721{fill:url(#SVGID_299_);}
	.st722{fill:#443C4B;}
	.st723{fill:#725989;}
	.st724{fill:#7B6C98;}
	.st725{opacity:0.6;fill:#5F4E7A;}
	.st726{fill:url(#SVGID_300_);}
	.st727{fill:url(#SVGID_301_);}
	.st728{fill:url(#SVGID_302_);}
	.st729{fill:url(#SVGID_303_);}
	.st730{fill:url(#SVGID_304_);}
	.st731{fill:url(#SVGID_305_);}
	.st732{fill:url(#SVGID_306_);}
	.st733{fill:url(#SVGID_307_);}
	.st734{fill:url(#SVGID_308_);}
	.st735{fill:url(#SVGID_309_);}
	.st736{fill:url(#SVGID_310_);}
	.st737{fill:url(#SVGID_311_);}
	.st738{fill:url(#SVGID_312_);}
	.st739{fill:url(#SVGID_313_);}
	.st740{fill:url(#SVGID_314_);}
	.st741{fill:url(#SVGID_315_);}
	.st742{fill:url(#SVGID_316_);}
	.st743{fill:url(#SVGID_317_);}
	.st744{fill:url(#SVGID_318_);}
	.st745{fill:url(#SVGID_319_);}
	.st746{fill:url(#SVGID_320_);}
	.st747{fill:url(#SVGID_321_);}
	.st748{fill:url(#SVGID_322_);}
	.st749{fill:url(#SVGID_323_);}
	.st750{fill:url(#SVGID_324_);}
	.st751{fill:#727074;}
	.st752{fill:#A5A5A6;}
	.st753{fill:#3C3C3E;}
	.st754{fill:#D8D8D8;}
	.st755{fill:#0C0C0C;}
	.st756{fill:url(#SVGID_325_);}
	.st757{fill:url(#SVGID_326_);}
	.st758{fill:url(#SVGID_327_);}
	.st759{fill:#A3A3A4;stroke:#191919;stroke-width:0.5;stroke-miterlimit:10;}
	.st760{fill:#000002;}
	.st761{fill:#494848;}
	.st762{fill:#73FF53;}
	.st763{fill:#00FFFF;}
	.st764{fill:url(#SVGID_328_);}
	.st765{fill:url(#SVGID_329_);}
	.st766{fill:url(#SVGID_330_);}
	.st767{opacity:0.61;fill:#494848;}
	.st768{opacity:0.38;fill:#494848;}
	.st769{opacity:0.47;fill:#494848;}
</style>
<g>
	<g>
		<linearGradient id="SVGID_1_" gradientUnits="userSpaceOnUse" x1="107.2651" y1="68.0864" x2="107.2651" y2="116.1651">
			<stop  offset="0" style="stop-color:#7B7B7B"/>
			<stop  offset="0.1478" style="stop-color:#767575"/>
			<stop  offset="1" style="stop-color:#060000"/>
		</linearGradient>
		<path class="st11" d="M55,116.2c0,0,8.4-5.1,10.4-17.6c1-6.2,2.2-13.9,3.1-20.2c1-6.5,6.5-10.3,13-10.3h25.5h25.9
			c6.6,0,12.2,3.9,13.1,10.4l2.8,20.9c0,0,1.9,10.7,10.8,17C140.6,116.4,55,116.2,55,116.2z"/>
		
			<linearGradient id="SVGID_2_" gradientUnits="userSpaceOnUse" x1="107.2651" y1="330.3729" x2="107.2651" y2="378.4516" gradientTransform="matrix(1 0 0 -1 0 644.2866)">
			<stop  offset="0" style="stop-color:#7B7B7B"/>
			<stop  offset="0.1478" style="stop-color:#767575"/>
			<stop  offset="1" style="stop-color:#060000"/>
		</linearGradient>
		<path class="st12" d="M55,265.8c0,0,8.4,5.1,10.4,17.6c1,6.2,2.2,13.9,3.1,20.2c1,6.5,6.5,10.3,13,10.3h25.5h25.9
			c6.6,0,12.2-3.9,13.1-10.4l2.8-20.9c0,0,1.9-10.7,10.8-17C140.6,265.6,55,265.8,55,265.8z"/>
		<g>
			<path class="st751" d="M141.3,113.1c18.3,0,33.2,14.9,33.2,33.2v89.4c0,18.3-14.9,33.2-33.2,33.2H72.9
				c-18.3,0-33.2-14.9-33.2-33.2v-89.4c0-18.3,14.9-33.2,33.2-33.2H141.3 M70.6,268h72.9c15.7,0,28.5-12.8,28.5-28.5v-94.7
				c0-15.7-12.8-28.5-28.5-28.5H70.6c-15.7,0-28.5,12.8-28.5,28.5v94.7C42.2,255.2,54.9,268,70.6,268 M141.3,112.1H72.9
				c-18.9,0-34.2,15.3-34.2,34.2v89.4c0,18.9,15.3,34.2,34.2,34.2h68.4c18.9,0,34.2-15.3,34.2-34.2v-89.4
				C175.5,127.4,160.2,112.1,141.3,112.1L141.3,112.1z M70.6,267c-15.2,0-27.5-12.3-27.5-27.5v-94.7c0-15.2,12.3-27.5,27.5-27.5
				h72.9c15.2,0,27.5,12.3,27.5,27.5v94.7c0,15.2-12.3,27.5-27.5,27.5H70.6L70.6,267z"/>
		</g>
		<g>
			<path class="st752" d="M140.9,114c18.1,0,32.9,14.7,32.9,32.9v88.4c0,18.1-14.7,32.9-32.9,32.9H73.3c-18.1,0-32.9-14.7-32.9-32.9
				v-88.4c0-18.1,14.7-32.9,32.9-32.9H140.9 M71,267.1h72.1c15.5,0,28.2-12.6,28.2-28.2v-93.7c0-15.5-12.6-28.2-28.2-28.2H71
				c-15.5,0-28.2,12.6-28.2,28.2V239C42.9,254.5,55.5,267.1,71,267.1 M140.9,113H73.3c-18.7,0-33.9,15.2-33.9,33.9v88.4
				c0,18.7,15.2,33.9,33.9,33.9h67.6c18.7,0,33.9-15.2,33.9-33.9v-88.4C174.7,128.1,159.6,113,140.9,113L140.9,113z M71,266.1
				c-15,0-27.2-12.2-27.2-27.2v-93.7c0-15,12.2-27.2,27.2-27.2h72.1c15,0,27.2,12.2,27.2,27.2V239c0,15-12.2,27.2-27.2,27.2H71
				L71,266.1z"/>
		</g>
		<path class="st753" d="M142.8,119H71.2c-14.6,0-26.5,11.9-26.5,26.5v93.1c0,14.6,11.9,26.5,26.5,26.5h71.6
			c14.6,0,26.5-11.9,26.5-26.5v-93.1C169.3,130.9,157.5,119,142.8,119z M160.1,235.9c0,10.9-8.9,19.8-19.8,19.8H73.9
			c-10.9,0-19.8-8.9-19.8-19.8v-89.3c0-11.2,9.1-20.4,20.4-20.4h65.3c11.2,0,20.4,9.1,20.4,20.4V235.9z"/>
		<g>
			<path class="st754" d="M140.7,114.9c17.7,0,32.1,14.4,32.1,32.1v87.8c0,17.7-14.4,32.1-32.1,32.1H73.4
				c-17.7,0-32.1-14.4-32.1-32.1V147c0-17.7,14.4-32.1,32.1-32.1H140.7 M71.2,266.1h71.7c15.1,0,27.5-12.3,27.5-27.5v-93.1
				c0-15.2-12.3-27.5-27.5-27.5H71.2c-15.1,0-27.5,12.3-27.5,27.5v93.1C43.7,253.7,56,266.1,71.2,266.1 M140.7,113.9H73.4
				c-18.3,0-33.1,14.8-33.1,33.1v87.8c0,18.3,14.8,33.1,33.1,33.1h67.3c18.3,0,33.1-14.8,33.1-33.1V147
				C173.7,128.7,158.9,113.9,140.7,113.9L140.7,113.9z M71.2,265.1c-14.6,0-26.5-11.9-26.5-26.5v-93.1c0-14.6,11.8-26.5,26.5-26.5
				h71.7c14.6,0,26.5,11.9,26.5,26.5v93.1c0,14.6-11.8,26.5-26.5,26.5H71.2L71.2,265.1z"/>
		</g>
		<g>
			<path class="st755" d="M141,112.1c18.9,0,34.3,15.4,34.3,34.3v89.1c0,18.9-15.4,34.3-34.3,34.3H73.1c-18.9,0-34.3-15.4-34.3-34.3
				v-89.1c0-18.9,15.4-34.3,34.3-34.3H141 M70.9,267.9h72.4c16.3,0,29.5-17.2,29.5-28.5v-94.5c0-16.3-13.2-29.5-29.5-29.5H70.9
				c-16.3,0-29.5,13.2-29.5,29.5v94.5C41.4,252.3,54.5,267.9,70.9,267.9 M141,111.1H73.1c-19.5,0-35.3,15.8-35.3,35.3v89.1
				c0,19.5,15.8,35.3,35.3,35.3H141c19.5,0,35.3-15.8,35.3-35.3v-89.1C176.3,127,160.5,111.1,141,111.1L141,111.1z M70.9,266.9
				c-15.7,0-28.5-15-28.5-27.5v-94.5c0-15.7,12.8-28.5,28.5-28.5h72.4c15.7,0,28.5,12.8,28.5,28.5v94.5c0,10.5-12.8,27.5-28.5,27.5
				H70.9L70.9,266.9z"/>
		</g>
		<path d="M143.5,122.2H70.6c-12.4,0-22.4,10-22.4,22.4v92.8c0,14.5,11.8,26.3,26.3,26.3h65.2c14.5,0,26.3-11.8,26.3-26.3v-92.8
			C165.9,132.3,155.9,122.2,143.5,122.2z M160.1,234.9c0,10.9-8.9,19.8-19.8,19.8H73.9c-10.9,0-19.8-8.9-19.8-19.8v-89.3
			c0-11.2,9.1-20.4,20.4-20.4h65.3c11.2,0,20.4,9.1,20.4,20.4V234.9z"/>
		<linearGradient id="SVGID_3_" gradientUnits="userSpaceOnUse" x1="178" y1="147.2057" x2="178" y2="174.7682">
			<stop  offset="0" style="stop-color:#060000"/>
			<stop  offset="0.1183" style="stop-color:#7B7B7B"/>
			<stop  offset="0.5" style="stop-color:#060000"/>
			<stop  offset="0.9086" style="stop-color:#767575"/>
			<stop  offset="1" style="stop-color:#060000"/>
		</linearGradient>
		<path class="st13" d="M178.2,174.8h-0.4c-2.2,0-4-1.8-4-4v-19.6c0-2.2,1.8-4,4-4h0.4c2.2,0,4,1.8,4,4v19.6
			C182.2,173,180.4,174.8,178.2,174.8z"/>
	</g>
	<path class="st761" d="M140.2,254.7H73.8c-10.9,0-19.8-8.9-19.8-19.8v-89.3c0-11.2,9.1-20.4,20.4-20.4h65.3
		c11.2,0,20.4,9.1,20.4,20.4v89.3C160,245.8,151.2,254.7,140.2,254.7z"/>
</g>
</svg>
